<?xml version="1.0" encoding="UTF-8" standalone="no"?><svg xmlns="http://www.w3.org/2000/svg" xmlns:xlink="http://www.w3.org/1999/xlink" contentStyleType="text/css" height="562px" preserveAspectRatio="none" style="width:677px;height:562px;background:#FFFFFF;" version="1.1" viewBox="0 0 677 562" width="677px" zoomAndPan="magnify"><defs/><g><rect fill="#FFFFFF" height="378.7031" style="stroke:#181818;stroke-width:1.0;" width="10" x="32.5" y="92.6094"/><rect fill="#FFFFFF" height="36.3516" style="stroke:#181818;stroke-width:1.0;" width="10" x="241.5" y="145.3125"/><rect fill="#FFFFFF" height="151.7578" style="stroke:#181818;stroke-width:1.0;" width="10" x="241.5" y="227.0156"/><rect fill="#FFFFFF" height="60.7031" style="stroke:#181818;stroke-width:1.0;" width="10" x="461.5" y="287.7188"/><rect fill="none" height="216.2969" style="stroke:#000000;stroke-width:1.5;" width="660" x="10" y="247.0156"/><line style="stroke:#181818;stroke-width:0.5;stroke-dasharray:5.0,5.0;" x1="37" x2="37" y1="82.6094" y2="480.3125"/><line style="stroke:#181818;stroke-width:0.5;stroke-dasharray:5.0,5.0;" x1="246" x2="246" y1="82.6094" y2="480.3125"/><line style="stroke:#181818;stroke-width:0.5;stroke-dasharray:5.0,5.0;" x1="466" x2="466" y1="82.6094" y2="480.3125"/><line style="stroke:#181818;stroke-width:0.5;stroke-dasharray:5.0,5.0;" x1="642" x2="642" y1="82.6094" y2="480.3125"/><text fill="#000000" font-family="sans-serif" font-size="14" lengthAdjust="spacing" textLength="29" x="20" y="79.5332">User</text><ellipse cx="37.5" cy="13.5" fill="#E2E2F0" rx="8" ry="8" style="stroke:#181818;stroke-width:0.5;"/><path d="M37.5,21.5 L37.5,48.5 M24.5,29.5 L50.5,29.5 M37.5,48.5 L24.5,63.5 M37.5,48.5 L50.5,63.5 " fill="none" style="stroke:#181818;stroke-width:0.5;"/><text fill="#000000" font-family="sans-serif" font-size="14" lengthAdjust="spacing" textLength="29" x="20" y="493.8457">User</text><ellipse cx="37.5" cy="505.4219" fill="#E2E2F0" rx="8" ry="8" style="stroke:#181818;stroke-width:0.5;"/><path d="M37.5,513.4219 L37.5,540.4219 M24.5,521.4219 L50.5,521.4219 M37.5,540.4219 L24.5,555.4219 M37.5,540.4219 L50.5,555.4219 " fill="none" style="stroke:#181818;stroke-width:0.5;"/><text fill="#000000" font-family="sans-serif" font-size="14" lengthAdjust="spacing" textLength="30" x="228.5" y="79.5332">login</text><path d="M226,37 L226,61 M226,49 L243,49 " fill="none" style="stroke:#181818;stroke-width:0.5;"/><ellipse cx="255" cy="49" fill="#E2E2F0" rx="12" ry="12" style="stroke:#181818;stroke-width:0.5;"/><text fill="#000000" font-family="sans-serif" font-size="14" lengthAdjust="spacing" textLength="30" x="228.5" y="493.8457">login</text><path d="M226,500.9219 L226,524.9219 M226,512.9219 L243,512.9219 " fill="none" style="stroke:#181818;stroke-width:0.5;"/><ellipse cx="255" cy="512.9219" fill="#E2E2F0" rx="12" ry="12" style="stroke:#181818;stroke-width:0.5;"/><text fill="#000000" font-family="sans-serif" font-size="14" lengthAdjust="spacing" textLength="119" x="404" y="79.5332">JWTAuthController</text><ellipse cx="466.5" cy="49" fill="#E2E2F0" rx="12" ry="12" style="stroke:#181818;stroke-width:0.5;"/><polygon fill="#181818" points="462.5,37,468.5,32,466.5,37,468.5,42,462.5,37" style="stroke:#181818;stroke-width:1.0;"/><text fill="#000000" font-family="sans-serif" font-size="14" lengthAdjust="spacing" textLength="119" x="404" y="493.8457">JWTAuthController</text><ellipse cx="466.5" cy="512.9219" fill="#E2E2F0" rx="12" ry="12" style="stroke:#181818;stroke-width:0.5;"/><polygon fill="#181818" points="462.5,500.9219,468.5,495.9219,466.5,500.9219,468.5,505.9219,462.5,500.9219" style="stroke:#181818;stroke-width:1.0;"/><text fill="#000000" font-family="sans-serif" font-size="14" lengthAdjust="spacing" textLength="29" x="625" y="79.5332">User</text><ellipse cx="642.5" cy="49" fill="#E2E2F0" rx="12" ry="12" style="stroke:#181818;stroke-width:0.5;"/><line style="stroke:#181818;stroke-width:0.5;" x1="630.5" x2="654.5" y1="63" y2="63"/><text fill="#000000" font-family="sans-serif" font-size="14" lengthAdjust="spacing" textLength="29" x="625" y="493.8457">User</text><ellipse cx="642.5" cy="512.9219" fill="#E2E2F0" rx="12" ry="12" style="stroke:#181818;stroke-width:0.5;"/><line style="stroke:#181818;stroke-width:0.5;" x1="630.5" x2="654.5" y1="526.9219" y2="526.9219"/><rect fill="#FFFFFF" height="378.7031" style="stroke:#181818;stroke-width:1.0;" width="10" x="32.5" y="92.6094"/><rect fill="#FFFFFF" height="36.3516" style="stroke:#181818;stroke-width:1.0;" width="10" x="241.5" y="145.3125"/><rect fill="#FFFFFF" height="151.7578" style="stroke:#181818;stroke-width:1.0;" width="10" x="241.5" y="227.0156"/><rect fill="#FFFFFF" height="60.7031" style="stroke:#181818;stroke-width:1.0;" width="10" x="461.5" y="287.7188"/><polygon fill="#181818" points="234.5,110.9609,244.5,114.9609,234.5,118.9609,238.5,114.9609" style="stroke:#181818;stroke-width:1.0;"/><line style="stroke:#181818;stroke-width:1.0;" x1="42.5" x2="240.5" y1="114.9609" y2="114.9609"/><text fill="#000000" font-family="sans-serif" font-size="13" lengthAdjust="spacing" textLength="180" x="49.5" y="110.1045">FillLoginForm(email, password)</text><polygon fill="#181818" points="53.5,141.3125,43.5,145.3125,53.5,149.3125,49.5,145.3125" style="stroke:#181818;stroke-width:1.0;"/><line style="stroke:#181818;stroke-width:1.0;stroke-dasharray:2.0,2.0;" x1="47.5" x2="240.5" y1="145.3125" y2="145.3125"/><text fill="#000000" font-family="sans-serif" font-size="13" lengthAdjust="spacing" textLength="61" x="59.5" y="140.4561">FormFilled</text><line style="stroke:#181818;stroke-width:1.0;" x1="251.5" x2="293.5" y1="180.6641" y2="180.6641"/><line style="stroke:#181818;stroke-width:1.0;" x1="293.5" x2="293.5" y1="180.6641" y2="193.6641"/><line style="stroke:#181818;stroke-width:1.0;" x1="246.5" x2="293.5" y1="193.6641" y2="193.6641"/><polygon fill="#181818" points="256.5,189.6641,246.5,193.6641,256.5,197.6641,252.5,193.6641" style="stroke:#181818;stroke-width:1.0;"/><text fill="#000000" font-family="sans-serif" font-size="13" lengthAdjust="spacing" textLength="196" x="258.5" y="175.8076">VerifyLoginForm(email, password)</text><line style="stroke:#181818;stroke-width:1.0;stroke-dasharray:2.0,2.0;" x1="246.5" x2="293.5" y1="214.0156" y2="214.0156"/><line style="stroke:#181818;stroke-width:1.0;stroke-dasharray:2.0,2.0;" x1="293.5" x2="293.5" y1="214.0156" y2="227.0156"/><line style="stroke:#181818;stroke-width:1.0;stroke-dasharray:2.0,2.0;" x1="252.5" x2="293.5" y1="227.0156" y2="227.0156"/><polygon fill="#181818" points="262.5,223.0156,252.5,227.0156,262.5,231.0156,258.5,227.0156" style="stroke:#181818;stroke-width:1.0;"/><text fill="#000000" font-family="sans-serif" font-size="13" lengthAdjust="spacing" textLength="73" x="258.5" y="209.1592">FormVerified</text><path d="M10,247.0156 L71,247.0156 L71,255.3672 L61,265.3672 L10,265.3672 L10,247.0156 " fill="#EEEEEE" style="stroke:#000000;stroke-width:1.5;"/><rect fill="none" height="216.2969" style="stroke:#000000;stroke-width:1.5;" width="660" x="10" y="247.0156"/><text fill="#000000" font-family="sans-serif" font-size="13" font-weight="bold" lengthAdjust="spacing" textLength="16" x="25" y="261.5107">alt</text><text fill="#000000" font-family="sans-serif" font-size="11" font-weight="bold" lengthAdjust="spacing" textLength="120" x="86" y="260.4346">[FormVerified is true]</text><polygon fill="#181818" points="449.5,283.7188,459.5,287.7188,449.5,291.7188,453.5,287.7188" style="stroke:#181818;stroke-width:1.0;"/><line style="stroke:#181818;stroke-width:1.0;" x1="251.5" x2="455.5" y1="287.7188" y2="287.7188"/><text fill="#000000" font-family="sans-serif" font-size="13" lengthAdjust="spacing" textLength="173" x="258.5" y="282.8623">authenticate(email, password)</text><polygon fill="#181818" points="630.5,314.0703,640.5,318.0703,630.5,322.0703,634.5,318.0703" style="stroke:#181818;stroke-width:1.0;"/><line style="stroke:#181818;stroke-width:1.0;" x1="471.5" x2="636.5" y1="318.0703" y2="318.0703"/><text fill="#000000" font-family="sans-serif" font-size="13" lengthAdjust="spacing" textLength="147" x="478.5" y="313.2139">getUser(email, password)</text><polygon fill="#181818" points="477.5,344.4219,467.5,348.4219,477.5,352.4219,473.5,348.4219" style="stroke:#181818;stroke-width:1.0;"/><line style="stroke:#181818;stroke-width:1.0;stroke-dasharray:2.0,2.0;" x1="471.5" x2="641.5" y1="348.4219" y2="348.4219"/><text fill="#000000" font-family="sans-serif" font-size="13" lengthAdjust="spacing" textLength="107" x="483.5" y="343.5654">user authenticated</text><polygon fill="#181818" points="257.5,374.7734,247.5,378.7734,257.5,382.7734,253.5,378.7734" style="stroke:#181818;stroke-width:1.0;"/><line style="stroke:#181818;stroke-width:1.0;stroke-dasharray:2.0,2.0;" x1="251.5" x2="465.5" y1="378.7734" y2="378.7734"/><text fill="#000000" font-family="sans-serif" font-size="13" lengthAdjust="spacing" textLength="107" x="263.5" y="373.917">user authenticated</text><polygon fill="#181818" points="53.5,405.125,43.5,409.125,53.5,413.125,49.5,409.125" style="stroke:#181818;stroke-width:1.0;"/><line style="stroke:#181818;stroke-width:1.0;stroke-dasharray:2.0,2.0;" x1="47.5" x2="245.5" y1="409.125" y2="409.125"/><text fill="#000000" font-family="sans-serif" font-size="13" lengthAdjust="spacing" textLength="107" x="59.5" y="404.2686">user authenticated</text><line style="stroke:#000000;stroke-width:1.0;stroke-dasharray:2.0,2.0;" x1="10" x2="670" y1="418.125" y2="418.125"/><text fill="#000000" font-family="sans-serif" font-size="11" font-weight="bold" lengthAdjust="spacing" textLength="124" x="15" y="429.5439">[FormVerified is false]</text><polygon fill="#181818" points="53.5,451.3125,43.5,455.3125,53.5,459.3125,49.5,455.3125" style="stroke:#181818;stroke-width:1.0;"/><line style="stroke:#181818;stroke-width:1.0;stroke-dasharray:2.0,2.0;" x1="47.5" x2="245.5" y1="455.3125" y2="455.3125"/><text fill="#000000" font-family="sans-serif" font-size="13" lengthAdjust="spacing" textLength="111" x="59.5" y="450.4561">showErrorMessage</text><!--MD5=[ff0f2a5e479bb85c350e342d5cc39e25]
@startuml login_sequence_diagram

actor "User" as u
boundary login as v
control JWTAuthController as c
entity User as m
activate u
u -> v : FillLoginForm(email, password)
deactivate v
v - -> u : FormFilled
activate v
v -> v :VerifyLoginForm(email, password)
deactivate v
v - -> v : FormVerified

alt FormVerified is true
activate v
v -> c : authenticate(email, password)

activate c
c -> m : getUser(email, password)
deactivate m
m - -> c: user authenticated
deactivate c
c - -> v: user authenticated
deactivate v
v - -> u: user authenticated
else FormVerified is false
v - -> u : showErrorMessage
deactivate c


end


@enduml

PlantUML version 1.2022.7(Mon Aug 22 19:01:30 CEST 2022)
(GPL source distribution)
Java Runtime: Java(TM) SE Runtime Environment
JVM: Java HotSpot(TM) 64-Bit Server VM
Default Encoding: Cp1252
Language: fr
Country: FR
--></g></svg>