<?xml version="1.0" encoding="UTF-8" standalone="no"?><svg xmlns="http://www.w3.org/2000/svg" xmlns:xlink="http://www.w3.org/1999/xlink" contentStyleType="text/css" height="492px" preserveAspectRatio="none" style="width:513px;height:492px;background:#FFFFFF;" version="1.1" viewBox="0 0 513 492" width="513px" zoomAndPan="magnify"><defs/><g><rect fill="#FFFFFF" height="310.0605" style="stroke:#181818;stroke-width:1.0;" width="10" x="66.5" y="91.4883"/><rect fill="#FFFFFF" height="170.8633" style="stroke:#181818;stroke-width:1.0;" width="10" x="200.5" y="112.7988"/><rect fill="#FFFFFF" height="112.2422" style="stroke:#181818;stroke-width:1.0;" width="10" x="334.5" y="142.1094"/><rect fill="#FFFFFF" height="53.6211" style="stroke:#181818;stroke-width:1.0;" width="10" x="468.5" y="171.4199"/><rect fill="none" height="208.1289" style="stroke:#000000;stroke-width:1.5;" width="496" x="10" y="186.4199"/><line style="stroke:#181818;stroke-width:0.5;stroke-dasharray:5.0,5.0;" x1="71" x2="71" y1="81.4883" y2="411.5488"/><line style="stroke:#181818;stroke-width:0.5;stroke-dasharray:5.0,5.0;" x1="205.5" x2="205.5" y1="81.4883" y2="411.5488"/><line style="stroke:#181818;stroke-width:0.5;stroke-dasharray:5.0,5.0;" x1="339.5" x2="339.5" y1="81.4883" y2="411.5488"/><line style="stroke:#181818;stroke-width:0.5;stroke-dasharray:5.0,5.0;" x1="473" x2="473" y1="81.4883" y2="411.5488"/><text fill="#000000" font-family="sans-serif" font-size="14" lengthAdjust="spacing" textLength="97" x="20" y="78.5352">SavTechnicien</text><ellipse cx="71.5" cy="13.5" fill="#E2E2F0" rx="8" ry="8" style="stroke:#181818;stroke-width:0.5;"/><path d="M71.5,21.5 L71.5,48.5 M58.5,29.5 L84.5,29.5 M71.5,48.5 L58.5,63.5 M71.5,48.5 L84.5,63.5 " fill="none" style="stroke:#181818;stroke-width:0.5;"/><text fill="#000000" font-family="sans-serif" font-size="14" lengthAdjust="spacing" textLength="97" x="20" y="424.084">SavTechnicien</text><ellipse cx="71.5" cy="435.5371" fill="#E2E2F0" rx="8" ry="8" style="stroke:#181818;stroke-width:0.5;"/><path d="M71.5,443.5371 L71.5,470.5371 M58.5,451.5371 L84.5,451.5371 M71.5,470.5371 L58.5,485.5371 M71.5,470.5371 L84.5,485.5371 " fill="none" style="stroke:#181818;stroke-width:0.5;"/><text fill="#000000" font-family="sans-serif" font-size="14" lengthAdjust="spacing" textLength="46" x="179.5" y="78.5352">Claims</text><path d="M185,37 L185,61 M185,49 L202,49 " fill="none" style="stroke:#181818;stroke-width:0.5;"/><ellipse cx="214" cy="49" fill="#E2E2F0" rx="12" ry="12" style="stroke:#181818;stroke-width:0.5;"/><text fill="#000000" font-family="sans-serif" font-size="14" lengthAdjust="spacing" textLength="46" x="179.5" y="424.084">Claims</text><path d="M185,431.0371 L185,455.0371 M185,443.0371 L202,443.0371 " fill="none" style="stroke:#181818;stroke-width:0.5;"/><ellipse cx="214" cy="443.0371" fill="#E2E2F0" rx="12" ry="12" style="stroke:#181818;stroke-width:0.5;"/><text fill="#000000" font-family="sans-serif" font-size="14" lengthAdjust="spacing" textLength="94" x="289.5" y="78.5352">ClaimsService</text><ellipse cx="339.5" cy="49" fill="#E2E2F0" rx="12" ry="12" style="stroke:#181818;stroke-width:0.5;"/><polygon fill="#181818" points="335.5,37,341.5,32,339.5,37,341.5,42,335.5,37" style="stroke:#181818;stroke-width:1.0;"/><text fill="#000000" font-family="sans-serif" font-size="14" lengthAdjust="spacing" textLength="94" x="289.5" y="424.084">ClaimsService</text><ellipse cx="339.5" cy="443.0371" fill="#E2E2F0" rx="12" ry="12" style="stroke:#181818;stroke-width:0.5;"/><polygon fill="#181818" points="335.5,431.0371,341.5,426.0371,339.5,431.0371,341.5,436.0371,335.5,431.0371" style="stroke:#181818;stroke-width:1.0;"/><text fill="#000000" font-family="sans-serif" font-size="14" lengthAdjust="spacing" textLength="39" x="451" y="78.5352">Claim</text><ellipse cx="473.5" cy="49" fill="#E2E2F0" rx="12" ry="12" style="stroke:#181818;stroke-width:0.5;"/><line style="stroke:#181818;stroke-width:0.5;" x1="461.5" x2="485.5" y1="63" y2="63"/><text fill="#000000" font-family="sans-serif" font-size="14" lengthAdjust="spacing" textLength="39" x="451" y="424.084">Claim</text><ellipse cx="473.5" cy="443.0371" fill="#E2E2F0" rx="12" ry="12" style="stroke:#181818;stroke-width:0.5;"/><line style="stroke:#181818;stroke-width:0.5;" x1="461.5" x2="485.5" y1="457.0371" y2="457.0371"/><rect fill="#FFFFFF" height="310.0605" style="stroke:#181818;stroke-width:1.0;" width="10" x="66.5" y="91.4883"/><rect fill="#FFFFFF" height="170.8633" style="stroke:#181818;stroke-width:1.0;" width="10" x="200.5" y="112.7988"/><rect fill="#FFFFFF" height="112.2422" style="stroke:#181818;stroke-width:1.0;" width="10" x="334.5" y="142.1094"/><rect fill="#FFFFFF" height="53.6211" style="stroke:#181818;stroke-width:1.0;" width="10" x="468.5" y="171.4199"/><polygon fill="#181818" points="188.5,108.7988,198.5,112.7988,188.5,116.7988,192.5,112.7988" style="stroke:#181818;stroke-width:1.0;"/><line style="stroke:#181818;stroke-width:1.0;" x1="76.5" x2="194.5" y1="112.7988" y2="112.7988"/><text fill="#000000" font-family="sans-serif" font-size="13" lengthAdjust="spacing" textLength="105" x="83.5" y="108.0566">SetStatus(Status)</text><polygon fill="#181818" points="322.5,138.1094,332.5,142.1094,322.5,146.1094,326.5,142.1094" style="stroke:#181818;stroke-width:1.0;"/><line style="stroke:#181818;stroke-width:1.0;" x1="210.5" x2="328.5" y1="142.1094" y2="142.1094"/><text fill="#000000" font-family="sans-serif" font-size="13" lengthAdjust="spacing" textLength="105" x="217.5" y="137.3672">SetStatus(Status)</text><polygon fill="#181818" points="456.5,167.4199,466.5,171.4199,456.5,175.4199,460.5,171.4199" style="stroke:#181818;stroke-width:1.0;"/><line style="stroke:#181818;stroke-width:1.0;" x1="344.5" x2="462.5" y1="171.4199" y2="171.4199"/><text fill="#000000" font-family="sans-serif" font-size="13" lengthAdjust="spacing" textLength="105" x="351.5" y="166.6777">SetStatus(Status)</text><path d="M10,186.4199 L72,186.4199 L72,193.7305 L62,203.7305 L10,203.7305 L10,186.4199 " fill="#EEEEEE" style="stroke:#000000;stroke-width:1.5;"/><rect fill="none" height="208.1289" style="stroke:#000000;stroke-width:1.5;" width="496" x="10" y="186.4199"/><text fill="#000000" font-family="sans-serif" font-size="13" font-weight="bold" lengthAdjust="spacing" textLength="17" x="25" y="199.9883">alt</text><text fill="#000000" font-family="sans-serif" font-size="11" font-weight="bold" lengthAdjust="spacing" textLength="75" x="87" y="199.0547">[status is set]</text><polygon fill="#181818" points="355.5,221.041,345.5,225.041,355.5,229.041,351.5,225.041" style="stroke:#181818;stroke-width:1.0;"/><line style="stroke:#181818;stroke-width:1.0;stroke-dasharray:2.0,2.0;" x1="349.5" x2="472.5" y1="225.041" y2="225.041"/><text fill="#000000" font-family="sans-serif" font-size="13" lengthAdjust="spacing" textLength="58" x="361.5" y="220.2988">statusSet</text><polygon fill="#181818" points="221.5,250.3516,211.5,254.3516,221.5,258.3516,217.5,254.3516" style="stroke:#181818;stroke-width:1.0;"/><line style="stroke:#181818;stroke-width:1.0;stroke-dasharray:2.0,2.0;" x1="215.5" x2="338.5" y1="254.3516" y2="254.3516"/><text fill="#000000" font-family="sans-serif" font-size="13" lengthAdjust="spacing" textLength="58" x="227.5" y="249.6094">statusSet</text><polygon fill="#181818" points="87.5,279.6621,77.5,283.6621,87.5,287.6621,83.5,283.6621" style="stroke:#181818;stroke-width:1.0;"/><line style="stroke:#181818;stroke-width:1.0;stroke-dasharray:2.0,2.0;" x1="81.5" x2="204.5" y1="283.6621" y2="283.6621"/><text fill="#000000" font-family="sans-serif" font-size="13" lengthAdjust="spacing" textLength="58" x="93.5" y="278.9199">statusSet</text><line style="stroke:#000000;stroke-width:1.0;stroke-dasharray:2.0,2.0;" x1="10" x2="506" y1="292.6621" y2="292.6621"/><text fill="#000000" font-family="sans-serif" font-size="11" font-weight="bold" lengthAdjust="spacing" textLength="97" x="15" y="303.2969">[status is not set]</text><polygon fill="#181818" points="350.5,323.9277,340.5,327.9277,350.5,331.9277,346.5,327.9277" style="stroke:#181818;stroke-width:1.0;"/><line style="stroke:#181818;stroke-width:1.0;stroke-dasharray:2.0,2.0;" x1="344.5" x2="472.5" y1="327.9277" y2="327.9277"/><text fill="#000000" font-family="sans-serif" font-size="13" lengthAdjust="spacing" textLength="81" x="356.5" y="323.1855">statusNotSet</text><polygon fill="#181818" points="216.5,353.2383,206.5,357.2383,216.5,361.2383,212.5,357.2383" style="stroke:#181818;stroke-width:1.0;"/><line style="stroke:#181818;stroke-width:1.0;stroke-dasharray:2.0,2.0;" x1="210.5" x2="338.5" y1="357.2383" y2="357.2383"/><text fill="#000000" font-family="sans-serif" font-size="13" lengthAdjust="spacing" textLength="81" x="222.5" y="352.4961">statusNotSet</text><polygon fill="#181818" points="87.5,382.5488,77.5,386.5488,87.5,390.5488,83.5,386.5488" style="stroke:#181818;stroke-width:1.0;"/><line style="stroke:#181818;stroke-width:1.0;stroke-dasharray:2.0,2.0;" x1="81.5" x2="204.5" y1="386.5488" y2="386.5488"/><text fill="#000000" font-family="sans-serif" font-size="13" lengthAdjust="spacing" textLength="81" x="93.5" y="381.8066">statusNotSet</text><!--MD5=[6a2592d45514194aef6de6163de0a396]
@startuml set_claim_status
actor SavTechnicien as st
boundary Claims as cl
control ClaimsService as cs
entity Claim as c
activate st
st -> cl : SetStatus(Status)
activate cl
cl -> cs : SetStatus(Status)
activate cs
cs -> c : SetStatus(Status)
activate c
alt status is set
c - -> cs : statusSet
deactivate c
cs - -> cl : statusSet
deactivate cs
cl - -> st : statusSet
deactivate cl
else status is not set
c - -> cs : statusNotSet
deactivate c
cs - -> cl : statusNotSet
deactivate cs
cl - -> st : statusNotSet
deactivate cl
end
deactivate cl
deactivate st
@enduml

PlantUML version 1.2022.7(Mon Aug 22 18:01:30 CET 2022)
(GPL source distribution)
Java Runtime: Java(TM) SE Runtime Environment
JVM: Java HotSpot(TM) 64-Bit Server VM
Default Encoding: UTF-8
Language: fr
Country: FR
--></g></svg>