<?xml version="1.0" encoding="UTF-8" standalone="no"?><svg xmlns="http://www.w3.org/2000/svg" xmlns:xlink="http://www.w3.org/1999/xlink" contentStyleType="text/css" height="668px" preserveAspectRatio="none" style="width:1015px;height:668px;background:#FFFFFF;" version="1.1" viewBox="0 0 1015 668" width="1015px" zoomAndPan="magnify"><defs/><g><rect fill="#FFFFFF" height="378.7031" style="stroke:#181818;stroke-width:1.0;" width="10" x="68" y="145.4375"/><rect fill="#FFFFFF" height="36.3516" style="stroke:#181818;stroke-width:1.0;" width="10" x="436" y="198.1406"/><rect fill="#FFFFFF" height="151.7578" style="stroke:#181818;stroke-width:1.0;" width="10" x="436" y="279.8438"/><rect fill="#FFFFFF" height="60.7031" style="stroke:#181818;stroke-width:1.0;" width="10" x="818" y="340.5469"/><rect fill="none" height="216.2969" style="stroke:#000000;stroke-width:1.5;" width="998.5" x="10" y="299.8438"/><line style="stroke:#181818;stroke-width:0.5;stroke-dasharray:5.0,5.0;" x1="73" x2="73" y1="135.4375" y2="533.1406"/><line style="stroke:#181818;stroke-width:0.5;stroke-dasharray:5.0,5.0;" x1="441" x2="441" y1="135.4375" y2="533.1406"/><line style="stroke:#181818;stroke-width:0.5;stroke-dasharray:5.0,5.0;" x1="822.5" x2="822.5" y1="135.4375" y2="533.1406"/><line style="stroke:#181818;stroke-width:0.5;stroke-dasharray:5.0,5.0;" x1="980.5" x2="980.5" y1="135.4375" y2="533.1406"/><text fill="#000000" font-family="sans-serif" font-size="14" lengthAdjust="spacing" textLength="39" x="50.5" y="79.5332">Admin</text><text fill="#000000" font-family="sans-serif" font-size="14" lengthAdjust="spacing" textLength="87" x="26.5" y="97.1426">SAV Manager</text><text fill="#000000" font-family="sans-serif" font-size="14" lengthAdjust="spacing" textLength="100" x="20" y="114.752">SAV Technician</text><text fill="#000000" font-family="sans-serif" font-size="14" lengthAdjust="spacing" textLength="94" x="23" y="132.3613">Scooter Owner</text><ellipse cx="73" cy="13.5" fill="#E2E2F0" rx="8" ry="8" style="stroke:#181818;stroke-width:0.5;"/><path d="M73,21.5 L73,48.5 M60,29.5 L86,29.5 M73,48.5 L60,63.5 M73,48.5 L86,63.5 " fill="none" style="stroke:#181818;stroke-width:0.5;"/><text fill="#000000" font-family="sans-serif" font-size="14" lengthAdjust="spacing" textLength="39" x="50.5" y="546.6738">Admin</text><text fill="#000000" font-family="sans-serif" font-size="14" lengthAdjust="spacing" textLength="87" x="26.5" y="564.2832">SAV Manager</text><text fill="#000000" font-family="sans-serif" font-size="14" lengthAdjust="spacing" textLength="100" x="20" y="581.8926">SAV Technician</text><text fill="#000000" font-family="sans-serif" font-size="14" lengthAdjust="spacing" textLength="94" x="23" y="599.502">Scooter Owner</text><ellipse cx="73" cy="611.0781" fill="#E2E2F0" rx="8" ry="8" style="stroke:#181818;stroke-width:0.5;"/><path d="M73,619.0781 L73,646.0781 M60,627.0781 L86,627.0781 M73,646.0781 L60,661.0781 M73,646.0781 L86,661.0781 " fill="none" style="stroke:#181818;stroke-width:0.5;"/><text fill="#000000" font-family="sans-serif" font-size="14" lengthAdjust="spacing" textLength="98" x="389" y="132.3613">ResetPassword</text><path d="M420.5,89.8281 L420.5,113.8281 M420.5,101.8281 L437.5,101.8281 " fill="none" style="stroke:#181818;stroke-width:0.5;"/><ellipse cx="449.5" cy="101.8281" fill="#E2E2F0" rx="12" ry="12" style="stroke:#181818;stroke-width:0.5;"/><text fill="#000000" font-family="sans-serif" font-size="14" lengthAdjust="spacing" textLength="98" x="389" y="546.6738">ResetPassword</text><path d="M420.5,553.75 L420.5,577.75 M420.5,565.75 L437.5,565.75 " fill="none" style="stroke:#181818;stroke-width:0.5;"/><ellipse cx="449.5" cy="565.75" fill="#E2E2F0" rx="12" ry="12" style="stroke:#181818;stroke-width:0.5;"/><text fill="#000000" font-family="sans-serif" font-size="14" lengthAdjust="spacing" textLength="103" x="768.5" y="132.3613">ForgetPassword</text><ellipse cx="823" cy="101.8281" fill="#E2E2F0" rx="12" ry="12" style="stroke:#181818;stroke-width:0.5;"/><polygon fill="#181818" points="819,89.8281,825,84.8281,823,89.8281,825,94.8281,819,89.8281" style="stroke:#181818;stroke-width:1.0;"/><text fill="#000000" font-family="sans-serif" font-size="14" lengthAdjust="spacing" textLength="103" x="768.5" y="546.6738">ForgetPassword</text><ellipse cx="823" cy="565.75" fill="#E2E2F0" rx="12" ry="12" style="stroke:#181818;stroke-width:0.5;"/><polygon fill="#181818" points="819,553.75,825,548.75,823,553.75,825,558.75,819,553.75" style="stroke:#181818;stroke-width:1.0;"/><text fill="#000000" font-family="sans-serif" font-size="14" lengthAdjust="spacing" textLength="29" x="963.5" y="132.3613">User</text><ellipse cx="981" cy="101.8281" fill="#E2E2F0" rx="12" ry="12" style="stroke:#181818;stroke-width:0.5;"/><line style="stroke:#181818;stroke-width:0.5;" x1="969" x2="993" y1="115.8281" y2="115.8281"/><text fill="#000000" font-family="sans-serif" font-size="14" lengthAdjust="spacing" textLength="29" x="963.5" y="546.6738">User</text><ellipse cx="981" cy="565.75" fill="#E2E2F0" rx="12" ry="12" style="stroke:#181818;stroke-width:0.5;"/><line style="stroke:#181818;stroke-width:0.5;" x1="969" x2="993" y1="579.75" y2="579.75"/><rect fill="#FFFFFF" height="378.7031" style="stroke:#181818;stroke-width:1.0;" width="10" x="68" y="145.4375"/><rect fill="#FFFFFF" height="36.3516" style="stroke:#181818;stroke-width:1.0;" width="10" x="436" y="198.1406"/><rect fill="#FFFFFF" height="151.7578" style="stroke:#181818;stroke-width:1.0;" width="10" x="436" y="279.8438"/><rect fill="#FFFFFF" height="60.7031" style="stroke:#181818;stroke-width:1.0;" width="10" x="818" y="340.5469"/><polygon fill="#181818" points="429,163.7891,439,167.7891,429,171.7891,433,167.7891" style="stroke:#181818;stroke-width:1.0;"/><line style="stroke:#181818;stroke-width:1.0;" x1="78" x2="435" y1="167.7891" y2="167.7891"/><text fill="#000000" font-family="sans-serif" font-size="13" lengthAdjust="spacing" textLength="339" x="85" y="162.9326">FillResetPasswordForm(email,password,confirmPassword)</text><polygon fill="#181818" points="89,194.1406,79,198.1406,89,202.1406,85,198.1406" style="stroke:#181818;stroke-width:1.0;"/><line style="stroke:#181818;stroke-width:1.0;stroke-dasharray:2.0,2.0;" x1="83" x2="435" y1="198.1406" y2="198.1406"/><text fill="#000000" font-family="sans-serif" font-size="13" lengthAdjust="spacing" textLength="61" x="95" y="193.2842">FormFilled</text><line style="stroke:#181818;stroke-width:1.0;" x1="446" x2="488" y1="233.4922" y2="233.4922"/><line style="stroke:#181818;stroke-width:1.0;" x1="488" x2="488" y1="233.4922" y2="246.4922"/><line style="stroke:#181818;stroke-width:1.0;" x1="441" x2="488" y1="246.4922" y2="246.4922"/><polygon fill="#181818" points="451,242.4922,441,246.4922,451,250.4922,447,246.4922" style="stroke:#181818;stroke-width:1.0;"/><text fill="#000000" font-family="sans-serif" font-size="13" lengthAdjust="spacing" textLength="358" x="453" y="228.6357">VerifyResetPasswordlForm(email,password,confirmPassword)</text><line style="stroke:#181818;stroke-width:1.0;stroke-dasharray:2.0,2.0;" x1="441" x2="488" y1="266.8438" y2="266.8438"/><line style="stroke:#181818;stroke-width:1.0;stroke-dasharray:2.0,2.0;" x1="488" x2="488" y1="266.8438" y2="279.8438"/><line style="stroke:#181818;stroke-width:1.0;stroke-dasharray:2.0,2.0;" x1="447" x2="488" y1="279.8438" y2="279.8438"/><polygon fill="#181818" points="457,275.8438,447,279.8438,457,283.8438,453,279.8438" style="stroke:#181818;stroke-width:1.0;"/><text fill="#000000" font-family="sans-serif" font-size="13" lengthAdjust="spacing" textLength="73" x="453" y="261.9873">FormVerified</text><path d="M10,299.8438 L71,299.8438 L71,308.1953 L61,318.1953 L10,318.1953 L10,299.8438 " fill="#EEEEEE" style="stroke:#000000;stroke-width:1.5;"/><rect fill="none" height="216.2969" style="stroke:#000000;stroke-width:1.5;" width="998.5" x="10" y="299.8438"/><text fill="#000000" font-family="sans-serif" font-size="13" font-weight="bold" lengthAdjust="spacing" textLength="16" x="25" y="314.3389">alt</text><text fill="#000000" font-family="sans-serif" font-size="11" font-weight="bold" lengthAdjust="spacing" textLength="120" x="86" y="313.2627">[FormVerified is true]</text><polygon fill="#181818" points="806,336.5469,816,340.5469,806,344.5469,810,340.5469" style="stroke:#181818;stroke-width:1.0;"/><line style="stroke:#181818;stroke-width:1.0;" x1="446" x2="812" y1="340.5469" y2="340.5469"/><text fill="#000000" font-family="sans-serif" font-size="13" lengthAdjust="spacing" textLength="341" x="453" y="335.6904">processForgotPassword(email,password,confirmPassword)</text><polygon fill="#181818" points="969,366.8984,979,370.8984,969,374.8984,973,370.8984" style="stroke:#181818;stroke-width:1.0;"/><line style="stroke:#181818;stroke-width:1.0;" x1="828" x2="975" y1="370.8984" y2="370.8984"/><text fill="#000000" font-family="sans-serif" font-size="13" lengthAdjust="spacing" textLength="129" x="835" y="366.042">updatePassword(user)</text><polygon fill="#181818" points="834,397.25,824,401.25,834,405.25,830,401.25" style="stroke:#181818;stroke-width:1.0;"/><line style="stroke:#181818;stroke-width:1.0;stroke-dasharray:2.0,2.0;" x1="828" x2="980" y1="401.25" y2="401.25"/><text fill="#000000" font-family="sans-serif" font-size="13" lengthAdjust="spacing" textLength="105" x="840" y="396.3936">password updated</text><polygon fill="#181818" points="452,427.6016,442,431.6016,452,435.6016,448,431.6016" style="stroke:#181818;stroke-width:1.0;"/><line style="stroke:#181818;stroke-width:1.0;stroke-dasharray:2.0,2.0;" x1="446" x2="822" y1="431.6016" y2="431.6016"/><text fill="#000000" font-family="sans-serif" font-size="13" lengthAdjust="spacing" textLength="105" x="458" y="426.7451">password updated</text><polygon fill="#181818" points="89,457.9531,79,461.9531,89,465.9531,85,461.9531" style="stroke:#181818;stroke-width:1.0;"/><line style="stroke:#181818;stroke-width:1.0;stroke-dasharray:2.0,2.0;" x1="83" x2="440" y1="461.9531" y2="461.9531"/><text fill="#000000" font-family="sans-serif" font-size="13" lengthAdjust="spacing" textLength="105" x="95" y="457.0967">password updated</text><line style="stroke:#000000;stroke-width:1.0;stroke-dasharray:2.0,2.0;" x1="10" x2="1008.5" y1="470.9531" y2="470.9531"/><text fill="#000000" font-family="sans-serif" font-size="11" font-weight="bold" lengthAdjust="spacing" textLength="124" x="15" y="482.3721">[FormVerified is false]</text><polygon fill="#181818" points="89,504.1406,79,508.1406,89,512.1406,85,508.1406" style="stroke:#181818;stroke-width:1.0;"/><line style="stroke:#181818;stroke-width:1.0;stroke-dasharray:2.0,2.0;" x1="83" x2="440" y1="508.1406" y2="508.1406"/><text fill="#000000" font-family="sans-serif" font-size="13" lengthAdjust="spacing" textLength="111" x="95" y="503.2842">showErrorMessage</text><!--MD5=[6a146c49430757e6ae67d365683caee6]
@startuml reset_password_sequence_diagram

actor "Admin\nSAV Manager\nSAV Technician\nScooter Owner" as u
boundary ResetPassword as v
control ForgetPassword as c
entity User as m
activate u
u -> v : FillResetPasswordForm(email,password,confirmPassword)
deactivate v
v - -> u : FormFilled
activate v
v -> v :VerifyResetPasswordlForm(email,password,confirmPassword)
deactivate v
v - -> v : FormVerified

alt FormVerified is true
activate v
v -> c : processForgotPassword(email,password,confirmPassword)
activate c
c -> m : updatePassword(user)
deactivate m
m - -> c: password updated
deactivate c
c - -> v: password updated
deactivate v
v - -> u: password updated

else FormVerified is false
v - -> u : showErrorMessage
deactivate c
end
@enduml

PlantUML version 1.2022.7(Mon Aug 22 19:01:30 CEST 2022)
(GPL source distribution)
Java Runtime: Java(TM) SE Runtime Environment
JVM: Java HotSpot(TM) 64-Bit Server VM
Default Encoding: Cp1252
Language: fr
Country: FR
--></g></svg>