<?xml version="1.0" encoding="UTF-8" standalone="no"?><svg xmlns="http://www.w3.org/2000/svg" xmlns:xlink="http://www.w3.org/1999/xlink" contentStyleType="text/css" height="492px" preserveAspectRatio="none" style="width:737px;height:492px;background:#FFFFFF;" version="1.1" viewBox="0 0 737 492" width="737px" zoomAndPan="magnify"><defs/><g><rect fill="#FFFFFF" height="310.0605" style="stroke:#181818;stroke-width:1.0;" width="10" x="59.5" y="91.4883"/><rect fill="#FFFFFF" height="170.8633" style="stroke:#181818;stroke-width:1.0;" width="10" x="270.5" y="112.7988"/><rect fill="#FFFFFF" height="112.2422" style="stroke:#181818;stroke-width:1.0;" width="10" x="481.5" y="142.1094"/><rect fill="#FFFFFF" height="53.6211" style="stroke:#181818;stroke-width:1.0;" width="10" x="692.5" y="171.4199"/><rect fill="none" height="208.1289" style="stroke:#000000;stroke-width:1.5;" width="720" x="10" y="186.4199"/><line style="stroke:#181818;stroke-width:0.5;stroke-dasharray:5.0,5.0;" x1="64" x2="64" y1="81.4883" y2="411.5488"/><line style="stroke:#181818;stroke-width:0.5;stroke-dasharray:5.0,5.0;" x1="275.5" x2="275.5" y1="81.4883" y2="411.5488"/><line style="stroke:#181818;stroke-width:0.5;stroke-dasharray:5.0,5.0;" x1="486.5" x2="486.5" y1="81.4883" y2="411.5488"/><line style="stroke:#181818;stroke-width:0.5;stroke-dasharray:5.0,5.0;" x1="697" x2="697" y1="81.4883" y2="411.5488"/><text fill="#000000" font-family="sans-serif" font-size="14" lengthAdjust="spacing" textLength="83" x="20" y="78.5352">SavManager</text><ellipse cx="64.5" cy="13.5" fill="#E2E2F0" rx="8" ry="8" style="stroke:#181818;stroke-width:0.5;"/><path d="M64.5,21.5 L64.5,48.5 M51.5,29.5 L77.5,29.5 M64.5,48.5 L51.5,63.5 M64.5,48.5 L77.5,63.5 " fill="none" style="stroke:#181818;stroke-width:0.5;"/><text fill="#000000" font-family="sans-serif" font-size="14" lengthAdjust="spacing" textLength="83" x="20" y="424.084">SavManager</text><ellipse cx="64.5" cy="435.5371" fill="#E2E2F0" rx="8" ry="8" style="stroke:#181818;stroke-width:0.5;"/><path d="M64.5,443.5371 L64.5,470.5371 M51.5,451.5371 L77.5,451.5371 M64.5,470.5371 L51.5,485.5371 M64.5,470.5371 L77.5,485.5371 " fill="none" style="stroke:#181818;stroke-width:0.5;"/><text fill="#000000" font-family="sans-serif" font-size="14" lengthAdjust="spacing" textLength="46" x="249.5" y="78.5352">Claims</text><path d="M255,37 L255,61 M255,49 L272,49 " fill="none" style="stroke:#181818;stroke-width:0.5;"/><ellipse cx="284" cy="49" fill="#E2E2F0" rx="12" ry="12" style="stroke:#181818;stroke-width:0.5;"/><text fill="#000000" font-family="sans-serif" font-size="14" lengthAdjust="spacing" textLength="46" x="249.5" y="424.084">Claims</text><path d="M255,431.0371 L255,455.0371 M255,443.0371 L272,443.0371 " fill="none" style="stroke:#181818;stroke-width:0.5;"/><ellipse cx="284" cy="443.0371" fill="#E2E2F0" rx="12" ry="12" style="stroke:#181818;stroke-width:0.5;"/><text fill="#000000" font-family="sans-serif" font-size="14" lengthAdjust="spacing" textLength="94" x="436.5" y="78.5352">ClaimsService</text><ellipse cx="486.5" cy="49" fill="#E2E2F0" rx="12" ry="12" style="stroke:#181818;stroke-width:0.5;"/><polygon fill="#181818" points="482.5,37,488.5,32,486.5,37,488.5,42,482.5,37" style="stroke:#181818;stroke-width:1.0;"/><text fill="#000000" font-family="sans-serif" font-size="14" lengthAdjust="spacing" textLength="94" x="436.5" y="424.084">ClaimsService</text><ellipse cx="486.5" cy="443.0371" fill="#E2E2F0" rx="12" ry="12" style="stroke:#181818;stroke-width:0.5;"/><polygon fill="#181818" points="482.5,431.0371,488.5,426.0371,486.5,431.0371,488.5,436.0371,482.5,431.0371" style="stroke:#181818;stroke-width:1.0;"/><text fill="#000000" font-family="sans-serif" font-size="14" lengthAdjust="spacing" textLength="39" x="675" y="78.5352">Claim</text><ellipse cx="697.5" cy="49" fill="#E2E2F0" rx="12" ry="12" style="stroke:#181818;stroke-width:0.5;"/><line style="stroke:#181818;stroke-width:0.5;" x1="685.5" x2="709.5" y1="63" y2="63"/><text fill="#000000" font-family="sans-serif" font-size="14" lengthAdjust="spacing" textLength="39" x="675" y="424.084">Claim</text><ellipse cx="697.5" cy="443.0371" fill="#E2E2F0" rx="12" ry="12" style="stroke:#181818;stroke-width:0.5;"/><line style="stroke:#181818;stroke-width:0.5;" x1="685.5" x2="709.5" y1="457.0371" y2="457.0371"/><rect fill="#FFFFFF" height="310.0605" style="stroke:#181818;stroke-width:1.0;" width="10" x="59.5" y="91.4883"/><rect fill="#FFFFFF" height="170.8633" style="stroke:#181818;stroke-width:1.0;" width="10" x="270.5" y="112.7988"/><rect fill="#FFFFFF" height="112.2422" style="stroke:#181818;stroke-width:1.0;" width="10" x="481.5" y="142.1094"/><rect fill="#FFFFFF" height="53.6211" style="stroke:#181818;stroke-width:1.0;" width="10" x="692.5" y="171.4199"/><polygon fill="#181818" points="258.5,108.7988,268.5,112.7988,258.5,116.7988,262.5,112.7988" style="stroke:#181818;stroke-width:1.0;"/><line style="stroke:#181818;stroke-width:1.0;" x1="69.5" x2="264.5" y1="112.7988" y2="112.7988"/><text fill="#000000" font-family="sans-serif" font-size="13" lengthAdjust="spacing" textLength="182" x="76.5" y="108.0566">AffectTechnician(Technicien)</text><polygon fill="#181818" points="469.5,138.1094,479.5,142.1094,469.5,146.1094,473.5,142.1094" style="stroke:#181818;stroke-width:1.0;"/><line style="stroke:#181818;stroke-width:1.0;" x1="280.5" x2="475.5" y1="142.1094" y2="142.1094"/><text fill="#000000" font-family="sans-serif" font-size="13" lengthAdjust="spacing" textLength="182" x="287.5" y="137.3672">AffectTechnician(Technicien)</text><polygon fill="#181818" points="680.5,167.4199,690.5,171.4199,680.5,175.4199,684.5,171.4199" style="stroke:#181818;stroke-width:1.0;"/><line style="stroke:#181818;stroke-width:1.0;" x1="491.5" x2="686.5" y1="171.4199" y2="171.4199"/><text fill="#000000" font-family="sans-serif" font-size="13" lengthAdjust="spacing" textLength="182" x="498.5" y="166.6777">AffectTechnician(Technicien)</text><path d="M10,186.4199 L72,186.4199 L72,193.7305 L62,203.7305 L10,203.7305 L10,186.4199 " fill="#EEEEEE" style="stroke:#000000;stroke-width:1.5;"/><rect fill="none" height="208.1289" style="stroke:#000000;stroke-width:1.5;" width="720" x="10" y="186.4199"/><text fill="#000000" font-family="sans-serif" font-size="13" font-weight="bold" lengthAdjust="spacing" textLength="17" x="25" y="199.9883">alt</text><text fill="#000000" font-family="sans-serif" font-size="11" font-weight="bold" lengthAdjust="spacing" textLength="128" x="87" y="199.0547">[technicien is affected]</text><polygon fill="#181818" points="502.5,221.041,492.5,225.041,502.5,229.041,498.5,225.041" style="stroke:#181818;stroke-width:1.0;"/><line style="stroke:#181818;stroke-width:1.0;stroke-dasharray:2.0,2.0;" x1="496.5" x2="696.5" y1="225.041" y2="225.041"/><text fill="#000000" font-family="sans-serif" font-size="13" lengthAdjust="spacing" textLength="118" x="508.5" y="220.2988">technicienAffected</text><polygon fill="#181818" points="291.5,250.3516,281.5,254.3516,291.5,258.3516,287.5,254.3516" style="stroke:#181818;stroke-width:1.0;"/><line style="stroke:#181818;stroke-width:1.0;stroke-dasharray:2.0,2.0;" x1="285.5" x2="485.5" y1="254.3516" y2="254.3516"/><text fill="#000000" font-family="sans-serif" font-size="13" lengthAdjust="spacing" textLength="118" x="297.5" y="249.6094">technicienAffected</text><polygon fill="#181818" points="80.5,279.6621,70.5,283.6621,80.5,287.6621,76.5,283.6621" style="stroke:#181818;stroke-width:1.0;"/><line style="stroke:#181818;stroke-width:1.0;stroke-dasharray:2.0,2.0;" x1="74.5" x2="274.5" y1="283.6621" y2="283.6621"/><text fill="#000000" font-family="sans-serif" font-size="13" lengthAdjust="spacing" textLength="118" x="86.5" y="278.9199">technicienAffected</text><line style="stroke:#000000;stroke-width:1.0;stroke-dasharray:2.0,2.0;" x1="10" x2="730" y1="292.6621" y2="292.6621"/><text fill="#000000" font-family="sans-serif" font-size="11" font-weight="bold" lengthAdjust="spacing" textLength="150" x="15" y="303.2969">[technicien is not affected]</text><polygon fill="#181818" points="497.5,323.9277,487.5,327.9277,497.5,331.9277,493.5,327.9277" style="stroke:#181818;stroke-width:1.0;"/><line style="stroke:#181818;stroke-width:1.0;stroke-dasharray:2.0,2.0;" x1="491.5" x2="696.5" y1="327.9277" y2="327.9277"/><text fill="#000000" font-family="sans-serif" font-size="13" lengthAdjust="spacing" textLength="141" x="503.5" y="323.1855">technicienNotAffected</text><polygon fill="#181818" points="286.5,353.2383,276.5,357.2383,286.5,361.2383,282.5,357.2383" style="stroke:#181818;stroke-width:1.0;"/><line style="stroke:#181818;stroke-width:1.0;stroke-dasharray:2.0,2.0;" x1="280.5" x2="485.5" y1="357.2383" y2="357.2383"/><text fill="#000000" font-family="sans-serif" font-size="13" lengthAdjust="spacing" textLength="141" x="292.5" y="352.4961">technicienNotAffected</text><polygon fill="#181818" points="80.5,382.5488,70.5,386.5488,80.5,390.5488,76.5,386.5488" style="stroke:#181818;stroke-width:1.0;"/><line style="stroke:#181818;stroke-width:1.0;stroke-dasharray:2.0,2.0;" x1="74.5" x2="274.5" y1="386.5488" y2="386.5488"/><text fill="#000000" font-family="sans-serif" font-size="13" lengthAdjust="spacing" textLength="141" x="86.5" y="381.8066">technicienNotAffected</text><!--MD5=[fbcf57e6ce34af1046a29b30a16b79b5]
@startuml set_claim_technician
actor SavManager as sm
boundary Claims as cl
control ClaimsService as cs
entity Claim as c

activate sm
sm -> cl : AffectTechnician(Technicien)
activate cl
cl -> cs : AffectTechnician(Technicien)
activate cs
cs -> c : AffectTechnician(Technicien)
activate c
alt technicien is affected
c - -> cs : technicienAffected
deactivate c
cs - -> cl : technicienAffected
deactivate cs
cl - -> sm : technicienAffected
deactivate cl
else technicien is not affected
c - -> cs : technicienNotAffected
deactivate c
cs - -> cl : technicienNotAffected
deactivate cs
cl - -> sm : technicienNotAffected
deactivate cl
end
deactivate cl
deactivate sm

@enduml

PlantUML version 1.2022.7(Mon Aug 22 18:01:30 CET 2022)
(GPL source distribution)
Java Runtime: Java(TM) SE Runtime Environment
JVM: Java HotSpot(TM) 64-Bit Server VM
Default Encoding: UTF-8
Language: fr
Country: FR
--></g></svg>