<?xml version="1.0" encoding="UTF-8" standalone="no"?><svg xmlns="http://www.w3.org/2000/svg" xmlns:xlink="http://www.w3.org/1999/xlink" contentStyleType="text/css" height="581px" preserveAspectRatio="none" style="width:406px;height:581px;background:#FFFFFF;" version="1.1" viewBox="0 0 406 581" width="406px" zoomAndPan="magnify"><defs/><g><!--MD5=[e59cf999063292dce8d6ea34dd10a338]
class user--><g id="elem_user"><rect codeLine="1" fill="#F1F1F1" height="206.4844" id="user" rx="2.5" ry="2.5" style="stroke:#181818;stroke-width:0.5;" width="160" x="116" y="7"/><ellipse cx="177.75" cy="23" fill="#ADD1B2" rx="11" ry="11" style="stroke:#181818;stroke-width:1.0;"/><path d="M180.5156,18.875 Q180.6719,18.6563 180.8594,18.5469 Q181.0469,18.4375 181.2656,18.4375 Q181.6406,18.4375 181.875,18.7031 Q182.1094,18.9531 182.1094,19.5625 L182.1094,21.0156 Q182.1094,21.625 181.875,21.8906 Q181.6406,22.1563 181.2656,22.1563 Q180.9219,22.1563 180.7188,21.9531 Q180.5156,21.7656 180.4063,21.25 Q180.3594,20.8906 180.1719,20.7031 Q179.8438,20.3281 179.2344,20.1094 Q178.625,19.8906 178,19.8906 Q177.2344,19.8906 176.5938,20.2188 Q175.9688,20.5469 175.4688,21.2969 Q174.9844,22.0469 174.9844,23.0781 L174.9844,24.1719 Q174.9844,25.4063 175.875,26.2344 Q176.7656,27.0469 178.3594,27.0469 Q179.2969,27.0469 179.9531,26.7969 Q180.3438,26.6406 180.7656,26.2031 Q181.0313,25.9375 181.1719,25.8594 Q181.3281,25.7813 181.5313,25.7813 Q181.8594,25.7813 182.1094,26.0469 Q182.375,26.2969 182.375,26.6406 Q182.375,26.9844 182.0313,27.3906 Q181.5313,27.9688 180.7344,28.2969 Q179.6563,28.75 178.3594,28.75 Q176.8438,28.75 175.6406,28.125 Q174.6563,27.625 173.9688,26.5625 Q173.2813,25.4844 173.2813,24.2031 L173.2813,23.0469 Q173.2813,21.7188 173.8906,20.5781 Q174.5156,19.4219 175.6094,18.8125 Q176.7031,18.1875 177.9375,18.1875 Q178.6719,18.1875 179.3125,18.3594 Q179.9688,18.5156 180.5156,18.875 Z " fill="#000000"/><text fill="#000000" font-family="sans-serif" font-size="14" lengthAdjust="spacing" textLength="28" x="198.25" y="28.7285">user</text><line style="stroke:#181818;stroke-width:0.5;" x1="117" x2="275" y1="39" y2="39"/><text fill="#000000" font-family="sans-serif" font-size="14" lengthAdjust="spacing" textLength="30" x="122" y="57.5332">Int id</text><text fill="#000000" font-family="sans-serif" font-size="14" lengthAdjust="spacing" textLength="76" x="122" y="75.1426">String name</text><text fill="#000000" font-family="sans-serif" font-size="14" lengthAdjust="spacing" textLength="101" x="122" y="92.752">String password</text><text fill="#000000" font-family="sans-serif" font-size="14" lengthAdjust="spacing" textLength="104" x="122" y="110.3613">String username</text><text fill="#000000" font-family="sans-serif" font-size="14" lengthAdjust="spacing" textLength="74" x="122" y="127.9707">String email</text><text fill="#000000" font-family="sans-serif" font-size="14" lengthAdjust="spacing" textLength="83" x="122" y="145.5801">Bool enabled</text><text fill="#000000" font-family="sans-serif" font-size="14" lengthAdjust="spacing" textLength="148" x="122" y="163.1895">String verification_code</text><line style="stroke:#181818;stroke-width:0.5;" x1="117" x2="275" y1="170.2656" y2="170.2656"/><text fill="#000000" font-family="sans-serif" font-size="14" lengthAdjust="spacing" textLength="84" x="122" y="188.7988">JSON Login()</text><text fill="#000000" font-family="sans-serif" font-size="14" lengthAdjust="spacing" textLength="95" x="122" y="206.4082">Bool Register()</text></g><!--MD5=[230c8b93044a8b32754c79e4598c3632]
class role--><g id="elem_role"><rect codeLine="13" fill="#F1F1F1" height="83.2188" id="role" rx="2.5" ry="2.5" style="stroke:#181818;stroke-width:0.5;" width="88" x="311" y="68.5"/><ellipse cx="340.4" cy="84.5" fill="#ADD1B2" rx="11" ry="11" style="stroke:#181818;stroke-width:1.0;"/><path d="M343.1656,80.375 Q343.3219,80.1563 343.5094,80.0469 Q343.6969,79.9375 343.9156,79.9375 Q344.2906,79.9375 344.525,80.2031 Q344.7594,80.4531 344.7594,81.0625 L344.7594,82.5156 Q344.7594,83.125 344.525,83.3906 Q344.2906,83.6563 343.9156,83.6563 Q343.5719,83.6563 343.3688,83.4531 Q343.1656,83.2656 343.0563,82.75 Q343.0094,82.3906 342.8219,82.2031 Q342.4938,81.8281 341.8844,81.6094 Q341.275,81.3906 340.65,81.3906 Q339.8844,81.3906 339.2438,81.7188 Q338.6188,82.0469 338.1188,82.7969 Q337.6344,83.5469 337.6344,84.5781 L337.6344,85.6719 Q337.6344,86.9063 338.525,87.7344 Q339.4156,88.5469 341.0094,88.5469 Q341.9469,88.5469 342.6031,88.2969 Q342.9938,88.1406 343.4156,87.7031 Q343.6813,87.4375 343.8219,87.3594 Q343.9781,87.2813 344.1813,87.2813 Q344.5094,87.2813 344.7594,87.5469 Q345.025,87.7969 345.025,88.1406 Q345.025,88.4844 344.6813,88.8906 Q344.1813,89.4688 343.3844,89.7969 Q342.3063,90.25 341.0094,90.25 Q339.4938,90.25 338.2906,89.625 Q337.3063,89.125 336.6188,88.0625 Q335.9313,86.9844 335.9313,85.7031 L335.9313,84.5469 Q335.9313,83.2188 336.5406,82.0781 Q337.1656,80.9219 338.2594,80.3125 Q339.3531,79.6875 340.5875,79.6875 Q341.3219,79.6875 341.9625,79.8594 Q342.6188,80.0156 343.1656,80.375 Z " fill="#000000"/><text fill="#000000" font-family="sans-serif" font-size="14" lengthAdjust="spacing" textLength="24" x="357.6" y="90.2285">role</text><line style="stroke:#181818;stroke-width:0.5;" x1="312" x2="398" y1="100.5" y2="100.5"/><text fill="#000000" font-family="sans-serif" font-size="14" lengthAdjust="spacing" textLength="30" x="317" y="119.0332">Int id</text><text fill="#000000" font-family="sans-serif" font-size="14" lengthAdjust="spacing" textLength="76" x="317" y="136.6426">String name</text><line style="stroke:#181818;stroke-width:0.5;" x1="312" x2="398" y1="143.7188" y2="143.7188"/></g><!--MD5=[bb78403d462536eaecf0d31e32db3464]
class SuperAdmin--><g id="elem_SuperAdmin"><rect codeLine="21" fill="#F1F1F1" height="48" id="SuperAdmin" rx="2.5" ry="2.5" style="stroke:#181818;stroke-width:0.5;" width="109" x="60.5" y="274"/><ellipse cx="75.5" cy="290" fill="#ADD1B2" rx="11" ry="11" style="stroke:#181818;stroke-width:1.0;"/><path d="M78.2656,285.875 Q78.4219,285.6563 78.6094,285.5469 Q78.7969,285.4375 79.0156,285.4375 Q79.3906,285.4375 79.625,285.7031 Q79.8594,285.9531 79.8594,286.5625 L79.8594,288.0156 Q79.8594,288.625 79.625,288.8906 Q79.3906,289.1563 79.0156,289.1563 Q78.6719,289.1563 78.4688,288.9531 Q78.2656,288.7656 78.1563,288.25 Q78.1094,287.8906 77.9219,287.7031 Q77.5938,287.3281 76.9844,287.1094 Q76.375,286.8906 75.75,286.8906 Q74.9844,286.8906 74.3438,287.2188 Q73.7188,287.5469 73.2188,288.2969 Q72.7344,289.0469 72.7344,290.0781 L72.7344,291.1719 Q72.7344,292.4063 73.625,293.2344 Q74.5156,294.0469 76.1094,294.0469 Q77.0469,294.0469 77.7031,293.7969 Q78.0938,293.6406 78.5156,293.2031 Q78.7813,292.9375 78.9219,292.8594 Q79.0781,292.7813 79.2813,292.7813 Q79.6094,292.7813 79.8594,293.0469 Q80.125,293.2969 80.125,293.6406 Q80.125,293.9844 79.7813,294.3906 Q79.2813,294.9688 78.4844,295.2969 Q77.4063,295.75 76.1094,295.75 Q74.5938,295.75 73.3906,295.125 Q72.4063,294.625 71.7188,293.5625 Q71.0313,292.4844 71.0313,291.2031 L71.0313,290.0469 Q71.0313,288.7188 71.6406,287.5781 Q72.2656,286.4219 73.3594,285.8125 Q74.4531,285.1875 75.6875,285.1875 Q76.4219,285.1875 77.0625,285.3594 Q77.7188,285.5156 78.2656,285.875 Z " fill="#000000"/><text fill="#000000" font-family="sans-serif" font-size="14" lengthAdjust="spacing" textLength="77" x="89.5" y="295.7285">SuperAdmin</text><line style="stroke:#181818;stroke-width:0.5;" x1="61.5" x2="168.5" y1="306" y2="306"/><line style="stroke:#181818;stroke-width:0.5;" x1="61.5" x2="168.5" y1="314" y2="314"/></g><!--MD5=[db6d18d8099558415abc41d00477ab92]
class Admin--><g id="elem_Admin"><rect codeLine="22" fill="#F1F1F1" height="48" id="Admin" rx="2.5" ry="2.5" style="stroke:#181818;stroke-width:0.5;" width="71" x="124.5" y="400"/><ellipse cx="139.5" cy="416" fill="#ADD1B2" rx="11" ry="11" style="stroke:#181818;stroke-width:1.0;"/><path d="M142.2656,411.875 Q142.4219,411.6563 142.6094,411.5469 Q142.7969,411.4375 143.0156,411.4375 Q143.3906,411.4375 143.625,411.7031 Q143.8594,411.9531 143.8594,412.5625 L143.8594,414.0156 Q143.8594,414.625 143.625,414.8906 Q143.3906,415.1563 143.0156,415.1563 Q142.6719,415.1563 142.4688,414.9531 Q142.2656,414.7656 142.1563,414.25 Q142.1094,413.8906 141.9219,413.7031 Q141.5938,413.3281 140.9844,413.1094 Q140.375,412.8906 139.75,412.8906 Q138.9844,412.8906 138.3438,413.2188 Q137.7188,413.5469 137.2188,414.2969 Q136.7344,415.0469 136.7344,416.0781 L136.7344,417.1719 Q136.7344,418.4063 137.625,419.2344 Q138.5156,420.0469 140.1094,420.0469 Q141.0469,420.0469 141.7031,419.7969 Q142.0938,419.6406 142.5156,419.2031 Q142.7813,418.9375 142.9219,418.8594 Q143.0781,418.7813 143.2813,418.7813 Q143.6094,418.7813 143.8594,419.0469 Q144.125,419.2969 144.125,419.6406 Q144.125,419.9844 143.7813,420.3906 Q143.2813,420.9688 142.4844,421.2969 Q141.4063,421.75 140.1094,421.75 Q138.5938,421.75 137.3906,421.125 Q136.4063,420.625 135.7188,419.5625 Q135.0313,418.4844 135.0313,417.2031 L135.0313,416.0469 Q135.0313,414.7188 135.6406,413.5781 Q136.2656,412.4219 137.3594,411.8125 Q138.4531,411.1875 139.6875,411.1875 Q140.4219,411.1875 141.0625,411.3594 Q141.7188,411.5156 142.2656,411.875 Z " fill="#000000"/><text fill="#000000" font-family="sans-serif" font-size="14" lengthAdjust="spacing" textLength="39" x="153.5" y="421.7285">Admin</text><line style="stroke:#181818;stroke-width:0.5;" x1="125.5" x2="194.5" y1="432" y2="432"/><line style="stroke:#181818;stroke-width:0.5;" x1="125.5" x2="194.5" y1="440" y2="440"/></g><!--MD5=[1905ef06d686617e564499c57ef4e8b7]
class SavManager--><g id="elem_SavManager"><rect codeLine="23" fill="#F1F1F1" height="48" id="SavManager" rx="2.5" ry="2.5" style="stroke:#181818;stroke-width:0.5;" width="112" x="7" y="526"/><ellipse cx="22" cy="542" fill="#ADD1B2" rx="11" ry="11" style="stroke:#181818;stroke-width:1.0;"/><path d="M24.7656,537.875 Q24.9219,537.6563 25.1094,537.5469 Q25.2969,537.4375 25.5156,537.4375 Q25.8906,537.4375 26.125,537.7031 Q26.3594,537.9531 26.3594,538.5625 L26.3594,540.0156 Q26.3594,540.625 26.125,540.8906 Q25.8906,541.1563 25.5156,541.1563 Q25.1719,541.1563 24.9688,540.9531 Q24.7656,540.7656 24.6563,540.25 Q24.6094,539.8906 24.4219,539.7031 Q24.0938,539.3281 23.4844,539.1094 Q22.875,538.8906 22.25,538.8906 Q21.4844,538.8906 20.8438,539.2188 Q20.2188,539.5469 19.7188,540.2969 Q19.2344,541.0469 19.2344,542.0781 L19.2344,543.1719 Q19.2344,544.4063 20.125,545.2344 Q21.0156,546.0469 22.6094,546.0469 Q23.5469,546.0469 24.2031,545.7969 Q24.5938,545.6406 25.0156,545.2031 Q25.2813,544.9375 25.4219,544.8594 Q25.5781,544.7813 25.7813,544.7813 Q26.1094,544.7813 26.3594,545.0469 Q26.625,545.2969 26.625,545.6406 Q26.625,545.9844 26.2813,546.3906 Q25.7813,546.9688 24.9844,547.2969 Q23.9063,547.75 22.6094,547.75 Q21.0938,547.75 19.8906,547.125 Q18.9063,546.625 18.2188,545.5625 Q17.5313,544.4844 17.5313,543.2031 L17.5313,542.0469 Q17.5313,540.7188 18.1406,539.5781 Q18.7656,538.4219 19.8594,537.8125 Q20.9531,537.1875 22.1875,537.1875 Q22.9219,537.1875 23.5625,537.3594 Q24.2188,537.5156 24.7656,537.875 Z " fill="#000000"/><text fill="#000000" font-family="sans-serif" font-size="14" lengthAdjust="spacing" textLength="80" x="36" y="547.7285">SavManager</text><line style="stroke:#181818;stroke-width:0.5;" x1="8" x2="118" y1="558" y2="558"/><line style="stroke:#181818;stroke-width:0.5;" x1="8" x2="118" y1="566" y2="566"/></g><!--MD5=[3970ac9d0f2932d0a717d423a1fe4097]
class SavTechnician--><g id="elem_SavTechnician"><rect codeLine="24" fill="#F1F1F1" height="48" id="SavTechnician" rx="2.5" ry="2.5" style="stroke:#181818;stroke-width:0.5;" width="125" x="192.5" y="526"/><ellipse cx="207.5" cy="542" fill="#ADD1B2" rx="11" ry="11" style="stroke:#181818;stroke-width:1.0;"/><path d="M210.2656,537.875 Q210.4219,537.6563 210.6094,537.5469 Q210.7969,537.4375 211.0156,537.4375 Q211.3906,537.4375 211.625,537.7031 Q211.8594,537.9531 211.8594,538.5625 L211.8594,540.0156 Q211.8594,540.625 211.625,540.8906 Q211.3906,541.1563 211.0156,541.1563 Q210.6719,541.1563 210.4688,540.9531 Q210.2656,540.7656 210.1563,540.25 Q210.1094,539.8906 209.9219,539.7031 Q209.5938,539.3281 208.9844,539.1094 Q208.375,538.8906 207.75,538.8906 Q206.9844,538.8906 206.3438,539.2188 Q205.7188,539.5469 205.2188,540.2969 Q204.7344,541.0469 204.7344,542.0781 L204.7344,543.1719 Q204.7344,544.4063 205.625,545.2344 Q206.5156,546.0469 208.1094,546.0469 Q209.0469,546.0469 209.7031,545.7969 Q210.0938,545.6406 210.5156,545.2031 Q210.7813,544.9375 210.9219,544.8594 Q211.0781,544.7813 211.2813,544.7813 Q211.6094,544.7813 211.8594,545.0469 Q212.125,545.2969 212.125,545.6406 Q212.125,545.9844 211.7813,546.3906 Q211.2813,546.9688 210.4844,547.2969 Q209.4063,547.75 208.1094,547.75 Q206.5938,547.75 205.3906,547.125 Q204.4063,546.625 203.7188,545.5625 Q203.0313,544.4844 203.0313,543.2031 L203.0313,542.0469 Q203.0313,540.7188 203.6406,539.5781 Q204.2656,538.4219 205.3594,537.8125 Q206.4531,537.1875 207.6875,537.1875 Q208.4219,537.1875 209.0625,537.3594 Q209.7188,537.5156 210.2656,537.875 Z " fill="#000000"/><text fill="#000000" font-family="sans-serif" font-size="14" lengthAdjust="spacing" textLength="93" x="221.5" y="547.7285">SavTechnician</text><line style="stroke:#181818;stroke-width:0.5;" x1="193.5" x2="316.5" y1="558" y2="558"/><line style="stroke:#181818;stroke-width:0.5;" x1="193.5" x2="316.5" y1="566" y2="566"/></g><!--MD5=[63ce33cd5e178a8d978ca2d524017a28]
link user to role--><g id="link_user_role"><path codeLine="18" d="M276.12,110 C286,110 295.89,110 305.77,110 " fill="none" id="user-to-role" style="stroke:#181818;stroke-width:1.0;stroke-dasharray:7.0,7.0;"/><polygon fill="#181818" points="310.94,110,301.94,106,305.94,110,301.94,114,310.94,110" style="stroke:#181818;stroke-width:1.0;"/></g><!--MD5=[72c6e1b549b1447b7193b68ca321e55c]
reverse link user to SuperAdmin--><g id="link_user_SuperAdmin"><path codeLine="28" d="M143.45,231.67 C136.5,247.63 130.07,262.39 125.09,273.83 " fill="none" id="user-backto-SuperAdmin" style="stroke:#181818;stroke-width:1.0;"/><polygon fill="none" points="137.07,228.79,151.47,213.25,149.9,234.38,137.07,228.79" style="stroke:#181818;stroke-width:1.0;"/></g><!--MD5=[05f636e075c7bd91d367b75f821ac10f]
reverse link user to Admin--><g id="link_user_Admin"><path codeLine="29" d="M199.63,233.49 C198.37,277.13 193.99,326.28 183,370 C180.46,380.12 176.18,390.76 172.01,399.83 " fill="none" id="user-backto-Admin" style="stroke:#181818;stroke-width:1.0;"/><polygon fill="none" points="192.64,233.08,200.01,213.21,206.64,233.34,192.64,233.08" style="stroke:#181818;stroke-width:1.0;"/></g><!--MD5=[a0c268020e0ea84cf6c1ae41f1c646a6]
reverse link user to SavManager--><g id="link_user_SavManager"><path codeLine="30" d="M101.54,187.92 C77.88,212.65 55.66,242.02 43,274 C8.29,361.68 38.85,477.27 54.77,525.88 " fill="none" id="user-backto-SavManager" style="stroke:#181818;stroke-width:1.0;"/><polygon fill="none" points="96.87,182.69,115.97,173.52,106.75,192.6,96.87,182.69" style="stroke:#181818;stroke-width:1.0;"/></g><!--MD5=[8bb68609a4e62aa5b8b1d511d6dd198c]
reverse link user to SavTechnician--><g id="link_user_SavTechnician"><path codeLine="31" d="M224.14,232.86 C224.79,236.27 225.41,239.66 226,243 C244.36,346.68 249.32,372.92 256,478 C257.02,493.99 256.74,512.05 256.23,525.96 " fill="none" id="user-backto-SavTechnician" style="stroke:#181818;stroke-width:1.0;"/><polygon fill="none" points="217.26,234.11,220.24,213.13,230.99,231.39,217.26,234.11" style="stroke:#181818;stroke-width:1.0;"/></g><!--MD5=[09aae7af09b34a009e8e6147e67eb674]
link SuperAdmin to Admin--><g id="link_SuperAdmin_Admin"><path codeLine="34" d="M123.36,322.03 C131.39,344.17 143.47,377.44 151.53,399.67 " fill="none" id="SuperAdmin-Admin" style="stroke:#181818;stroke-width:1.0;"/><text fill="#000000" font-family="sans-serif" font-size="13" lengthAdjust="spacing" textLength="32" x="142" y="366.4951">reject</text><text fill="#000000" font-family="sans-serif" font-size="13" lengthAdjust="spacing" textLength="7" x="117.5446" y="343.3753">1</text><text fill="#000000" font-family="sans-serif" font-size="13" lengthAdjust="spacing" textLength="5" x="143.8561" y="389.3275">*</text></g><!--MD5=[6951d3d603eaa732e2d95768dbc39690]
link Admin to SavManager--><g id="link_Admin_SavManager"><path codeLine="35" d="M141.98,448.03 C124.67,470.17 98.64,503.44 81.25,525.67 " fill="none" id="Admin-SavManager" style="stroke:#181818;stroke-width:1.0;"/><text fill="#000000" font-family="sans-serif" font-size="13" lengthAdjust="spacing" textLength="32" x="119" y="492.4951">reject</text><text fill="#000000" font-family="sans-serif" font-size="13" lengthAdjust="spacing" textLength="7" x="129.7345" y="469.3753">1</text><text fill="#000000" font-family="sans-serif" font-size="13" lengthAdjust="spacing" textLength="5" x="80.0891" y="515.3275">*</text></g><!--MD5=[2495fd0e5cfe1c9b4839490e04d8c76f]
link Admin to SavTechnician--><g id="link_Admin_SavTechnician"><path codeLine="36" d="M177.65,448.03 C194.6,470.17 220.09,503.44 237.13,525.67 " fill="none" id="Admin-SavTechnician" style="stroke:#181818;stroke-width:1.0;"/><text fill="#000000" font-family="sans-serif" font-size="13" lengthAdjust="spacing" textLength="32" x="215" y="492.4951">reject</text><text fill="#000000" font-family="sans-serif" font-size="13" lengthAdjust="spacing" textLength="7" x="174.0991" y="469.3753">1</text><text fill="#000000" font-family="sans-serif" font-size="13" lengthAdjust="spacing" textLength="5" x="227.1648" y="515.3275">*</text></g><!--MD5=[ea9cce790ff9550acea499ea9e218a3b]
@startuml reject_user_class_diagram
Class user {
Int id
String name
String password
String username
String email
Bool enabled 
String verification_code
JSON Login()
Bool Register()
}

Class role{
Int id
String name
}

user .right.> role

 
Class SuperAdmin{}
Class Admin{}
Class SavManager{}
Class SavTechnician{}


top to bottom direction
user <|- - SuperAdmin
user <|- - Admin
user <|- - SavManager
user <|- - SavTechnician


SuperAdmin "1"- -"*" Admin : reject
Admin "1"- -"*" SavManager : reject
Admin "1"- -"*" SavTechnician : reject






@enduml

PlantUML version 1.2022.7(Mon Aug 22 19:01:30 CEST 2022)
(GPL source distribution)
Java Runtime: Java(TM) SE Runtime Environment
JVM: Java HotSpot(TM) 64-Bit Server VM
Default Encoding: Cp1252
Language: fr
Country: FR
--></g></svg>