<?xml version="1.0" encoding="UTF-8" standalone="no"?><svg xmlns="http://www.w3.org/2000/svg" xmlns:xlink="http://www.w3.org/1999/xlink" contentStyleType="text/css" height="743px" preserveAspectRatio="none" style="width:324px;height:743px;background:#FFFFFF;" version="1.1" viewBox="0 0 324 743" width="324px" zoomAndPan="magnify"><defs/><g><!--MD5=[4d764daef4813a47cb04a17f53c9e959]
cluster Authentification_register--><g id="cluster_Authentification_register"><rect fill="none" height="293" rx="2.5" ry="2.5" style="stroke:#181818;stroke-width:1.0;" width="191" x="127" y="438.5"/><text fill="#000000" font-family="sans-serif" font-size="14" font-weight="bold" lengthAdjust="spacing" textLength="175" x="135" y="455.0332">Authentification_register</text></g><g id="elem_lgn"><ellipse cx="221.8909" cy="699.4517" fill="#F1F1F1" rx="41.8909" ry="15.4517" style="stroke:#181818;stroke-width:0.5;"/><text fill="#000000" font-family="sans-serif" font-size="14" lengthAdjust="spacing" textLength="35" x="204.3454" y="703.1948">Login</text></g><g id="elem_ca"><ellipse cx="221.855" cy="563.671" fill="#F1F1F1" rx="76.355" ry="17.671" style="stroke:#181818;stroke-width:0.5;"/><text fill="#000000" font-family="sans-serif" font-size="14" lengthAdjust="spacing" textLength="97" x="170.6233" y="568.1255">Create account</text></g><g id="elem_ve"><ellipse cx="222.1119" cy="632.7224" fill="#F1F1F1" rx="69.1119" ry="16.2224" style="stroke:#181818;stroke-width:0.5;"/><text fill="#000000" font-family="sans-serif" font-size="14" lengthAdjust="spacing" textLength="73" x="180.6119" y="637.239">Verify email</text></g><g id="elem_rp"><ellipse cx="221.896" cy="492.4792" fill="#F1F1F1" rx="77.896" ry="17.9792" style="stroke:#181818;stroke-width:0.5;"/><text fill="#000000" font-family="sans-serif" font-size="14" lengthAdjust="spacing" textLength="101" x="169.4355" y="496.7466">Reset password</text></g><!--MD5=[7d46d6cd919e02e6168a09ad91eae8b4]
entity u--><g id="elem_u"><ellipse cx="44.5" cy="408" fill="#F1F1F1" rx="8" ry="8" style="stroke:#181818;stroke-width:0.5;"/><path d="M44.5,416 L44.5,443 M31.5,424 L57.5,424 M44.5,443 L31.5,458 M44.5,443 L57.5,458 " fill="none" style="stroke:#181818;stroke-width:0.5;"/><text fill="#000000" font-family="sans-serif" font-size="14" lengthAdjust="spacing" textLength="29" x="30" y="474.0332">User</text></g><!--MD5=[e74ef3b3a003784962dd3667b8672065]
entity sa--><g id="elem_sa"><ellipse cx="44.5" cy="669" fill="#F1F1F1" rx="8" ry="8" style="stroke:#181818;stroke-width:0.5;"/><path d="M44.5,677 L44.5,704 M31.5,685 L57.5,685 M44.5,704 L31.5,719 M44.5,704 L57.5,719 " fill="none" style="stroke:#181818;stroke-width:0.5;"/><text fill="#000000" font-family="sans-serif" font-size="14" lengthAdjust="spacing" textLength="77" x="6" y="735.0332">SuperAdmin</text></g><!--MD5=[f83ae91a690dfc657e1c5fbbd818f13d]
entity a--><g id="elem_a"><ellipse cx="222" cy="14" fill="#F1F1F1" rx="8" ry="8" style="stroke:#181818;stroke-width:0.5;"/><path d="M222,22 L222,49 M209,30 L235,30 M222,49 L209,64 M222,49 L235,64 " fill="none" style="stroke:#181818;stroke-width:0.5;"/><text fill="#000000" font-family="sans-serif" font-size="14" lengthAdjust="spacing" textLength="39" x="202.5" y="80.0332">Admin</text></g><!--MD5=[31b50539c062e48f418cd0b43b66a14f]
entity sm--><g id="elem_sm"><ellipse cx="222" cy="127" fill="#F1F1F1" rx="8" ry="8" style="stroke:#181818;stroke-width:0.5;"/><path d="M222,135 L222,162 M209,143 L235,143 M222,162 L209,177 M222,162 L235,177 " fill="none" style="stroke:#181818;stroke-width:0.5;"/><text fill="#000000" font-family="sans-serif" font-size="14" lengthAdjust="spacing" textLength="80" x="182" y="193.0332">SavManager</text></g><!--MD5=[5d4b2633e4791513268a2604d42d888f]
entity st--><g id="elem_st"><ellipse cx="222" cy="240" fill="#F1F1F1" rx="8" ry="8" style="stroke:#181818;stroke-width:0.5;"/><path d="M222,248 L222,275 M209,256 L235,256 M222,275 L209,290 M222,275 L235,290 " fill="none" style="stroke:#181818;stroke-width:0.5;"/><text fill="#000000" font-family="sans-serif" font-size="14" lengthAdjust="spacing" textLength="93" x="175.5" y="306.0332">SavTechnician</text></g><!--MD5=[cbf3ffb352d9865303b7d468db07b81d]
entity so--><g id="elem_so"><ellipse cx="222" cy="353" fill="#F1F1F1" rx="8" ry="8" style="stroke:#181818;stroke-width:0.5;"/><path d="M222,361 L222,388 M209,369 L235,369 M222,388 L209,403 M222,388 L235,403 " fill="none" style="stroke:#181818;stroke-width:0.5;"/><text fill="#000000" font-family="sans-serif" font-size="14" lengthAdjust="spacing" textLength="90" x="177" y="419.0332">ScooterOwner</text></g><!--MD5=[06ed1f97a038065ba63baeec153d63f2]
reverse link u to a--><g id="link_u_a"><path d="M52.41,379.24 C63.29,294.46 86.54,143.97 119,100.5 C139.91,72.5 179.14,56.77 202.38,49.51 " fill="none" id="u-backto-a" style="stroke:#181818;stroke-width:1.0;"/><polygon fill="none" points="59.34,380.29,49.92,399.27,45.44,378.56,59.34,380.29" style="stroke:#181818;stroke-width:1.0;"/></g><!--MD5=[0387a7ef56d7c115890b643b7f036576]
reverse link u to sm--><g id="link_u_sm"><path d="M52.61,379.29 C61.15,330.2 79.61,261 119,213.5 C135.37,193.75 160.61,179.81 181.88,170.78 " fill="none" id="u-backto-sm" style="stroke:#181818;stroke-width:1.0;"/><polygon fill="none" points="59.48,380.62,49.48,399.3,45.65,378.46,59.48,380.62" style="stroke:#181818;stroke-width:1.0;"/></g><!--MD5=[a56ca2492862352e41cc64ccdfe462cb]
reverse link u to st--><g id="link_u_st"><path d="M68.93,392.28 C81.61,370.45 98.82,345.15 119,326.5 C135.39,311.35 156.64,298.84 175.49,289.52 " fill="none" id="u-backto-st" style="stroke:#181818;stroke-width:1.0;"/><polygon fill="none" points="74.97,395.81,59.18,409.95,62.71,389.05,74.97,395.81" style="stroke:#181818;stroke-width:1.0;"/></g><!--MD5=[1e9e8274ee25b60209ea89b161b96434]
reverse link u to so--><g id="link_u_so"><path d="M78.5,428.16 C106.24,419.46 146.14,406.96 176.66,397.39 " fill="none" id="u-backto-so" style="stroke:#181818;stroke-width:1.0;"/><polygon fill="none" points="80.45,434.88,59.27,434.18,76.26,421.52,80.45,434.88" style="stroke:#181818;stroke-width:1.0;"/></g><!--MD5=[eaa23425d1df03e08cd18540b63fe41d]
link sa to lgn--><g id="link_sa_lgn"><path d="M83.15,699.5 C109.89,699.5 145.96,699.5 174.5,699.5 " fill="none" id="sa-to-lgn" style="stroke:#181818;stroke-width:1.0;"/><polygon fill="#181818" points="179.73,699.5,170.73,695.5,174.73,699.5,170.73,703.5,179.73,699.5" style="stroke:#181818;stroke-width:1.0;"/></g><!--MD5=[152317f3529e22387be5b212e810d02d]
link u to ca--><g id="link_u_ca"><path d="M59.16,461.21 C72.24,481.21 93.7,509.82 119,527.5 C132.21,536.73 148.02,543.82 163.21,549.16 " fill="none" id="u-to-ca" style="stroke:#181818;stroke-width:1.0;"/><polygon fill="#181818" points="168.33,550.9,161.105,544.2068,163.5981,549.2846,158.5203,551.7778,168.33,550.9" style="stroke:#181818;stroke-width:1.0;"/></g><!--MD5=[7937ad248c45faa1c734639d1d19ee9d]
link u to lgn--><g id="link_u_lgn"><path d="M47.67,477.7 C52.54,527.84 68.25,614.31 119,665.5 C134.27,680.9 156.68,689.32 176.61,693.93 " fill="none" id="u-to-lgn" style="stroke:#181818;stroke-width:1.0;"/><polygon fill="#181818" points="181.62,695.02,173.6695,689.2071,176.7331,693.9626,171.9776,697.0262,181.62,695.02" style="stroke:#181818;stroke-width:1.0;"/></g><!--MD5=[b8913d90b60f7a71e0fb909c3b9e2d27]
link u to ve--><g id="link_u_ve"><path d="M54.04,477.75 C63.84,513.88 83.38,566.56 119,598.5 C130.8,609.08 145.99,616.38 161.03,621.42 " fill="none" id="u-to-ve" style="stroke:#181818;stroke-width:1.0;"/><polygon fill="#181818" points="166.12,623.04,158.7516,616.5049,161.3542,621.5275,156.3317,624.1301,166.12,623.04" style="stroke:#181818;stroke-width:1.0;"/></g><!--MD5=[02c0a2656a83a3bf2082b8eeee1153f8]
link u to rp--><g id="link_u_rp"><path d="M59.27,442.74 C82.7,449.95 131.47,464.95 169.36,476.61 " fill="none" id="u-to-rp" style="stroke:#181818;stroke-width:1.0;"/><polygon fill="#181818" points="174.39,478.16,166.9684,471.6854,169.612,476.6866,164.6109,479.3302,174.39,478.16" style="stroke:#181818;stroke-width:1.0;"/></g><!--MD5=[2e4b322558827ab429c64327480ed43d]
@startuml auth_register_use_case
left to right direction
skinparam packageStyle rect
skinparam shadowing false

actor User as u 
actor SuperAdmin as sa
actor Admin as a
actor SavManager as sm
actor SavTechnician as st
actor ScooterOwner as so


' sa <|- - u
u <|- - a
u <|- - sm
u <|- - st
u <|- - so
package Authentification_register  {
( Login ) as lgn
( Create account ) as ca
( Verify email  ) as ve
( Reset password ) as rp
}

left to right direction

sa - -> lgn
u - -> ca
u - -> lgn
u - -> ve
u - -> rp

@enduml

@startuml auth_register_use_case
left to right direction
skinparam packageStyle rect
skinparam shadowing false

actor User as u 
actor SuperAdmin as sa
actor Admin as a
actor SavManager as sm
actor SavTechnician as st
actor ScooterOwner as so


u <|- - a
u <|- - sm
u <|- - st
u <|- - so
package Authentification_register  {
( Login ) as lgn
( Create account ) as ca
( Verify email  ) as ve
( Reset password ) as rp
}

left to right direction

sa - -> lgn
u - -> ca
u - -> lgn
u - -> ve
u - -> rp

@enduml

PlantUML version 1.2022.7(Mon Aug 22 19:01:30 CEST 2022)
(GPL source distribution)
Java Runtime: Java(TM) SE Runtime Environment
JVM: Java HotSpot(TM) 64-Bit Server VM
Default Encoding: Cp1252
Language: fr
Country: FR
--></g></svg>