<?xml version="1.0" encoding="UTF-8" standalone="no"?><svg xmlns="http://www.w3.org/2000/svg" xmlns:xlink="http://www.w3.org/1999/xlink" contentStyleType="text/css" height="402px" preserveAspectRatio="none" style="width:473px;height:402px;background:#FFFFFF;" version="1.1" viewBox="0 0 473 402" width="473px" zoomAndPan="magnify"><defs/><g><rect fill="#FFFFFF" height="183.1094" style="stroke:#181818;stroke-width:1.0;" width="10" x="43.5" y="110.2188"/><rect fill="#FFFFFF" height="121.4063" style="stroke:#181818;stroke-width:1.0;" width="10" x="207.5" y="132.5703"/><rect fill="#FFFFFF" height="60.7031" style="stroke:#181818;stroke-width:1.0;" width="10" x="328.5" y="162.9219"/><line style="stroke:#181818;stroke-width:0.5;stroke-dasharray:5.0,5.0;" x1="48" x2="48" y1="100.2188" y2="302.3281"/><line style="stroke:#181818;stroke-width:0.5;stroke-dasharray:5.0,5.0;" x1="212" x2="212" y1="100.2188" y2="302.3281"/><line style="stroke:#181818;stroke-width:0.5;stroke-dasharray:5.0,5.0;" x1="333.5" x2="333.5" y1="100.2188" y2="302.3281"/><line style="stroke:#181818;stroke-width:0.5;stroke-dasharray:5.0,5.0;" x1="454" x2="454" y1="100.2188" y2="302.3281"/><text fill="#000000" font-family="sans-serif" font-size="14" lengthAdjust="spacing" textLength="81" x="5" y="79.5332">Super Admin</text><text fill="#000000" font-family="sans-serif" font-size="14" lengthAdjust="spacing" textLength="39" x="26" y="97.1426">Admin</text><ellipse cx="48.5" cy="13.5" fill="#E2E2F0" rx="8" ry="8" style="stroke:#181818;stroke-width:0.5;"/><path d="M48.5,21.5 L48.5,48.5 M35.5,29.5 L61.5,29.5 M48.5,48.5 L35.5,63.5 M48.5,48.5 L61.5,63.5 " fill="none" style="stroke:#181818;stroke-width:0.5;"/><text fill="#000000" font-family="sans-serif" font-size="14" lengthAdjust="spacing" textLength="81" x="5" y="315.8613">Super Admin</text><text fill="#000000" font-family="sans-serif" font-size="14" lengthAdjust="spacing" textLength="39" x="26" y="333.4707">Admin</text><ellipse cx="48.5" cy="345.0469" fill="#E2E2F0" rx="8" ry="8" style="stroke:#181818;stroke-width:0.5;"/><path d="M48.5,353.0469 L48.5,380.0469 M35.5,361.0469 L61.5,361.0469 M48.5,380.0469 L35.5,395.0469 M48.5,380.0469 L61.5,395.0469 " fill="none" style="stroke:#181818;stroke-width:0.5;"/><text fill="#000000" font-family="sans-serif" font-size="14" lengthAdjust="spacing" textLength="87" x="166" y="97.1426">manageUsers</text><path d="M192,54.6094 L192,78.6094 M192,66.6094 L209,66.6094 " fill="none" style="stroke:#181818;stroke-width:0.5;"/><ellipse cx="221" cy="66.6094" fill="#E2E2F0" rx="12" ry="12" style="stroke:#181818;stroke-width:0.5;"/><text fill="#000000" font-family="sans-serif" font-size="14" lengthAdjust="spacing" textLength="87" x="166" y="315.8613">manageUsers</text><path d="M192,322.9375 L192,346.9375 M192,334.9375 L209,334.9375 " fill="none" style="stroke:#181818;stroke-width:0.5;"/><ellipse cx="221" cy="334.9375" fill="#E2E2F0" rx="12" ry="12" style="stroke:#181818;stroke-width:0.5;"/><text fill="#000000" font-family="sans-serif" font-size="14" lengthAdjust="spacing" textLength="90" x="285.5" y="97.1426">userController</text><ellipse cx="333.5" cy="66.6094" fill="#E2E2F0" rx="12" ry="12" style="stroke:#181818;stroke-width:0.5;"/><polygon fill="#181818" points="329.5,54.6094,335.5,49.6094,333.5,54.6094,335.5,59.6094,329.5,54.6094" style="stroke:#181818;stroke-width:1.0;"/><text fill="#000000" font-family="sans-serif" font-size="14" lengthAdjust="spacing" textLength="90" x="285.5" y="315.8613">userController</text><ellipse cx="333.5" cy="334.9375" fill="#E2E2F0" rx="12" ry="12" style="stroke:#181818;stroke-width:0.5;"/><polygon fill="#181818" points="329.5,322.9375,335.5,317.9375,333.5,322.9375,335.5,327.9375,329.5,322.9375" style="stroke:#181818;stroke-width:1.0;"/><text fill="#000000" font-family="sans-serif" font-size="14" lengthAdjust="spacing" textLength="29" x="437" y="97.1426">User</text><ellipse cx="454.5" cy="66.6094" fill="#E2E2F0" rx="12" ry="12" style="stroke:#181818;stroke-width:0.5;"/><line style="stroke:#181818;stroke-width:0.5;" x1="442.5" x2="466.5" y1="80.6094" y2="80.6094"/><text fill="#000000" font-family="sans-serif" font-size="14" lengthAdjust="spacing" textLength="29" x="437" y="315.8613">User</text><ellipse cx="454.5" cy="334.9375" fill="#E2E2F0" rx="12" ry="12" style="stroke:#181818;stroke-width:0.5;"/><line style="stroke:#181818;stroke-width:0.5;" x1="442.5" x2="466.5" y1="348.9375" y2="348.9375"/><rect fill="#FFFFFF" height="183.1094" style="stroke:#181818;stroke-width:1.0;" width="10" x="43.5" y="110.2188"/><rect fill="#FFFFFF" height="121.4063" style="stroke:#181818;stroke-width:1.0;" width="10" x="207.5" y="132.5703"/><rect fill="#FFFFFF" height="60.7031" style="stroke:#181818;stroke-width:1.0;" width="10" x="328.5" y="162.9219"/><polygon fill="#181818" points="195.5,128.5703,205.5,132.5703,195.5,136.5703,199.5,132.5703" style="stroke:#181818;stroke-width:1.0;"/><line style="stroke:#181818;stroke-width:1.0;" x1="53.5" x2="201.5" y1="132.5703" y2="132.5703"/><text fill="#000000" font-family="sans-serif" font-size="13" lengthAdjust="spacing" textLength="135" x="60.5" y="127.7139">clickRejectButton(user)</text><polygon fill="#181818" points="316.5,158.9219,326.5,162.9219,316.5,166.9219,320.5,162.9219" style="stroke:#181818;stroke-width:1.0;"/><line style="stroke:#181818;stroke-width:1.0;" x1="217.5" x2="322.5" y1="162.9219" y2="162.9219"/><text fill="#000000" font-family="sans-serif" font-size="13" lengthAdjust="spacing" textLength="92" x="224.5" y="158.0654">rejectUser(user)</text><polygon fill="#181818" points="442.5,189.2734,452.5,193.2734,442.5,197.2734,446.5,193.2734" style="stroke:#181818;stroke-width:1.0;"/><line style="stroke:#181818;stroke-width:1.0;" x1="338.5" x2="448.5" y1="193.2734" y2="193.2734"/><text fill="#000000" font-family="sans-serif" font-size="13" lengthAdjust="spacing" textLength="92" x="345.5" y="188.417">rejectUser(user)</text><polygon fill="#181818" points="344.5,219.625,334.5,223.625,344.5,227.625,340.5,223.625" style="stroke:#181818;stroke-width:1.0;"/><line style="stroke:#181818;stroke-width:1.0;stroke-dasharray:2.0,2.0;" x1="338.5" x2="453.5" y1="223.625" y2="223.625"/><text fill="#000000" font-family="sans-serif" font-size="13" lengthAdjust="spacing" textLength="76" x="350.5" y="218.7686">userRejected</text><polygon fill="#181818" points="223.5,249.9766,213.5,253.9766,223.5,257.9766,219.5,253.9766" style="stroke:#181818;stroke-width:1.0;"/><line style="stroke:#181818;stroke-width:1.0;stroke-dasharray:2.0,2.0;" x1="217.5" x2="332.5" y1="253.9766" y2="253.9766"/><text fill="#000000" font-family="sans-serif" font-size="13" lengthAdjust="spacing" textLength="76" x="229.5" y="249.1201">userRejected</text><polygon fill="#181818" points="64.5,280.3281,54.5,284.3281,64.5,288.3281,60.5,284.3281" style="stroke:#181818;stroke-width:1.0;"/><line style="stroke:#181818;stroke-width:1.0;stroke-dasharray:2.0,2.0;" x1="58.5" x2="211.5" y1="284.3281" y2="284.3281"/><text fill="#000000" font-family="sans-serif" font-size="13" lengthAdjust="spacing" textLength="76" x="70.5" y="279.4717">userRejected</text><!--MD5=[3d27a64272deaf48fd8d1e08314a1266]
@startuml reject_user_role_sequence_diagram

actor "Super Admin\nAdmin" as u
boundary manageUsers as v
control userController as c
entity User as m
activate u
u -> v : clickRejectButton(user)
activate v
v -> c :rejectUser(user)
activate c
c -> m :rejectUser(user)
deactivate m
m - -> c: userRejected
deactivate c
c - -> v: userRejected
deactivate v
v - -> u: userRejected

@enduml

PlantUML version 1.2022.7(Mon Aug 22 19:01:30 CEST 2022)
(GPL source distribution)
Java Runtime: Java(TM) SE Runtime Environment
JVM: Java HotSpot(TM) 64-Bit Server VM
Default Encoding: Cp1252
Language: fr
Country: FR
--></g></svg>