<?xml version="1.0" encoding="UTF-8" standalone="no"?><svg xmlns="http://www.w3.org/2000/svg" xmlns:xlink="http://www.w3.org/1999/xlink" contentStyleType="text/css" height="760px" preserveAspectRatio="none" style="width:641px;height:760px;background:#FFFFFF;" version="1.1" viewBox="0 0 641 760" width="641px" zoomAndPan="magnify"><defs/><g><rect fill="#FFFFFF" height="310.0605" style="stroke:#181818;stroke-width:1.0;" width="10" x="66.5" y="124.4648"/><rect fill="#FFFFFF" height="109.9316" style="stroke:#181818;stroke-width:1.0;" width="10" x="66.5" y="527.457"/><rect fill="#FFFFFF" height="170.8633" style="stroke:#181818;stroke-width:1.0;" width="10" x="268.5" y="145.7754"/><rect fill="#FFFFFF" height="172.5527" style="stroke:#181818;stroke-width:1.0;" width="10" x="268.5" y="455.8359"/><rect fill="#FFFFFF" height="34.3105" style="stroke:#181818;stroke-width:1.0;" width="10" x="273.5" y="493.1465"/><rect fill="#FFFFFF" height="71.6211" style="stroke:#181818;stroke-width:1.0;" width="10" x="273.5" y="556.7676"/><rect fill="#FFFFFF" height="34.3105" style="stroke:#181818;stroke-width:1.0;" width="10" x="278.5" y="594.0781"/><rect fill="#FFFFFF" height="112.2422" style="stroke:#181818;stroke-width:1.0;" width="10" x="454.5" y="175.0859"/><rect fill="#FFFFFF" height="53.6211" style="stroke:#181818;stroke-width:1.0;" width="10" x="596.5" y="204.3965"/><rect fill="none" height="208.1289" style="stroke:#000000;stroke-width:1.5;" width="624" x="10" y="219.3965"/><line style="stroke:#181818;stroke-width:0.5;stroke-dasharray:5.0,5.0;" x1="71" x2="71" y1="114.4648" y2="646.3887"/><line style="stroke:#181818;stroke-width:0.5;stroke-dasharray:5.0,5.0;" x1="273.5" x2="273.5" y1="114.4648" y2="646.3887"/><line style="stroke:#181818;stroke-width:0.5;stroke-dasharray:5.0,5.0;" x1="459.5" x2="459.5" y1="114.4648" y2="646.3887"/><line style="stroke:#181818;stroke-width:0.5;stroke-dasharray:5.0,5.0;" x1="601" x2="601" y1="114.4648" y2="646.3887"/><text fill="#000000" font-family="sans-serif" font-size="14" lengthAdjust="spacing" textLength="97" x="20" y="78.5352">ScooterOwner</text><text fill="#000000" font-family="sans-serif" font-size="14" lengthAdjust="spacing" textLength="83" x="27" y="95.0234">SavManager</text><text fill="#000000" font-family="sans-serif" font-size="14" lengthAdjust="spacing" textLength="97" x="20" y="111.5117">SavTechnicien</text><ellipse cx="71.5" cy="13.5" fill="#E2E2F0" rx="8" ry="8" style="stroke:#181818;stroke-width:0.5;"/><path d="M71.5,21.5 L71.5,48.5 M58.5,29.5 L84.5,29.5 M71.5,48.5 L58.5,63.5 M71.5,48.5 L84.5,63.5 " fill="none" style="stroke:#181818;stroke-width:0.5;"/><text fill="#000000" font-family="sans-serif" font-size="14" lengthAdjust="spacing" textLength="97" x="20" y="658.9238">ScooterOwner</text><text fill="#000000" font-family="sans-serif" font-size="14" lengthAdjust="spacing" textLength="83" x="27" y="675.4121">SavManager</text><text fill="#000000" font-family="sans-serif" font-size="14" lengthAdjust="spacing" textLength="97" x="20" y="691.9004">SavTechnicien</text><ellipse cx="71.5" cy="703.3535" fill="#E2E2F0" rx="8" ry="8" style="stroke:#181818;stroke-width:0.5;"/><path d="M71.5,711.3535 L71.5,738.3535 M58.5,719.3535 L84.5,719.3535 M71.5,738.3535 L58.5,753.3535 M71.5,738.3535 L84.5,753.3535 " fill="none" style="stroke:#181818;stroke-width:0.5;"/><text fill="#000000" font-family="sans-serif" font-size="14" lengthAdjust="spacing" textLength="46" x="247.5" y="111.5117">Claims</text><path d="M253,69.9766 L253,93.9766 M253,81.9766 L270,81.9766 " fill="none" style="stroke:#181818;stroke-width:0.5;"/><ellipse cx="282" cy="81.9766" fill="#E2E2F0" rx="12" ry="12" style="stroke:#181818;stroke-width:0.5;"/><text fill="#000000" font-family="sans-serif" font-size="14" lengthAdjust="spacing" textLength="46" x="247.5" y="658.9238">Claims</text><path d="M253,665.877 L253,689.877 M253,677.877 L270,677.877 " fill="none" style="stroke:#181818;stroke-width:0.5;"/><ellipse cx="282" cy="677.877" fill="#E2E2F0" rx="12" ry="12" style="stroke:#181818;stroke-width:0.5;"/><text fill="#000000" font-family="sans-serif" font-size="14" lengthAdjust="spacing" textLength="94" x="409.5" y="111.5117">ClaimsService</text><ellipse cx="459.5" cy="81.9766" fill="#E2E2F0" rx="12" ry="12" style="stroke:#181818;stroke-width:0.5;"/><polygon fill="#181818" points="455.5,69.9766,461.5,64.9766,459.5,69.9766,461.5,74.9766,455.5,69.9766" style="stroke:#181818;stroke-width:1.0;"/><text fill="#000000" font-family="sans-serif" font-size="14" lengthAdjust="spacing" textLength="94" x="409.5" y="658.9238">ClaimsService</text><ellipse cx="459.5" cy="677.877" fill="#E2E2F0" rx="12" ry="12" style="stroke:#181818;stroke-width:0.5;"/><polygon fill="#181818" points="455.5,665.877,461.5,660.877,459.5,665.877,461.5,670.877,455.5,665.877" style="stroke:#181818;stroke-width:1.0;"/><text fill="#000000" font-family="sans-serif" font-size="14" lengthAdjust="spacing" textLength="39" x="579" y="111.5117">Claim</text><ellipse cx="601.5" cy="81.9766" fill="#E2E2F0" rx="12" ry="12" style="stroke:#181818;stroke-width:0.5;"/><line style="stroke:#181818;stroke-width:0.5;" x1="589.5" x2="613.5" y1="95.9766" y2="95.9766"/><text fill="#000000" font-family="sans-serif" font-size="14" lengthAdjust="spacing" textLength="39" x="579" y="658.9238">Claim</text><ellipse cx="601.5" cy="677.877" fill="#E2E2F0" rx="12" ry="12" style="stroke:#181818;stroke-width:0.5;"/><line style="stroke:#181818;stroke-width:0.5;" x1="589.5" x2="613.5" y1="691.877" y2="691.877"/><rect fill="#FFFFFF" height="310.0605" style="stroke:#181818;stroke-width:1.0;" width="10" x="66.5" y="124.4648"/><rect fill="#FFFFFF" height="109.9316" style="stroke:#181818;stroke-width:1.0;" width="10" x="66.5" y="527.457"/><rect fill="#FFFFFF" height="170.8633" style="stroke:#181818;stroke-width:1.0;" width="10" x="268.5" y="145.7754"/><rect fill="#FFFFFF" height="172.5527" style="stroke:#181818;stroke-width:1.0;" width="10" x="268.5" y="455.8359"/><rect fill="#FFFFFF" height="34.3105" style="stroke:#181818;stroke-width:1.0;" width="10" x="273.5" y="493.1465"/><rect fill="#FFFFFF" height="71.6211" style="stroke:#181818;stroke-width:1.0;" width="10" x="273.5" y="556.7676"/><rect fill="#FFFFFF" height="34.3105" style="stroke:#181818;stroke-width:1.0;" width="10" x="278.5" y="594.0781"/><rect fill="#FFFFFF" height="112.2422" style="stroke:#181818;stroke-width:1.0;" width="10" x="454.5" y="175.0859"/><rect fill="#FFFFFF" height="53.6211" style="stroke:#181818;stroke-width:1.0;" width="10" x="596.5" y="204.3965"/><polygon fill="#181818" points="256.5,141.7754,266.5,145.7754,256.5,149.7754,260.5,145.7754" style="stroke:#181818;stroke-width:1.0;"/><line style="stroke:#181818;stroke-width:1.0;" x1="76.5" x2="262.5" y1="145.7754" y2="145.7754"/><text fill="#000000" font-family="sans-serif" font-size="13" lengthAdjust="spacing" textLength="113" x="83.5" y="141.0332">getClaimDetail(Id)</text><polygon fill="#181818" points="442.5,171.0859,452.5,175.0859,442.5,179.0859,446.5,175.0859" style="stroke:#181818;stroke-width:1.0;"/><line style="stroke:#181818;stroke-width:1.0;" x1="278.5" x2="448.5" y1="175.0859" y2="175.0859"/><text fill="#000000" font-family="sans-serif" font-size="13" lengthAdjust="spacing" textLength="113" x="285.5" y="170.3438">getClaimDetail(Id)</text><polygon fill="#181818" points="584.5,200.3965,594.5,204.3965,584.5,208.3965,588.5,204.3965" style="stroke:#181818;stroke-width:1.0;"/><line style="stroke:#181818;stroke-width:1.0;" x1="464.5" x2="590.5" y1="204.3965" y2="204.3965"/><text fill="#000000" font-family="sans-serif" font-size="13" lengthAdjust="spacing" textLength="113" x="471.5" y="199.6543">getClaimDetail(Id)</text><path d="M10,219.3965 L72,219.3965 L72,226.707 L62,236.707 L10,236.707 L10,219.3965 " fill="#EEEEEE" style="stroke:#000000;stroke-width:1.5;"/><rect fill="none" height="208.1289" style="stroke:#000000;stroke-width:1.5;" width="624" x="10" y="219.3965"/><text fill="#000000" font-family="sans-serif" font-size="13" font-weight="bold" lengthAdjust="spacing" textLength="17" x="25" y="232.9648">alt</text><text fill="#000000" font-family="sans-serif" font-size="11" font-weight="bold" lengthAdjust="spacing" textLength="90" x="87" y="232.0313">[claim is found]</text><polygon fill="#181818" points="475.5,254.0176,465.5,258.0176,475.5,262.0176,471.5,258.0176" style="stroke:#181818;stroke-width:1.0;"/><line style="stroke:#181818;stroke-width:1.0;stroke-dasharray:2.0,2.0;" x1="469.5" x2="600.5" y1="258.0176" y2="258.0176"/><text fill="#000000" font-family="sans-serif" font-size="13" lengthAdjust="spacing" textLength="71" x="481.5" y="253.2754">claimDetail</text><polygon fill="#181818" points="289.5,283.3281,279.5,287.3281,289.5,291.3281,285.5,287.3281" style="stroke:#181818;stroke-width:1.0;"/><line style="stroke:#181818;stroke-width:1.0;stroke-dasharray:2.0,2.0;" x1="283.5" x2="458.5" y1="287.3281" y2="287.3281"/><text fill="#000000" font-family="sans-serif" font-size="13" lengthAdjust="spacing" textLength="71" x="295.5" y="282.5859">claimDetail</text><polygon fill="#181818" points="87.5,312.6387,77.5,316.6387,87.5,320.6387,83.5,316.6387" style="stroke:#181818;stroke-width:1.0;"/><line style="stroke:#181818;stroke-width:1.0;stroke-dasharray:2.0,2.0;" x1="81.5" x2="272.5" y1="316.6387" y2="316.6387"/><text fill="#000000" font-family="sans-serif" font-size="13" lengthAdjust="spacing" textLength="71" x="93.5" y="311.8965">claimDetail</text><line style="stroke:#000000;stroke-width:1.0;stroke-dasharray:2.0,2.0;" x1="10" x2="634" y1="325.6387" y2="325.6387"/><text fill="#000000" font-family="sans-serif" font-size="11" font-weight="bold" lengthAdjust="spacing" textLength="112" x="15" y="336.2734">[claim is not found]</text><polygon fill="#181818" points="470.5,356.9043,460.5,360.9043,470.5,364.9043,466.5,360.9043" style="stroke:#181818;stroke-width:1.0;"/><line style="stroke:#181818;stroke-width:1.0;stroke-dasharray:2.0,2.0;" x1="464.5" x2="600.5" y1="360.9043" y2="360.9043"/><text fill="#000000" font-family="sans-serif" font-size="13" lengthAdjust="spacing" textLength="96" x="476.5" y="356.1621">claimNotFound</text><polygon fill="#181818" points="284.5,386.2148,274.5,390.2148,284.5,394.2148,280.5,390.2148" style="stroke:#181818;stroke-width:1.0;"/><line style="stroke:#181818;stroke-width:1.0;stroke-dasharray:2.0,2.0;" x1="278.5" x2="458.5" y1="390.2148" y2="390.2148"/><text fill="#000000" font-family="sans-serif" font-size="13" lengthAdjust="spacing" textLength="96" x="290.5" y="385.4727">claimNotFound</text><polygon fill="#181818" points="87.5,415.5254,77.5,419.5254,87.5,423.5254,83.5,419.5254" style="stroke:#181818;stroke-width:1.0;"/><line style="stroke:#181818;stroke-width:1.0;stroke-dasharray:2.0,2.0;" x1="81.5" x2="272.5" y1="419.5254" y2="419.5254"/><text fill="#000000" font-family="sans-serif" font-size="13" lengthAdjust="spacing" textLength="96" x="93.5" y="414.7832">claimNotFound</text><polygon fill="#181818" points="256.5,451.8359,266.5,455.8359,256.5,459.8359,260.5,455.8359" style="stroke:#181818;stroke-width:1.0;"/><line style="stroke:#181818;stroke-width:1.0;" x1="71.5" x2="262.5" y1="455.8359" y2="455.8359"/><text fill="#000000" font-family="sans-serif" font-size="13" lengthAdjust="spacing" textLength="178" x="78.5" y="451.0938">getClaimTechnicienHistory()</text><line style="stroke:#181818;stroke-width:1.0;" x1="278.5" x2="325.5" y1="480.1465" y2="480.1465"/><line style="stroke:#181818;stroke-width:1.0;" x1="325.5" x2="325.5" y1="480.1465" y2="493.1465"/><line style="stroke:#181818;stroke-width:1.0;" x1="284.5" x2="325.5" y1="493.1465" y2="493.1465"/><polygon fill="#181818" points="294.5,489.1465,284.5,493.1465,294.5,497.1465,290.5,493.1465" style="stroke:#181818;stroke-width:1.0;"/><text fill="#000000" font-family="sans-serif" font-size="13" lengthAdjust="spacing" textLength="162" x="290.5" y="475.4043">toggleTechnicienHistory()</text><polygon fill="#181818" points="87.5,523.457,77.5,527.457,87.5,531.457,83.5,527.457" style="stroke:#181818;stroke-width:1.0;"/><line style="stroke:#181818;stroke-width:1.0;stroke-dasharray:2.0,2.0;" x1="81.5" x2="267.5" y1="527.457" y2="527.457"/><text fill="#000000" font-family="sans-serif" font-size="13" lengthAdjust="spacing" textLength="111" x="93.5" y="522.7148">technicienHistory</text><polygon fill="#181818" points="261.5,552.7676,271.5,556.7676,261.5,560.7676,265.5,556.7676" style="stroke:#181818;stroke-width:1.0;"/><line style="stroke:#181818;stroke-width:1.0;" x1="76.5" x2="267.5" y1="556.7676" y2="556.7676"/><text fill="#000000" font-family="sans-serif" font-size="13" lengthAdjust="spacing" textLength="149" x="83.5" y="552.0254">getClaimStatusHistory()</text><line style="stroke:#181818;stroke-width:1.0;" x1="283.5" x2="330.5" y1="581.0781" y2="581.0781"/><line style="stroke:#181818;stroke-width:1.0;" x1="330.5" x2="330.5" y1="581.0781" y2="594.0781"/><line style="stroke:#181818;stroke-width:1.0;" x1="289.5" x2="330.5" y1="594.0781" y2="594.0781"/><polygon fill="#181818" points="299.5,590.0781,289.5,594.0781,299.5,598.0781,295.5,594.0781" style="stroke:#181818;stroke-width:1.0;"/><text fill="#000000" font-family="sans-serif" font-size="13" lengthAdjust="spacing" textLength="133" x="295.5" y="576.3359">toggleStatusHistory()</text><polygon fill="#181818" points="87.5,624.3887,77.5,628.3887,87.5,632.3887,83.5,628.3887" style="stroke:#181818;stroke-width:1.0;"/><line style="stroke:#181818;stroke-width:1.0;stroke-dasharray:2.0,2.0;" x1="81.5" x2="272.5" y1="628.3887" y2="628.3887"/><text fill="#000000" font-family="sans-serif" font-size="13" lengthAdjust="spacing" textLength="85" x="93.5" y="623.6465">statusHistory</text><!--MD5=[92955e0b6428041acec8c9014ced1669]
@startuml claim_detail_history

actor "ScooterOwner\nSavManager\nSavTechnicien" as so
boundary Claims as cl
control ClaimsService as cs
entity Claim as c

activate so
so -> cl : getClaimDetail(Id)
activate cl
cl -> cs : getClaimDetail(Id)
activate cs
cs -> c : getClaimDetail(Id)
activate c
alt claim is found
c - -> cs : claimDetail
deactivate c
cs - -> cl : claimDetail
deactivate cs
cl - -> so : claimDetail
deactivate cl
else claim is not found
c - -> cs : claimNotFound
deactivate c
cs - -> cl : claimNotFound
deactivate cs
cl - -> so : claimNotFound
deactivate cl
end
deactivate cl
deactivate so

activate so
so -> cl : getClaimTechnicienHistory()
activate cl
cl -> cl : toggleTechnicienHistory()
activate cl
cl - -> so : technicienHistory
deactivate cl

activate so
so -> cl : getClaimStatusHistory()
activate cl
cl -> cl : toggleStatusHistory()
activate cl
cl - -> so : statusHistory
deactivate cl


@enduml

PlantUML version 1.2022.7(Mon Aug 22 18:01:30 CET 2022)
(GPL source distribution)
Java Runtime: Java(TM) SE Runtime Environment
JVM: Java HotSpot(TM) 64-Bit Server VM
Default Encoding: UTF-8
Language: fr
Country: FR
--></g></svg>