<?xml version="1.0" encoding="UTF-8" standalone="no"?><svg xmlns="http://www.w3.org/2000/svg" xmlns:xlink="http://www.w3.org/1999/xlink" contentStyleType="text/css" height="558px" preserveAspectRatio="none" style="width:588px;height:558px;background:#FFFFFF;" version="1.1" viewBox="0 0 588 558" width="588px" zoomAndPan="magnify"><defs/><g><rect fill="#FFFFFF" height="310.0605" style="stroke:#181818;stroke-width:1.0;" width="10" x="66.5" y="124.4648"/><rect fill="#FFFFFF" height="170.8633" style="stroke:#181818;stroke-width:1.0;" width="10" x="225.5" y="145.7754"/><rect fill="#FFFFFF" height="112.2422" style="stroke:#181818;stroke-width:1.0;" width="10" x="384.5" y="175.0859"/><rect fill="#FFFFFF" height="53.6211" style="stroke:#181818;stroke-width:1.0;" width="10" x="543.5" y="204.3965"/><rect fill="none" height="208.1289" style="stroke:#000000;stroke-width:1.5;" width="571" x="10" y="219.3965"/><line style="stroke:#181818;stroke-width:0.5;stroke-dasharray:5.0,5.0;" x1="71" x2="71" y1="114.4648" y2="444.5254"/><line style="stroke:#181818;stroke-width:0.5;stroke-dasharray:5.0,5.0;" x1="230.5" x2="230.5" y1="114.4648" y2="444.5254"/><line style="stroke:#181818;stroke-width:0.5;stroke-dasharray:5.0,5.0;" x1="389.5" x2="389.5" y1="114.4648" y2="444.5254"/><line style="stroke:#181818;stroke-width:0.5;stroke-dasharray:5.0,5.0;" x1="548" x2="548" y1="114.4648" y2="444.5254"/><text fill="#000000" font-family="sans-serif" font-size="14" lengthAdjust="spacing" textLength="97" x="20" y="78.5352">ScooterOwner</text><text fill="#000000" font-family="sans-serif" font-size="14" lengthAdjust="spacing" textLength="83" x="27" y="95.0234">SavManager</text><text fill="#000000" font-family="sans-serif" font-size="14" lengthAdjust="spacing" textLength="97" x="20" y="111.5117">SavTechnicien</text><ellipse cx="71.5" cy="13.5" fill="#E2E2F0" rx="8" ry="8" style="stroke:#181818;stroke-width:0.5;"/><path d="M71.5,21.5 L71.5,48.5 M58.5,29.5 L84.5,29.5 M71.5,48.5 L58.5,63.5 M71.5,48.5 L84.5,63.5 " fill="none" style="stroke:#181818;stroke-width:0.5;"/><text fill="#000000" font-family="sans-serif" font-size="14" lengthAdjust="spacing" textLength="97" x="20" y="457.0605">ScooterOwner</text><text fill="#000000" font-family="sans-serif" font-size="14" lengthAdjust="spacing" textLength="83" x="27" y="473.5488">SavManager</text><text fill="#000000" font-family="sans-serif" font-size="14" lengthAdjust="spacing" textLength="97" x="20" y="490.0371">SavTechnicien</text><ellipse cx="71.5" cy="501.4902" fill="#E2E2F0" rx="8" ry="8" style="stroke:#181818;stroke-width:0.5;"/><path d="M71.5,509.4902 L71.5,536.4902 M58.5,517.4902 L84.5,517.4902 M71.5,536.4902 L58.5,551.4902 M71.5,536.4902 L84.5,551.4902 " fill="none" style="stroke:#181818;stroke-width:0.5;"/><text fill="#000000" font-family="sans-serif" font-size="14" lengthAdjust="spacing" textLength="46" x="204.5" y="111.5117">Claims</text><path d="M210,69.9766 L210,93.9766 M210,81.9766 L227,81.9766 " fill="none" style="stroke:#181818;stroke-width:0.5;"/><ellipse cx="239" cy="81.9766" fill="#E2E2F0" rx="12" ry="12" style="stroke:#181818;stroke-width:0.5;"/><text fill="#000000" font-family="sans-serif" font-size="14" lengthAdjust="spacing" textLength="46" x="204.5" y="457.0605">Claims</text><path d="M210,464.0137 L210,488.0137 M210,476.0137 L227,476.0137 " fill="none" style="stroke:#181818;stroke-width:0.5;"/><ellipse cx="239" cy="476.0137" fill="#E2E2F0" rx="12" ry="12" style="stroke:#181818;stroke-width:0.5;"/><text fill="#000000" font-family="sans-serif" font-size="14" lengthAdjust="spacing" textLength="94" x="339.5" y="111.5117">ClaimsService</text><ellipse cx="389.5" cy="81.9766" fill="#E2E2F0" rx="12" ry="12" style="stroke:#181818;stroke-width:0.5;"/><polygon fill="#181818" points="385.5,69.9766,391.5,64.9766,389.5,69.9766,391.5,74.9766,385.5,69.9766" style="stroke:#181818;stroke-width:1.0;"/><text fill="#000000" font-family="sans-serif" font-size="14" lengthAdjust="spacing" textLength="94" x="339.5" y="457.0605">ClaimsService</text><ellipse cx="389.5" cy="476.0137" fill="#E2E2F0" rx="12" ry="12" style="stroke:#181818;stroke-width:0.5;"/><polygon fill="#181818" points="385.5,464.0137,391.5,459.0137,389.5,464.0137,391.5,469.0137,385.5,464.0137" style="stroke:#181818;stroke-width:1.0;"/><text fill="#000000" font-family="sans-serif" font-size="14" lengthAdjust="spacing" textLength="39" x="526" y="111.5117">Claim</text><ellipse cx="548.5" cy="81.9766" fill="#E2E2F0" rx="12" ry="12" style="stroke:#181818;stroke-width:0.5;"/><line style="stroke:#181818;stroke-width:0.5;" x1="536.5" x2="560.5" y1="95.9766" y2="95.9766"/><text fill="#000000" font-family="sans-serif" font-size="14" lengthAdjust="spacing" textLength="39" x="526" y="457.0605">Claim</text><ellipse cx="548.5" cy="476.0137" fill="#E2E2F0" rx="12" ry="12" style="stroke:#181818;stroke-width:0.5;"/><line style="stroke:#181818;stroke-width:0.5;" x1="536.5" x2="560.5" y1="490.0137" y2="490.0137"/><rect fill="#FFFFFF" height="310.0605" style="stroke:#181818;stroke-width:1.0;" width="10" x="66.5" y="124.4648"/><rect fill="#FFFFFF" height="170.8633" style="stroke:#181818;stroke-width:1.0;" width="10" x="225.5" y="145.7754"/><rect fill="#FFFFFF" height="112.2422" style="stroke:#181818;stroke-width:1.0;" width="10" x="384.5" y="175.0859"/><rect fill="#FFFFFF" height="53.6211" style="stroke:#181818;stroke-width:1.0;" width="10" x="543.5" y="204.3965"/><polygon fill="#181818" points="213.5,141.7754,223.5,145.7754,213.5,149.7754,217.5,145.7754" style="stroke:#181818;stroke-width:1.0;"/><line style="stroke:#181818;stroke-width:1.0;" x1="76.5" x2="219.5" y1="145.7754" y2="145.7754"/><text fill="#000000" font-family="sans-serif" font-size="13" lengthAdjust="spacing" textLength="130" x="83.5" y="141.0332">Comment(Comment)</text><polygon fill="#181818" points="372.5,171.0859,382.5,175.0859,372.5,179.0859,376.5,175.0859" style="stroke:#181818;stroke-width:1.0;"/><line style="stroke:#181818;stroke-width:1.0;" x1="235.5" x2="378.5" y1="175.0859" y2="175.0859"/><text fill="#000000" font-family="sans-serif" font-size="13" lengthAdjust="spacing" textLength="130" x="242.5" y="170.3438">Comment(Comment)</text><polygon fill="#181818" points="531.5,200.3965,541.5,204.3965,531.5,208.3965,535.5,204.3965" style="stroke:#181818;stroke-width:1.0;"/><line style="stroke:#181818;stroke-width:1.0;" x1="394.5" x2="537.5" y1="204.3965" y2="204.3965"/><text fill="#000000" font-family="sans-serif" font-size="13" lengthAdjust="spacing" textLength="130" x="401.5" y="199.6543">Comment(Comment)</text><path d="M10,219.3965 L72,219.3965 L72,226.707 L62,236.707 L10,236.707 L10,219.3965 " fill="#EEEEEE" style="stroke:#000000;stroke-width:1.5;"/><rect fill="none" height="208.1289" style="stroke:#000000;stroke-width:1.5;" width="571" x="10" y="219.3965"/><text fill="#000000" font-family="sans-serif" font-size="13" font-weight="bold" lengthAdjust="spacing" textLength="17" x="25" y="232.9648">alt</text><text fill="#000000" font-family="sans-serif" font-size="11" font-weight="bold" lengthAdjust="spacing" textLength="111" x="87" y="232.0313">[comment is added]</text><polygon fill="#181818" points="405.5,254.0176,395.5,258.0176,405.5,262.0176,401.5,258.0176" style="stroke:#181818;stroke-width:1.0;"/><line style="stroke:#181818;stroke-width:1.0;stroke-dasharray:2.0,2.0;" x1="399.5" x2="547.5" y1="258.0176" y2="258.0176"/><text fill="#000000" font-family="sans-serif" font-size="13" lengthAdjust="spacing" textLength="99" x="411.5" y="253.2754">commentAdded</text><polygon fill="#181818" points="246.5,283.3281,236.5,287.3281,246.5,291.3281,242.5,287.3281" style="stroke:#181818;stroke-width:1.0;"/><line style="stroke:#181818;stroke-width:1.0;stroke-dasharray:2.0,2.0;" x1="240.5" x2="388.5" y1="287.3281" y2="287.3281"/><text fill="#000000" font-family="sans-serif" font-size="13" lengthAdjust="spacing" textLength="99" x="252.5" y="282.5859">commentAdded</text><polygon fill="#181818" points="87.5,312.6387,77.5,316.6387,87.5,320.6387,83.5,316.6387" style="stroke:#181818;stroke-width:1.0;"/><line style="stroke:#181818;stroke-width:1.0;stroke-dasharray:2.0,2.0;" x1="81.5" x2="229.5" y1="316.6387" y2="316.6387"/><text fill="#000000" font-family="sans-serif" font-size="13" lengthAdjust="spacing" textLength="99" x="93.5" y="311.8965">commentAdded</text><line style="stroke:#000000;stroke-width:1.0;stroke-dasharray:2.0,2.0;" x1="10" x2="581" y1="325.6387" y2="325.6387"/><text fill="#000000" font-family="sans-serif" font-size="11" font-weight="bold" lengthAdjust="spacing" textLength="133" x="15" y="336.2734">[comment is not added]</text><polygon fill="#181818" points="400.5,356.9043,390.5,360.9043,400.5,364.9043,396.5,360.9043" style="stroke:#181818;stroke-width:1.0;"/><line style="stroke:#181818;stroke-width:1.0;stroke-dasharray:2.0,2.0;" x1="394.5" x2="547.5" y1="360.9043" y2="360.9043"/><text fill="#000000" font-family="sans-serif" font-size="13" lengthAdjust="spacing" textLength="122" x="406.5" y="356.1621">commentNotAdded</text><polygon fill="#181818" points="241.5,386.2148,231.5,390.2148,241.5,394.2148,237.5,390.2148" style="stroke:#181818;stroke-width:1.0;"/><line style="stroke:#181818;stroke-width:1.0;stroke-dasharray:2.0,2.0;" x1="235.5" x2="388.5" y1="390.2148" y2="390.2148"/><text fill="#000000" font-family="sans-serif" font-size="13" lengthAdjust="spacing" textLength="122" x="247.5" y="385.4727">commentNotAdded</text><polygon fill="#181818" points="87.5,415.5254,77.5,419.5254,87.5,423.5254,83.5,419.5254" style="stroke:#181818;stroke-width:1.0;"/><line style="stroke:#181818;stroke-width:1.0;stroke-dasharray:2.0,2.0;" x1="81.5" x2="229.5" y1="419.5254" y2="419.5254"/><text fill="#000000" font-family="sans-serif" font-size="13" lengthAdjust="spacing" textLength="122" x="93.5" y="414.7832">commentNotAdded</text><!--MD5=[cc331f8b564ca88ee29ca39dc7639479]
@startuml claim_comment

actor "ScooterOwner\nSavManager\nSavTechnicien" as so
boundary Claims as cl
control ClaimsService as cs
entity Claim as c

activate so
so -> cl : Comment(Comment)
activate cl
cl -> cs : Comment(Comment)
activate cs
cs -> c : Comment(Comment)
activate c
alt comment is added
c - -> cs : commentAdded
deactivate c
cs - -> cl : commentAdded
deactivate cs
cl - -> so : commentAdded
deactivate cl
else comment is not added
c - -> cs : commentNotAdded
deactivate c
cs - -> cl : commentNotAdded
deactivate cs
cl - -> so : commentNotAdded
deactivate cl
end
deactivate cl
deactivate so

@enduml

PlantUML version 1.2022.7(Mon Aug 22 18:01:30 CET 2022)
(GPL source distribution)
Java Runtime: Java(TM) SE Runtime Environment
JVM: Java HotSpot(TM) 64-Bit Server VM
Default Encoding: UTF-8
Language: fr
Country: FR
--></g></svg>