<?xml version="1.0" encoding="UTF-8" standalone="no"?><svg xmlns="http://www.w3.org/2000/svg" xmlns:xlink="http://www.w3.org/1999/xlink" contentStyleType="text/css" height="455px" preserveAspectRatio="none" style="width:722px;height:455px;background:#FFFFFF;" version="1.1" viewBox="0 0 722 455" width="722px" zoomAndPan="magnify"><defs/><g><!--MD5=[e59cf999063292dce8d6ea34dd10a338]
class user--><g id="elem_user"><rect codeLine="1" fill="#F1F1F1" height="206.4844" id="user" rx="2.5" ry="2.5" style="stroke:#181818;stroke-width:0.5;" width="160" x="256" y="7"/><ellipse cx="317.75" cy="23" fill="#ADD1B2" rx="11" ry="11" style="stroke:#181818;stroke-width:1.0;"/><path d="M320.5156,18.875 Q320.6719,18.6563 320.8594,18.5469 Q321.0469,18.4375 321.2656,18.4375 Q321.6406,18.4375 321.875,18.7031 Q322.1094,18.9531 322.1094,19.5625 L322.1094,21.0156 Q322.1094,21.625 321.875,21.8906 Q321.6406,22.1563 321.2656,22.1563 Q320.9219,22.1563 320.7188,21.9531 Q320.5156,21.7656 320.4063,21.25 Q320.3594,20.8906 320.1719,20.7031 Q319.8438,20.3281 319.2344,20.1094 Q318.625,19.8906 318,19.8906 Q317.2344,19.8906 316.5938,20.2188 Q315.9688,20.5469 315.4688,21.2969 Q314.9844,22.0469 314.9844,23.0781 L314.9844,24.1719 Q314.9844,25.4063 315.875,26.2344 Q316.7656,27.0469 318.3594,27.0469 Q319.2969,27.0469 319.9531,26.7969 Q320.3438,26.6406 320.7656,26.2031 Q321.0313,25.9375 321.1719,25.8594 Q321.3281,25.7813 321.5313,25.7813 Q321.8594,25.7813 322.1094,26.0469 Q322.375,26.2969 322.375,26.6406 Q322.375,26.9844 322.0313,27.3906 Q321.5313,27.9688 320.7344,28.2969 Q319.6563,28.75 318.3594,28.75 Q316.8438,28.75 315.6406,28.125 Q314.6563,27.625 313.9688,26.5625 Q313.2813,25.4844 313.2813,24.2031 L313.2813,23.0469 Q313.2813,21.7188 313.8906,20.5781 Q314.5156,19.4219 315.6094,18.8125 Q316.7031,18.1875 317.9375,18.1875 Q318.6719,18.1875 319.3125,18.3594 Q319.9688,18.5156 320.5156,18.875 Z " fill="#000000"/><text fill="#000000" font-family="sans-serif" font-size="14" lengthAdjust="spacing" textLength="28" x="338.25" y="28.7285">user</text><line style="stroke:#181818;stroke-width:0.5;" x1="257" x2="415" y1="39" y2="39"/><text fill="#000000" font-family="sans-serif" font-size="14" lengthAdjust="spacing" textLength="30" x="262" y="57.5332">Int id</text><text fill="#000000" font-family="sans-serif" font-size="14" lengthAdjust="spacing" textLength="76" x="262" y="75.1426">String name</text><text fill="#000000" font-family="sans-serif" font-size="14" lengthAdjust="spacing" textLength="101" x="262" y="92.752">String password</text><text fill="#000000" font-family="sans-serif" font-size="14" lengthAdjust="spacing" textLength="104" x="262" y="110.3613">String username</text><text fill="#000000" font-family="sans-serif" font-size="14" lengthAdjust="spacing" textLength="74" x="262" y="127.9707">String email</text><text fill="#000000" font-family="sans-serif" font-size="14" lengthAdjust="spacing" textLength="83" x="262" y="145.5801">Bool enabled</text><text fill="#000000" font-family="sans-serif" font-size="14" lengthAdjust="spacing" textLength="148" x="262" y="163.1895">String verification_code</text><line style="stroke:#181818;stroke-width:0.5;" x1="257" x2="415" y1="170.2656" y2="170.2656"/><text fill="#000000" font-family="sans-serif" font-size="14" lengthAdjust="spacing" textLength="84" x="262" y="188.7988">JSON Login()</text><text fill="#000000" font-family="sans-serif" font-size="14" lengthAdjust="spacing" textLength="95" x="262" y="206.4082">Bool Register()</text></g><!--MD5=[230c8b93044a8b32754c79e4598c3632]
class role--><g id="elem_role"><rect codeLine="13" fill="#F1F1F1" height="83.2188" id="role" rx="2.5" ry="2.5" style="stroke:#181818;stroke-width:0.5;" width="88" x="451" y="68.5"/><ellipse cx="480.4" cy="84.5" fill="#ADD1B2" rx="11" ry="11" style="stroke:#181818;stroke-width:1.0;"/><path d="M483.1656,80.375 Q483.3219,80.1563 483.5094,80.0469 Q483.6969,79.9375 483.9156,79.9375 Q484.2906,79.9375 484.525,80.2031 Q484.7594,80.4531 484.7594,81.0625 L484.7594,82.5156 Q484.7594,83.125 484.525,83.3906 Q484.2906,83.6563 483.9156,83.6563 Q483.5719,83.6563 483.3688,83.4531 Q483.1656,83.2656 483.0563,82.75 Q483.0094,82.3906 482.8219,82.2031 Q482.4938,81.8281 481.8844,81.6094 Q481.275,81.3906 480.65,81.3906 Q479.8844,81.3906 479.2438,81.7188 Q478.6188,82.0469 478.1188,82.7969 Q477.6344,83.5469 477.6344,84.5781 L477.6344,85.6719 Q477.6344,86.9063 478.525,87.7344 Q479.4156,88.5469 481.0094,88.5469 Q481.9469,88.5469 482.6031,88.2969 Q482.9938,88.1406 483.4156,87.7031 Q483.6813,87.4375 483.8219,87.3594 Q483.9781,87.2813 484.1813,87.2813 Q484.5094,87.2813 484.7594,87.5469 Q485.025,87.7969 485.025,88.1406 Q485.025,88.4844 484.6813,88.8906 Q484.1813,89.4688 483.3844,89.7969 Q482.3063,90.25 481.0094,90.25 Q479.4938,90.25 478.2906,89.625 Q477.3063,89.125 476.6188,88.0625 Q475.9313,86.9844 475.9313,85.7031 L475.9313,84.5469 Q475.9313,83.2188 476.5406,82.0781 Q477.1656,80.9219 478.2594,80.3125 Q479.3531,79.6875 480.5875,79.6875 Q481.3219,79.6875 481.9625,79.8594 Q482.6188,80.0156 483.1656,80.375 Z " fill="#000000"/><text fill="#000000" font-family="sans-serif" font-size="14" lengthAdjust="spacing" textLength="24" x="497.6" y="90.2285">role</text><line style="stroke:#181818;stroke-width:0.5;" x1="452" x2="538" y1="100.5" y2="100.5"/><text fill="#000000" font-family="sans-serif" font-size="14" lengthAdjust="spacing" textLength="30" x="457" y="119.0332">Int id</text><text fill="#000000" font-family="sans-serif" font-size="14" lengthAdjust="spacing" textLength="76" x="457" y="136.6426">String name</text><line style="stroke:#181818;stroke-width:0.5;" x1="452" x2="538" y1="143.7188" y2="143.7188"/></g><!--MD5=[bb78403d462536eaecf0d31e32db3464]
class SuperAdmin--><g id="elem_SuperAdmin"><rect codeLine="21" fill="#F1F1F1" height="48" id="SuperAdmin" rx="2.5" ry="2.5" style="stroke:#181818;stroke-width:0.5;" width="109" x="281.5" y="274"/><ellipse cx="296.5" cy="290" fill="#ADD1B2" rx="11" ry="11" style="stroke:#181818;stroke-width:1.0;"/><path d="M299.2656,285.875 Q299.4219,285.6563 299.6094,285.5469 Q299.7969,285.4375 300.0156,285.4375 Q300.3906,285.4375 300.625,285.7031 Q300.8594,285.9531 300.8594,286.5625 L300.8594,288.0156 Q300.8594,288.625 300.625,288.8906 Q300.3906,289.1563 300.0156,289.1563 Q299.6719,289.1563 299.4688,288.9531 Q299.2656,288.7656 299.1563,288.25 Q299.1094,287.8906 298.9219,287.7031 Q298.5938,287.3281 297.9844,287.1094 Q297.375,286.8906 296.75,286.8906 Q295.9844,286.8906 295.3438,287.2188 Q294.7188,287.5469 294.2188,288.2969 Q293.7344,289.0469 293.7344,290.0781 L293.7344,291.1719 Q293.7344,292.4063 294.625,293.2344 Q295.5156,294.0469 297.1094,294.0469 Q298.0469,294.0469 298.7031,293.7969 Q299.0938,293.6406 299.5156,293.2031 Q299.7813,292.9375 299.9219,292.8594 Q300.0781,292.7813 300.2813,292.7813 Q300.6094,292.7813 300.8594,293.0469 Q301.125,293.2969 301.125,293.6406 Q301.125,293.9844 300.7813,294.3906 Q300.2813,294.9688 299.4844,295.2969 Q298.4063,295.75 297.1094,295.75 Q295.5938,295.75 294.3906,295.125 Q293.4063,294.625 292.7188,293.5625 Q292.0313,292.4844 292.0313,291.2031 L292.0313,290.0469 Q292.0313,288.7188 292.6406,287.5781 Q293.2656,286.4219 294.3594,285.8125 Q295.4531,285.1875 296.6875,285.1875 Q297.4219,285.1875 298.0625,285.3594 Q298.7188,285.5156 299.2656,285.875 Z " fill="#000000"/><text fill="#000000" font-family="sans-serif" font-size="14" lengthAdjust="spacing" textLength="77" x="310.5" y="295.7285">SuperAdmin</text><line style="stroke:#181818;stroke-width:0.5;" x1="282.5" x2="389.5" y1="306" y2="306"/><line style="stroke:#181818;stroke-width:0.5;" x1="282.5" x2="389.5" y1="314" y2="314"/></g><!--MD5=[db6d18d8099558415abc41d00477ab92]
class Admin--><g id="elem_Admin"><rect codeLine="22" fill="#F1F1F1" height="48" id="Admin" rx="2.5" ry="2.5" style="stroke:#181818;stroke-width:0.5;" width="71" x="218.5" y="400"/><ellipse cx="233.5" cy="416" fill="#ADD1B2" rx="11" ry="11" style="stroke:#181818;stroke-width:1.0;"/><path d="M236.2656,411.875 Q236.4219,411.6563 236.6094,411.5469 Q236.7969,411.4375 237.0156,411.4375 Q237.3906,411.4375 237.625,411.7031 Q237.8594,411.9531 237.8594,412.5625 L237.8594,414.0156 Q237.8594,414.625 237.625,414.8906 Q237.3906,415.1563 237.0156,415.1563 Q236.6719,415.1563 236.4688,414.9531 Q236.2656,414.7656 236.1563,414.25 Q236.1094,413.8906 235.9219,413.7031 Q235.5938,413.3281 234.9844,413.1094 Q234.375,412.8906 233.75,412.8906 Q232.9844,412.8906 232.3438,413.2188 Q231.7188,413.5469 231.2188,414.2969 Q230.7344,415.0469 230.7344,416.0781 L230.7344,417.1719 Q230.7344,418.4063 231.625,419.2344 Q232.5156,420.0469 234.1094,420.0469 Q235.0469,420.0469 235.7031,419.7969 Q236.0938,419.6406 236.5156,419.2031 Q236.7813,418.9375 236.9219,418.8594 Q237.0781,418.7813 237.2813,418.7813 Q237.6094,418.7813 237.8594,419.0469 Q238.125,419.2969 238.125,419.6406 Q238.125,419.9844 237.7813,420.3906 Q237.2813,420.9688 236.4844,421.2969 Q235.4063,421.75 234.1094,421.75 Q232.5938,421.75 231.3906,421.125 Q230.4063,420.625 229.7188,419.5625 Q229.0313,418.4844 229.0313,417.2031 L229.0313,416.0469 Q229.0313,414.7188 229.6406,413.5781 Q230.2656,412.4219 231.3594,411.8125 Q232.4531,411.1875 233.6875,411.1875 Q234.4219,411.1875 235.0625,411.3594 Q235.7188,411.5156 236.2656,411.875 Z " fill="#000000"/><text fill="#000000" font-family="sans-serif" font-size="14" lengthAdjust="spacing" textLength="39" x="247.5" y="421.7285">Admin</text><line style="stroke:#181818;stroke-width:0.5;" x1="219.5" x2="288.5" y1="432" y2="432"/><line style="stroke:#181818;stroke-width:0.5;" x1="219.5" x2="288.5" y1="440" y2="440"/></g><!--MD5=[1905ef06d686617e564499c57ef4e8b7]
class SavManager--><g id="elem_SavManager"><rect codeLine="23" fill="#F1F1F1" height="48" id="SavManager" rx="2.5" ry="2.5" style="stroke:#181818;stroke-width:0.5;" width="112" x="7" y="400"/><ellipse cx="22" cy="416" fill="#ADD1B2" rx="11" ry="11" style="stroke:#181818;stroke-width:1.0;"/><path d="M24.7656,411.875 Q24.9219,411.6563 25.1094,411.5469 Q25.2969,411.4375 25.5156,411.4375 Q25.8906,411.4375 26.125,411.7031 Q26.3594,411.9531 26.3594,412.5625 L26.3594,414.0156 Q26.3594,414.625 26.125,414.8906 Q25.8906,415.1563 25.5156,415.1563 Q25.1719,415.1563 24.9688,414.9531 Q24.7656,414.7656 24.6563,414.25 Q24.6094,413.8906 24.4219,413.7031 Q24.0938,413.3281 23.4844,413.1094 Q22.875,412.8906 22.25,412.8906 Q21.4844,412.8906 20.8438,413.2188 Q20.2188,413.5469 19.7188,414.2969 Q19.2344,415.0469 19.2344,416.0781 L19.2344,417.1719 Q19.2344,418.4063 20.125,419.2344 Q21.0156,420.0469 22.6094,420.0469 Q23.5469,420.0469 24.2031,419.7969 Q24.5938,419.6406 25.0156,419.2031 Q25.2813,418.9375 25.4219,418.8594 Q25.5781,418.7813 25.7813,418.7813 Q26.1094,418.7813 26.3594,419.0469 Q26.625,419.2969 26.625,419.6406 Q26.625,419.9844 26.2813,420.3906 Q25.7813,420.9688 24.9844,421.2969 Q23.9063,421.75 22.6094,421.75 Q21.0938,421.75 19.8906,421.125 Q18.9063,420.625 18.2188,419.5625 Q17.5313,418.4844 17.5313,417.2031 L17.5313,416.0469 Q17.5313,414.7188 18.1406,413.5781 Q18.7656,412.4219 19.8594,411.8125 Q20.9531,411.1875 22.1875,411.1875 Q22.9219,411.1875 23.5625,411.3594 Q24.2188,411.5156 24.7656,411.875 Z " fill="#000000"/><text fill="#000000" font-family="sans-serif" font-size="14" lengthAdjust="spacing" textLength="80" x="36" y="421.7285">SavManager</text><line style="stroke:#181818;stroke-width:0.5;" x1="8" x2="118" y1="432" y2="432"/><line style="stroke:#181818;stroke-width:0.5;" x1="8" x2="118" y1="440" y2="440"/></g><!--MD5=[3970ac9d0f2932d0a717d423a1fe4097]
class SavTechnician--><g id="elem_SavTechnician"><rect codeLine="24" fill="#F1F1F1" height="48" id="SavTechnician" rx="2.5" ry="2.5" style="stroke:#181818;stroke-width:0.5;" width="125" x="590.5" y="400"/><ellipse cx="605.5" cy="416" fill="#ADD1B2" rx="11" ry="11" style="stroke:#181818;stroke-width:1.0;"/><path d="M608.2656,411.875 Q608.4219,411.6563 608.6094,411.5469 Q608.7969,411.4375 609.0156,411.4375 Q609.3906,411.4375 609.625,411.7031 Q609.8594,411.9531 609.8594,412.5625 L609.8594,414.0156 Q609.8594,414.625 609.625,414.8906 Q609.3906,415.1563 609.0156,415.1563 Q608.6719,415.1563 608.4688,414.9531 Q608.2656,414.7656 608.1563,414.25 Q608.1094,413.8906 607.9219,413.7031 Q607.5938,413.3281 606.9844,413.1094 Q606.375,412.8906 605.75,412.8906 Q604.9844,412.8906 604.3438,413.2188 Q603.7188,413.5469 603.2188,414.2969 Q602.7344,415.0469 602.7344,416.0781 L602.7344,417.1719 Q602.7344,418.4063 603.625,419.2344 Q604.5156,420.0469 606.1094,420.0469 Q607.0469,420.0469 607.7031,419.7969 Q608.0938,419.6406 608.5156,419.2031 Q608.7813,418.9375 608.9219,418.8594 Q609.0781,418.7813 609.2813,418.7813 Q609.6094,418.7813 609.8594,419.0469 Q610.125,419.2969 610.125,419.6406 Q610.125,419.9844 609.7813,420.3906 Q609.2813,420.9688 608.4844,421.2969 Q607.4063,421.75 606.1094,421.75 Q604.5938,421.75 603.3906,421.125 Q602.4063,420.625 601.7188,419.5625 Q601.0313,418.4844 601.0313,417.2031 L601.0313,416.0469 Q601.0313,414.7188 601.6406,413.5781 Q602.2656,412.4219 603.3594,411.8125 Q604.4531,411.1875 605.6875,411.1875 Q606.4219,411.1875 607.0625,411.3594 Q607.7188,411.5156 608.2656,411.875 Z " fill="#000000"/><text fill="#000000" font-family="sans-serif" font-size="14" lengthAdjust="spacing" textLength="93" x="619.5" y="421.7285">SavTechnician</text><line style="stroke:#181818;stroke-width:0.5;" x1="591.5" x2="714.5" y1="432" y2="432"/><line style="stroke:#181818;stroke-width:0.5;" x1="591.5" x2="714.5" y1="440" y2="440"/></g><!--MD5=[0b260462ad83c90fe514074d58d9061f]
class ScooterOwner--><g id="elem_ScooterOwner"><rect codeLine="25" fill="#F1F1F1" height="48" id="ScooterOwner" rx="2.5" ry="2.5" style="stroke:#181818;stroke-width:0.5;" width="122" x="357" y="400"/><ellipse cx="372" cy="416" fill="#ADD1B2" rx="11" ry="11" style="stroke:#181818;stroke-width:1.0;"/><path d="M374.7656,411.875 Q374.9219,411.6563 375.1094,411.5469 Q375.2969,411.4375 375.5156,411.4375 Q375.8906,411.4375 376.125,411.7031 Q376.3594,411.9531 376.3594,412.5625 L376.3594,414.0156 Q376.3594,414.625 376.125,414.8906 Q375.8906,415.1563 375.5156,415.1563 Q375.1719,415.1563 374.9688,414.9531 Q374.7656,414.7656 374.6563,414.25 Q374.6094,413.8906 374.4219,413.7031 Q374.0938,413.3281 373.4844,413.1094 Q372.875,412.8906 372.25,412.8906 Q371.4844,412.8906 370.8438,413.2188 Q370.2188,413.5469 369.7188,414.2969 Q369.2344,415.0469 369.2344,416.0781 L369.2344,417.1719 Q369.2344,418.4063 370.125,419.2344 Q371.0156,420.0469 372.6094,420.0469 Q373.5469,420.0469 374.2031,419.7969 Q374.5938,419.6406 375.0156,419.2031 Q375.2813,418.9375 375.4219,418.8594 Q375.5781,418.7813 375.7813,418.7813 Q376.1094,418.7813 376.3594,419.0469 Q376.625,419.2969 376.625,419.6406 Q376.625,419.9844 376.2813,420.3906 Q375.7813,420.9688 374.9844,421.2969 Q373.9063,421.75 372.6094,421.75 Q371.0938,421.75 369.8906,421.125 Q368.9063,420.625 368.2188,419.5625 Q367.5313,418.4844 367.5313,417.2031 L367.5313,416.0469 Q367.5313,414.7188 368.1406,413.5781 Q368.7656,412.4219 369.8594,411.8125 Q370.9531,411.1875 372.1875,411.1875 Q372.9219,411.1875 373.5625,411.3594 Q374.2188,411.5156 374.7656,411.875 Z " fill="#000000"/><text fill="#000000" font-family="sans-serif" font-size="14" lengthAdjust="spacing" textLength="90" x="386" y="421.7285">ScooterOwner</text><line style="stroke:#181818;stroke-width:0.5;" x1="358" x2="478" y1="432" y2="432"/><line style="stroke:#181818;stroke-width:0.5;" x1="358" x2="478" y1="440" y2="440"/></g><!--MD5=[63ce33cd5e178a8d978ca2d524017a28]
link user to role--><g id="link_user_role"><path codeLine="18" d="M416.12,110 C426,110 435.89,110 445.77,110 " fill="none" id="user-to-role" style="stroke:#181818;stroke-width:1.0;stroke-dasharray:7.0,7.0;"/><polygon fill="#181818" points="450.94,110,441.94,106,445.94,110,441.94,114,450.94,110" style="stroke:#181818;stroke-width:1.0;"/></g><!--MD5=[72c6e1b549b1447b7193b68ca321e55c]
reverse link user to SuperAdmin--><g id="link_user_SuperAdmin"><path codeLine="29" d="M336,233.46 C336,248.73 336,262.82 336,273.83 " fill="none" id="user-backto-SuperAdmin" style="stroke:#181818;stroke-width:1.0;"/><polygon fill="none" points="329,233.25,336,213.25,343,233.25,329,233.25" style="stroke:#181818;stroke-width:1.0;"/></g><!--MD5=[05f636e075c7bd91d367b75f821ac10f]
reverse link user to Admin--><g id="link_user_Admin"><path codeLine="30" d="M241.33,190.13 C197.57,232.95 150.23,289.77 127,352 C111.68,393.06 175.46,411.08 218.16,418.42 " fill="none" id="user-backto-Admin" style="stroke:#181818;stroke-width:1.0;"/><polygon fill="none" points="236.68,184.88,255.99,176.16,246.34,195.02,236.68,184.88" style="stroke:#181818;stroke-width:1.0;"/></g><!--MD5=[a0c268020e0ea84cf6c1ae41f1c646a6]
reverse link user to SavManager--><g id="link_user_SavManager"><path codeLine="31" d="M239.34,174.35 C202.7,201.78 162.69,236.27 133,274 C101.98,313.42 80.59,368.82 70.21,399.76 " fill="none" id="user-backto-SavManager" style="stroke:#181818;stroke-width:1.0;"/><polygon fill="none" points="235.62,168.4,255.9,162.25,243.88,179.7,235.62,168.4" style="stroke:#181818;stroke-width:1.0;"/></g><!--MD5=[8bb68609a4e62aa5b8b1d511d6dd198c]
reverse link user to SavTechnician--><g id="link_user_SavTechnician"><path codeLine="32" d="M432.46,212.65 C432.64,212.76 432.82,212.88 433,213 C497.91,255.83 536.23,225.47 597,274 C629.36,299.85 634.79,312.74 648,352 C653.16,367.34 654.35,385.57 654.28,399.72 " fill="none" id="user-backto-SavTechnician" style="stroke:#181818;stroke-width:1.0;"/><polygon fill="none" points="428.12,218.14,416.18,200.64,436.43,206.87,428.12,218.14" style="stroke:#181818;stroke-width:1.0;"/></g><!--MD5=[7f0987adb26d197418a474c5d06e2920]
reverse link user to ScooterOwner--><g id="link_user_ScooterOwner"><path codeLine="33" d="M430.91,211.13 C431.6,211.76 432.3,212.38 433,213 C510.52,281.66 573.49,259.48 620,352 C623.59,359.15 624.89,363.67 620,370 C602.81,392.28 532.18,407.03 479.25,415.19 " fill="none" id="user-backto-ScooterOwner" style="stroke:#181818;stroke-width:1.0;"/><polygon fill="none" points="426.11,216.23,416.21,197.5,435.63,205.97,426.11,216.23" style="stroke:#181818;stroke-width:1.0;"/></g><!--MD5=[09aae7af09b34a009e8e6147e67eb674]
link SuperAdmin to Admin--><g id="link_SuperAdmin_Admin"><path codeLine="36" d="M297.59,322.11 C286.86,330.3 276.19,340.4 269,352 C260.11,366.35 256.41,385.13 254.91,399.77 " fill="none" id="SuperAdmin-Admin" style="stroke:#181818;stroke-width:1.0;"/><text fill="#000000" font-family="sans-serif" font-size="13" lengthAdjust="spacing" textLength="87" x="270" y="366.4951">deleleRoleUser</text><text fill="#000000" font-family="sans-serif" font-size="13" lengthAdjust="spacing" textLength="7" x="280.3744" y="343.4748">1</text><text fill="#000000" font-family="sans-serif" font-size="13" lengthAdjust="spacing" textLength="5" x="249.5026" y="389.0512">*</text></g><!--MD5=[2575c9fa13754fdd3aec819c580ca16a]
link SuperAdmin to SavManager--><g id="link_SuperAdmin_SavManager"><path codeLine="37" d="M281.27,311.18 C246.62,320.01 201.46,333.64 164,352 C137.44,365.02 110.17,384.63 90.67,399.95 " fill="none" id="SuperAdmin-SavManager" style="stroke:#181818;stroke-width:1.0;"/><text fill="#000000" font-family="sans-serif" font-size="13" lengthAdjust="spacing" textLength="87" x="165" y="366.4951">deleleRoleUser</text><text fill="#000000" font-family="sans-serif" font-size="13" lengthAdjust="spacing" textLength="7" x="266.4453" y="309.3948">1</text><text fill="#000000" font-family="sans-serif" font-size="13" lengthAdjust="spacing" textLength="5" x="92.1198" y="389.2773">*</text></g><!--MD5=[7ffe6148d8def80e389728d5e9d21882]
link SuperAdmin to SavTechnician--><g id="link_SuperAdmin_SavTechnician"><path codeLine="38" d="M390.82,318.84 C417.5,328.62 450.01,340.72 479,352 C518.98,367.56 563.8,385.87 597.94,400 " fill="none" id="SuperAdmin-SavTechnician" style="stroke:#181818;stroke-width:1.0;"/><text fill="#000000" font-family="sans-serif" font-size="13" lengthAdjust="spacing" textLength="87" x="524" y="366.4951">deleleRoleUser</text><text fill="#000000" font-family="sans-serif" font-size="13" lengthAdjust="spacing" textLength="7" x="398.6568" y="318.0841">1</text><text fill="#000000" font-family="sans-serif" font-size="13" lengthAdjust="spacing" textLength="5" x="578.1903" y="389.3402">*</text></g><!--MD5=[b63dfc4d311ae265b98c8f1531641484]
link SuperAdmin to ScooterOwner--><g id="link_SuperAdmin_ScooterOwner"><path codeLine="39" d="M351.23,322.03 C365.87,344.17 387.87,377.44 402.57,399.67 " fill="none" id="SuperAdmin-ScooterOwner" style="stroke:#181818;stroke-width:1.0;"/><text fill="#000000" font-family="sans-serif" font-size="13" lengthAdjust="spacing" textLength="87" x="383" y="366.4951">deleleRoleUser</text><text fill="#000000" font-family="sans-serif" font-size="13" lengthAdjust="spacing" textLength="7" x="347.0892" y="343.3753">1</text><text fill="#000000" font-family="sans-serif" font-size="13" lengthAdjust="spacing" textLength="5" x="393.1996" y="389.3275">*</text></g><!--MD5=[08ebc757a2ac8d512427674d898e2e94]
@startuml delele_role_user_class_diagram
Class user {
Int id
String name
String password
String username
String email
Bool enabled 
String verification_code
JSON Login()
Bool Register()
}

Class role{
Int id
String name
}

user .right.> role

 
Class SuperAdmin{}
Class Admin{}
Class SavManager{}
Class SavTechnician{}
Class ScooterOwner{}


top to bottom direction
user <|- - SuperAdmin
user <|- - Admin
user <|- - SavManager
user <|- - SavTechnician
user <|- - ScooterOwner


SuperAdmin "1"- -"*" Admin : deleleRoleUser
SuperAdmin "1"- -"*" SavManager : deleleRoleUser
SuperAdmin "1"- -"*" SavTechnician : deleleRoleUser
SuperAdmin "1"- -"*" ScooterOwner : deleleRoleUser






@enduml

PlantUML version 1.2022.7(Mon Aug 22 19:01:30 CEST 2022)
(GPL source distribution)
Java Runtime: Java(TM) SE Runtime Environment
JVM: Java HotSpot(TM) 64-Bit Server VM
Default Encoding: Cp1252
Language: fr
Country: FR
--></g></svg>