<?xml version="1.0" encoding="UTF-8" standalone="no"?><svg xmlns="http://www.w3.org/2000/svg" xmlns:xlink="http://www.w3.org/1999/xlink" contentStyleType="text/css" height="522px" preserveAspectRatio="none" style="width:1395px;height:522px;background:#FFFFFF;" version="1.1" viewBox="0 0 1395 522" width="1395px" zoomAndPan="magnify"><defs/><g><!--MD5=[84fe9c2691e068feebd93c4edabc2902]
cluster claims--><g id="cluster_claims"><rect fill="none" height="509" rx="2.5" ry="2.5" style="stroke:#181818;stroke-width:1.0;" width="985" x="404" y="7"/><text fill="#000000" font-family="sans-serif" font-size="14" font-weight="bold" lengthAdjust="spacing" textLength="47" x="873" y="22.5352">claims</text></g><g id="elem_mgc"><ellipse cx="533.478" cy="315.0956" fill="#F1F1F1" rx="113.478" ry="25.0956" style="stroke:#181818;stroke-width:0.5;"/><text fill="#000000" font-family="sans-serif" font-size="14" lengthAdjust="spacing" textLength="185" x="440.978" y="318.3866">Manage claims 'Technicien'</text></g><g id="elem_mgca"><ellipse cx="880.8755" cy="68.7751" fill="#F1F1F1" rx="121.8755" ry="26.7751" style="stroke:#181818;stroke-width:0.5;"/><text fill="#000000" font-family="sans-serif" font-size="14" lengthAdjust="spacing" textLength="203" x="779.3755" y="72.0661">Affect claim to SAVTechnicien</text></g><g id="elem_mgcc"><ellipse cx="1243.8912" cy="443.9782" fill="#F1F1F1" rx="80.3912" ry="18.4782" style="stroke:#181818;stroke-width:0.5;"/><text fill="#000000" font-family="sans-serif" font-size="14" lengthAdjust="spacing" textLength="107" x="1188.3912" y="447.2693">Comment claim</text></g><g id="elem_mgccm"><ellipse cx="533.3124" cy="155.1625" fill="#F1F1F1" rx="103.8124" ry="23.1625" style="stroke:#181818;stroke-width:0.5;"/><text fill="#000000" font-family="sans-serif" font-size="14" lengthAdjust="spacing" textLength="164" x="451.3124" y="158.4535">Manage claim 'Manager'</text></g><g id="elem_mgccd"><ellipse cx="881.2258" cy="314.8452" fill="#F1F1F1" rx="104.7258" ry="23.3452" style="stroke:#181818;stroke-width:0.5;"/><text fill="#000000" font-family="sans-serif" font-size="14" lengthAdjust="spacing" textLength="166" x="798.2258" y="318.1362">Consult my claim details</text></g><g id="elem_mgccds"><ellipse cx="1243.8361" cy="138.9672" fill="#F1F1F1" rx="115.3361" ry="25.4672" style="stroke:#181818;stroke-width:0.5;"/><text fill="#000000" font-family="sans-serif" font-size="14" lengthAdjust="spacing" textLength="189" x="1149.3361" y="142.2582">Consult claim status history</text></g><g id="elem_mgccdt"><ellipse cx="1243.9371" cy="310.1874" fill="#F1F1F1" rx="128.9371" ry="28.1874" style="stroke:#181818;stroke-width:0.5;"/><text fill="#000000" font-family="sans-serif" font-size="14" lengthAdjust="spacing" textLength="218" x="1134.9371" y="313.4784">Consult claim technician history</text></g><g id="elem_mgccda"><ellipse cx="881.099" cy="155.1198" fill="#F1F1F1" rx="106.099" ry="23.6198" style="stroke:#181818;stroke-width:0.5;"/><text fill="#000000" font-family="sans-serif" font-size="14" lengthAdjust="spacing" textLength="169" x="796.599" y="158.4108">Consult all claims details</text></g><g id="elem_mgccs"><ellipse cx="881.1075" cy="234.8215" fill="#F1F1F1" rx="92.1075" ry="20.8215" style="stroke:#181818;stroke-width:0.5;"/><text fill="#000000" font-family="sans-serif" font-size="14" lengthAdjust="spacing" textLength="138" x="812.1075" y="238.1125">Change claim status</text></g><g id="elem_cmc"><ellipse cx="880.9647" cy="393.0929" fill="#F1F1F1" rx="85.9647" ry="19.5929" style="stroke:#181818;stroke-width:0.5;"/><text fill="#000000" font-family="sans-serif" font-size="14" lengthAdjust="spacing" textLength="124" x="818.9647" y="396.384">Consult my claims</text></g><g id="elem_cc"><ellipse cx="533.3192" cy="414.8638" fill="#F1F1F1" rx="69.8192" ry="16.3638" style="stroke:#181818;stroke-width:0.5;"/><text fill="#000000" font-family="sans-serif" font-size="14" lengthAdjust="spacing" textLength="85" x="488.9253" y="418.6373">Create claim</text></g><!--MD5=[7d46d6cd919e02e6168a09ad91eae8b4]
entity u--><g id="elem_u"><ellipse cx="21.5" cy="202.5" fill="#F1F1F1" rx="8" ry="8" style="stroke:#181818;stroke-width:0.5;"/><path d="M21.5,210.5 L21.5,237.5 M8.5,218.5 L34.5,218.5 M21.5,237.5 L8.5,252.5 M21.5,237.5 L34.5,252.5 " fill="none" style="stroke:#181818;stroke-width:0.5;"/><text fill="#000000" font-family="sans-serif" font-size="14" lengthAdjust="spacing" textLength="31" x="6" y="267.5352">User</text></g><!--MD5=[e74ef3b3a003784962dd3667b8672065]
entity sa--><g id="elem_sa"><ellipse cx="148.5" cy="63.5" fill="#F1F1F1" rx="8" ry="8" style="stroke:#181818;stroke-width:0.5;"/><path d="M148.5,71.5 L148.5,98.5 M135.5,79.5 L161.5,79.5 M148.5,98.5 L135.5,113.5 M148.5,98.5 L161.5,113.5 " fill="none" style="stroke:#181818;stroke-width:0.5;"/><text fill="#000000" font-family="sans-serif" font-size="14" lengthAdjust="spacing" textLength="85" x="106" y="128.5352">SuperAdmin</text></g><!--MD5=[f83ae91a690dfc657e1c5fbbd818f13d]
entity a--><g id="elem_a"><ellipse cx="148.5" cy="174.5" fill="#F1F1F1" rx="8" ry="8" style="stroke:#181818;stroke-width:0.5;"/><path d="M148.5,182.5 L148.5,209.5 M135.5,190.5 L161.5,190.5 M148.5,209.5 L135.5,224.5 M148.5,209.5 L161.5,224.5 " fill="none" style="stroke:#181818;stroke-width:0.5;"/><text fill="#000000" font-family="sans-serif" font-size="14" lengthAdjust="spacing" textLength="45" x="126" y="239.5352">Admin</text></g><!--MD5=[5d4b2633e4791513268a2604d42d888f]
entity st--><g id="elem_st"><ellipse cx="148.5" cy="285.5" fill="#F1F1F1" rx="8" ry="8" style="stroke:#181818;stroke-width:0.5;"/><path d="M148.5,293.5 L148.5,320.5 M135.5,301.5 L161.5,301.5 M148.5,320.5 L135.5,335.5 M148.5,320.5 L161.5,335.5 " fill="none" style="stroke:#181818;stroke-width:0.5;"/><text fill="#000000" font-family="sans-serif" font-size="14" lengthAdjust="spacing" textLength="101" x="98" y="350.5352">SAVTechnicien</text></g><!--MD5=[31b50539c062e48f418cd0b43b66a14f]
entity sm--><g id="elem_sm"><ellipse cx="308.5" cy="160.5" fill="#F1F1F1" rx="8" ry="8" style="stroke:#181818;stroke-width:0.5;"/><path d="M308.5,168.5 L308.5,195.5 M295.5,176.5 L321.5,176.5 M308.5,195.5 L295.5,210.5 M308.5,195.5 L321.5,210.5 " fill="none" style="stroke:#181818;stroke-width:0.5;"/><text fill="#000000" font-family="sans-serif" font-size="14" lengthAdjust="spacing" textLength="83" x="267" y="225.5352">SavManager</text></g><!--MD5=[cbf3ffb352d9865303b7d468db07b81d]
entity so--><g id="elem_so"><ellipse cx="308.5" cy="385.5" fill="#F1F1F1" rx="8" ry="8" style="stroke:#181818;stroke-width:0.5;"/><path d="M308.5,393.5 L308.5,420.5 M295.5,401.5 L321.5,401.5 M308.5,420.5 L295.5,435.5 M308.5,420.5 L321.5,435.5 " fill="none" style="stroke:#181818;stroke-width:0.5;"/><text fill="#000000" font-family="sans-serif" font-size="14" lengthAdjust="spacing" textLength="97" x="260" y="450.5352">ScooterOwner</text></g><!--MD5=[f2310427781d14b5c154558f138f331c]
reverse link u to sa--><g id="link_u_sa"><path d="M51.54,199.68 C65.58,184.06 82.66,165.05 98,148 C102.81,142.65 107.89,137.01 112.88,131.46 " fill="none" id="u-backto-sa" style="stroke:#181818;stroke-width:1.0;"/><polygon fill="none" points="56.84,204.26,38.26,214.45,46.43,194.9,56.84,204.26" style="stroke:#181818;stroke-width:1.0;"/></g><!--MD5=[06ed1f97a038065ba63baeec153d63f2]
reverse link u to a--><g id="link_u_a"><path d="M58.15,224.01 C79.87,219.15 106.93,213.09 125.55,208.92 " fill="none" id="u-backto-a" style="stroke:#181818;stroke-width:1.0;"/><polygon fill="none" points="59.85,230.81,38.81,228.35,56.79,217.14,59.85,230.81" style="stroke:#181818;stroke-width:1.0;"/></g><!--MD5=[a56ca2492862352e41cc64ccdfe462cb]
reverse link u to st--><g id="link_u_st"><path d="M54.91,253.52 C67.92,262.16 83.22,272.32 97.59,281.86 " fill="none" id="u-backto-st" style="stroke:#181818;stroke-width:1.0;"/><polygon fill="none" points="51.38,259.58,38.59,242.68,59.12,247.92,51.38,259.58" style="stroke:#181818;stroke-width:1.0;"/></g><!--MD5=[1e9e8274ee25b60209ea89b161b96434]
reverse link u to so--><g id="link_u_so"><path d="M41.39,290.51 C53.34,318.59 71.62,350.32 98,370 C145.11,405.14 213.87,414.05 259.62,415.72 " fill="none" id="u-backto-so" style="stroke:#181818;stroke-width:1.0;"/><polygon fill="none" points="34.87,293.06,34.16,271.88,47.92,288,34.87,293.06" style="stroke:#181818;stroke-width:1.0;"/></g><!--MD5=[22d80bdfb6abb88ff6c0832168193702]
link st to mgc--><g id="link_st_mgc"><path d="M199.18,315 C253.11,315 341.18,315 413.26,315 " fill="none" id="st-to-mgc" style="stroke:#181818;stroke-width:1.0;"/><polygon fill="#181818" points="418.22,315,409.22,311,413.22,315,409.22,319,418.22,315" style="stroke:#181818;stroke-width:1.0;"/></g><!--MD5=[6192af3b7102f72db1f674118756b250]
reverse link st to sm--><g id="link_st_sm"><path d="M214.61,263.49 C232.24,249.54 250.84,234.83 266.72,222.26 " fill="none" id="st-backto-sm" style="stroke:#181818;stroke-width:1.0;"/><polygon fill="none" points="218.98,268.96,198.95,275.88,210.29,257.98,218.98,268.96" style="stroke:#181818;stroke-width:1.0;"/></g><!--MD5=[d54d53e9355f5cc87741c877c565f187]
link so to cc--><g id="link_so_cc"><path d="M357.34,415 C386.25,415 423.76,415 456.64,415 " fill="none" id="so-to-cc" style="stroke:#181818;stroke-width:1.0;"/><polygon fill="#181818" points="461.64,415,452.64,411,456.64,415,452.64,419,461.64,415" style="stroke:#181818;stroke-width:1.0;"/></g><!--MD5=[a0275d7508be6767756ad4f9af257b3a]
link so to cmc--><g id="link_so_cmc"><path d="M357.5,437.53 C369.78,442.27 383.16,446.57 396,449 C505.61,469.77 536.22,462.13 647,449 C708.09,441.76 776.34,424.2 823.1,410.66 " fill="none" id="so-to-cmc" style="stroke:#181818;stroke-width:1.0;"/><polygon fill="#181818" points="827.81,409.29,818.05,407.97,823.01,410.69,820.29,415.65,827.81,409.29" style="stroke:#181818;stroke-width:1.0;"/></g><!--MD5=[33c86dd241efb2cfca984bec9db4b7f6]
link sm to mgccm--><g id="link_sm_mgccm"><path d="M350.4,183.58 C375.86,179.58 409.67,174.28 441.24,169.32 " fill="none" id="sm-to-mgccm" style="stroke:#181818;stroke-width:1.0;"/><polygon fill="#181818" points="446.02,168.57,436.5108,166.0057,441.0798,169.341,437.7445,173.91,446.02,168.57" style="stroke:#181818;stroke-width:1.0;"/></g><!--MD5=[7d7559a9719ceb1d1ad9c5b83c4a6c96]
reverse link mgccm to mgca--><g id="link_mgccm_mgca"><path d="M610.01,136.2 C665.7,122.34 741.4,103.5 798.47,89.29 " fill="none" id="mgccm-backto-mgca" style="stroke:#181818;stroke-width:1.0;stroke-dasharray:7.0,7.0;"/><polygon fill="#181818" points="605.47,137.33,615.1679,139.048,610.3232,136.1274,613.2438,131.2828,605.47,137.33" style="stroke:#181818;stroke-width:1.0;"/><text fill="#000000" font-family="sans-serif" font-size="13" lengthAdjust="spacing" textLength="50" x="678" y="103.5684">extends</text></g><!--MD5=[633d633e4e681d2c7513ca2470b483b8]
reverse link mgccm to mgccda--><g id="link_mgccm_mgccda"><path d="M644.08,155 C685.83,155 733.29,155 774.65,155 " fill="none" id="mgccm-backto-mgccda" style="stroke:#181818;stroke-width:1.0;stroke-dasharray:7.0,7.0;"/><polygon fill="#181818" points="639.21,155,648.21,159,644.21,155,648.21,151,639.21,155" style="stroke:#181818;stroke-width:1.0;"/><text fill="#000000" font-family="sans-serif" font-size="13" lengthAdjust="spacing" textLength="50" x="678" y="151.5684">extends</text></g><!--MD5=[f1b3af1c182d4cd70380828119f63679]
reverse link mgc to mgcc--><g id="link_mgc_mgcc"><path d="M580.24,341.81 C600.68,353.79 625.05,368.09 647,381 C696.81,410.28 703.26,431.8 759,447 C904.92,486.8 1084.92,469.15 1178.94,455.16 " fill="none" id="mgc-backto-mgcc" style="stroke:#181818;stroke-width:1.0;stroke-dasharray:7.0,7.0;"/><polygon fill="#181818" points="576.17,339.42,581.9121,347.4218,580.4837,341.9482,585.9573,340.5199,576.17,339.42" style="stroke:#181818;stroke-width:1.0;"/><text fill="#000000" font-family="sans-serif" font-size="13" lengthAdjust="spacing" textLength="50" x="856" y="443.5684">extends</text></g><!--MD5=[3c89866ace82994ff2996cdb3e9a367e]
reverse link mgc to mgccd--><g id="link_mgc_mgccd"><path d="M653.52,315 C693.44,315 737.62,315 776.28,315 " fill="none" id="mgc-backto-mgccd" style="stroke:#181818;stroke-width:1.0;stroke-dasharray:7.0,7.0;"/><polygon fill="#181818" points="648.67,315,657.67,319,653.67,315,657.67,311,648.67,315" style="stroke:#181818;stroke-width:1.0;"/><text fill="#000000" font-family="sans-serif" font-size="13" lengthAdjust="spacing" textLength="50" x="678" y="311.5684">extends</text></g><!--MD5=[30426b59a01fc9d669bc8b18a2dee94a]
reverse link mgccd to mgccds--><g id="link_mgccd_mgccds"><path d="M966.62,297.11 C980.09,291.22 992.9,283.39 1003,273 C1033.86,241.25 999.84,207.34 1033,178 C1059.04,154.97 1094.17,143.57 1128.24,138.38 " fill="none" id="mgccd-backto-mgccds" style="stroke:#181818;stroke-width:1.0;stroke-dasharray:7.0,7.0;"/><polygon fill="#181818" points="962.21,298.93,972.0555,299.1867,966.8304,297.0191,968.998,291.794,962.21,298.93" style="stroke:#181818;stroke-width:1.0;"/><text fill="#000000" font-family="sans-serif" font-size="13" lengthAdjust="spacing" textLength="50" x="1034" y="146.5684">extends</text></g><!--MD5=[f36f16baf6a083ac7ff8e0b8caae336f]
reverse link mgccd to mgccdt--><g id="link_mgccd_mgccdt"><path d="M992.18,314.1 C1022.28,313.8 1054.9,313.43 1085,313 C1094.88,312.86 1105.1,312.7 1115.38,312.52 " fill="none" id="mgccd-backto-mgccdt" style="stroke:#181818;stroke-width:1.0;stroke-dasharray:7.0,7.0;"/><polygon fill="#181818" points="987.31,314.15,996.3551,318.0469,992.3097,314.0929,996.2637,310.0474,987.31,314.15" style="stroke:#181818;stroke-width:1.0;"/><text fill="#000000" font-family="sans-serif" font-size="13" lengthAdjust="spacing" textLength="50" x="1034" y="309.5684">extends</text></g><!--MD5=[de47f5fc9a0c3cb9079db2f1ab7dd712]
reverse link mgccda to mgccds--><g id="link_mgccda_mgccds"><path d="M954.92,135.16 C979.52,129.38 1007.27,123.86 1033,121 C1071.73,116.69 1114.58,119.09 1151.42,123.35 " fill="none" id="mgccda-backto-mgccds" style="stroke:#181818;stroke-width:1.0;stroke-dasharray:7.0,7.0;"/><polygon fill="#181818" points="950.21,136.28,959.8908,138.0918,955.0746,135.1245,958.0419,130.3083,950.21,136.28" style="stroke:#181818;stroke-width:1.0;"/><text fill="#000000" font-family="sans-serif" font-size="13" lengthAdjust="spacing" textLength="50" x="1034" y="115.5684">extends</text></g><!--MD5=[08637a276e090b175f7b6f8f4e322122]
reverse link mgccda to mgccdt--><g id="link_mgccda_mgccdt"><path d="M965.29,173.54 C978.91,179.18 992.1,186.5 1003,196 C1025.47,215.59 1009.81,237.27 1033,256 C1059.43,277.35 1093.32,290.35 1126.13,298.25 " fill="none" id="mgccda-backto-mgccdt" style="stroke:#181818;stroke-width:1.0;stroke-dasharray:7.0,7.0;"/><polygon fill="#181818" points="960.85,171.79,967.7394,178.8282,965.4973,173.6346,970.6908,171.3925,960.85,171.79" style="stroke:#181818;stroke-width:1.0;"/><text fill="#000000" font-family="sans-serif" font-size="13" lengthAdjust="spacing" textLength="50" x="1034" y="252.5684">extends</text></g><!--MD5=[1ca191a9c7cad2547d11889b8f51f9ba]
reverse link mgc to mgccs--><g id="link_mgc_mgccs"><path d="M619.06,295.42 C679.56,281.41 759.78,262.84 815.23,250 " fill="none" id="mgc-backto-mgccs" style="stroke:#181818;stroke-width:1.0;stroke-dasharray:7.0,7.0;"/><polygon fill="#181818" points="614.37,296.51,624.0406,298.3755,619.241,295.3815,622.235,290.582,614.37,296.51" style="stroke:#181818;stroke-width:1.0;"/><text fill="#000000" font-family="sans-serif" font-size="13" lengthAdjust="spacing" textLength="50" x="678" y="267.5684">extends</text></g><!--MD5=[e9a1bc34beb5ed56c1798aaf61d7983b]
reverse link cmc to mgcc--><g id="link_cmc_mgcc"><path d="M945.03,409.27 C971.96,415.68 1003.86,422.56 1033,427 C1076.39,433.61 1125.25,437.76 1164.91,440.3 " fill="none" id="cmc-backto-mgcc" style="stroke:#181818;stroke-width:1.0;stroke-dasharray:7.0,7.0;"/><polygon fill="#181818" points="940.47,408.18,948.298,414.1568,945.3339,409.3387,950.152,406.3746,940.47,408.18" style="stroke:#181818;stroke-width:1.0;"/><text fill="#000000" font-family="sans-serif" font-size="13" lengthAdjust="spacing" textLength="50" x="1034" y="423.5684">extends</text></g><!--MD5=[feafc3374a00a8eb13704d19ac7f3fb3]
reverse link cmc to mgccds--><g id="link_cmc_mgccds"><path d="M962.29,381.12 C977.46,375.61 991.99,367.61 1003,356 C1041.11,315.78 997.62,277.64 1033,235 C1043.61,222.22 1128.51,185.74 1187.06,161.61 " fill="none" id="cmc-backto-mgccds" style="stroke:#181818;stroke-width:1.0;stroke-dasharray:7.0,7.0;"/><polygon fill="#181818" points="957.66,382.69,967.4664,383.6033,962.3977,381.0917,964.9092,376.023,957.66,382.69" style="stroke:#181818;stroke-width:1.0;"/><text fill="#000000" font-family="sans-serif" font-size="13" lengthAdjust="spacing" textLength="50" x="1034" y="205.5684">extends</text></g><!--MD5=[0eed3eb84783206906bb8b345f9c860e]
reverse link cmc to mgccdt--><g id="link_cmc_mgccdt"><path d="M949.04,377.59 C1006.84,364.3 1090.75,345 1154.14,330.43 " fill="none" id="cmc-backto-mgccdt" style="stroke:#181818;stroke-width:1.0;stroke-dasharray:7.0,7.0;"/><polygon fill="#181818" points="944.31,378.67,953.9753,380.5625,949.1841,377.5551,952.1915,372.7639,944.31,378.67" style="stroke:#181818;stroke-width:1.0;"/><text fill="#000000" font-family="sans-serif" font-size="13" lengthAdjust="spacing" textLength="50" x="1034" y="343.5684">extends</text></g><!--MD5=[10e0cbc494164bcb2ea43983c6c766c9]
@startuml claims_use_case
left to right direction
skinparam packageStyle rect
skinparam shadowing false

actor User as u 
actor SuperAdmin as sa
actor Admin as a 
actor SAVTechnicien as st
actor SavManager as sm
actor ScooterOwner as so


u <|- - sa
u <|- - a
u <|- - st
u <|- - so
package claims {
( Manage claims 'Technicien' ) as mgc
( Affect claim to SAVTechnicien ) as mgca
( Comment claim  ) as mgcc
( Manage claim 'Manager' ) as mgccm
( Consult my claim details ) as mgccd
( Consult claim status history ) as mgccds
( Consult claim technician history ) as mgccdt
( Consult all claims details ) as mgccda
( Change claim status ) as mgccs
( Consult my claims ) as cmc

( Create claim ) as cc
}

left to right direction


st - -> mgc
st <|- -sm
so - -> cc
so - -> cmc
sm - -> mgccm
mgccm <.. mgca :extends
mgccm <.. mgccda : extends
mgc <.. mgcc : extends
mgc <.. mgccd : extends
mgccd <.. mgccds : extends
mgccd <.. mgccdt : extends
mgccda <.. mgccds : extends
mgccda <.. mgccdt : extends
mgc <.. mgccs : extends
cmc <.. mgcc :extends
cmc <.. mgccds : extends
cmc <.. mgccdt : extends
@enduml

PlantUML version 1.2022.7(Mon Aug 22 18:01:30 CET 2022)
(GPL source distribution)
Java Runtime: Java(TM) SE Runtime Environment
JVM: Java HotSpot(TM) 64-Bit Server VM
Default Encoding: UTF-8
Language: fr
Country: FR
--></g></svg>