<?xml version="1.0" encoding="UTF-8" standalone="no"?><svg xmlns="http://www.w3.org/2000/svg" xmlns:xlink="http://www.w3.org/1999/xlink" contentStyleType="text/css" height="799px" preserveAspectRatio="none" style="width:566px;height:799px;background:#FFFFFF;" version="1.1" viewBox="0 0 566 799" width="566px" zoomAndPan="magnify"><defs/><g><rect fill="#FFFFFF" height="500.5684" style="stroke:#181818;stroke-width:1.0;" width="10" x="86.5" y="112.7988"/><rect fill="#FFFFFF" height="500.5684" style="stroke:#181818;stroke-width:1.0;" width="10" x="225.5" y="112.7988"/><rect fill="#FFFFFF" height="369.6816" style="stroke:#181818;stroke-width:1.0;" width="10" x="230.5" y="150.1094"/><rect fill="#FFFFFF" height="170.8633" style="stroke:#181818;stroke-width:1.0;" width="10" x="235.5" y="246.041"/><rect fill="#FFFFFF" height="34.3105" style="stroke:#181818;stroke-width:1.0;" width="10" x="230.5" y="579.0566"/><rect fill="#FFFFFF" height="29.3105" style="stroke:#181818;stroke-width:1.0;" width="10" x="225.5" y="664.6328"/><rect fill="#FFFFFF" height="178.8633" style="stroke:#181818;stroke-width:1.0;" width="10" x="372.5" y="208.7305"/><rect fill="#FFFFFF" height="53.6211" style="stroke:#181818;stroke-width:1.0;" width="10" x="501.5" y="304.6621"/><rect fill="none" height="531.834" style="stroke:#000000;stroke-width:1.5;" width="549" x="10" y="170.1094"/><rect fill="none" height="355.3262" style="stroke:#000000;stroke-width:1.5;" width="529" x="20" y="266.041"/><rect fill="none" height="208.1289" style="stroke:#000000;stroke-width:1.5;" width="509" x="30" y="319.6621"/><line style="stroke:#181818;stroke-width:0.5;stroke-dasharray:5.0,5.0;" x1="91" x2="91" y1="81.4883" y2="718.9434"/><line style="stroke:#181818;stroke-width:0.5;stroke-dasharray:5.0,5.0;" x1="230.5" x2="230.5" y1="81.4883" y2="718.9434"/><line style="stroke:#181818;stroke-width:0.5;stroke-dasharray:5.0,5.0;" x1="377.5" x2="377.5" y1="81.4883" y2="718.9434"/><line style="stroke:#181818;stroke-width:0.5;stroke-dasharray:5.0,5.0;" x1="506" x2="506" y1="81.4883" y2="718.9434"/><text fill="#000000" font-family="sans-serif" font-size="14" lengthAdjust="spacing" textLength="97" x="40" y="78.5352">ScooterOwner</text><ellipse cx="91.5" cy="13.5" fill="#E2E2F0" rx="8" ry="8" style="stroke:#181818;stroke-width:0.5;"/><path d="M91.5,21.5 L91.5,48.5 M78.5,29.5 L104.5,29.5 M91.5,48.5 L78.5,63.5 M91.5,48.5 L104.5,63.5 " fill="none" style="stroke:#181818;stroke-width:0.5;"/><text fill="#000000" font-family="sans-serif" font-size="14" lengthAdjust="spacing" textLength="97" x="40" y="731.4785">ScooterOwner</text><ellipse cx="91.5" cy="742.9316" fill="#E2E2F0" rx="8" ry="8" style="stroke:#181818;stroke-width:0.5;"/><path d="M91.5,750.9316 L91.5,777.9316 M78.5,758.9316 L104.5,758.9316 M91.5,777.9316 L78.5,792.9316 M91.5,777.9316 L104.5,792.9316 " fill="none" style="stroke:#181818;stroke-width:0.5;"/><text fill="#000000" font-family="sans-serif" font-size="14" lengthAdjust="spacing" textLength="46" x="204.5" y="78.5352">Claims</text><path d="M210,37 L210,61 M210,49 L227,49 " fill="none" style="stroke:#181818;stroke-width:0.5;"/><ellipse cx="239" cy="49" fill="#E2E2F0" rx="12" ry="12" style="stroke:#181818;stroke-width:0.5;"/><text fill="#000000" font-family="sans-serif" font-size="14" lengthAdjust="spacing" textLength="46" x="204.5" y="731.4785">Claims</text><path d="M210,738.4316 L210,762.4316 M210,750.4316 L227,750.4316 " fill="none" style="stroke:#181818;stroke-width:0.5;"/><ellipse cx="239" cy="750.4316" fill="#E2E2F0" rx="12" ry="12" style="stroke:#181818;stroke-width:0.5;"/><text fill="#000000" font-family="sans-serif" font-size="14" lengthAdjust="spacing" textLength="94" x="327.5" y="78.5352">ClaimsService</text><ellipse cx="377.5" cy="49" fill="#E2E2F0" rx="12" ry="12" style="stroke:#181818;stroke-width:0.5;"/><polygon fill="#181818" points="373.5,37,379.5,32,377.5,37,379.5,42,373.5,37" style="stroke:#181818;stroke-width:1.0;"/><text fill="#000000" font-family="sans-serif" font-size="14" lengthAdjust="spacing" textLength="94" x="327.5" y="731.4785">ClaimsService</text><ellipse cx="377.5" cy="750.4316" fill="#E2E2F0" rx="12" ry="12" style="stroke:#181818;stroke-width:0.5;"/><polygon fill="#181818" points="373.5,738.4316,379.5,733.4316,377.5,738.4316,379.5,743.4316,373.5,738.4316" style="stroke:#181818;stroke-width:1.0;"/><text fill="#000000" font-family="sans-serif" font-size="14" lengthAdjust="spacing" textLength="39" x="484" y="78.5352">Claim</text><ellipse cx="506.5" cy="49" fill="#E2E2F0" rx="12" ry="12" style="stroke:#181818;stroke-width:0.5;"/><line style="stroke:#181818;stroke-width:0.5;" x1="494.5" x2="518.5" y1="63" y2="63"/><text fill="#000000" font-family="sans-serif" font-size="14" lengthAdjust="spacing" textLength="39" x="484" y="731.4785">Claim</text><ellipse cx="506.5" cy="750.4316" fill="#E2E2F0" rx="12" ry="12" style="stroke:#181818;stroke-width:0.5;"/><line style="stroke:#181818;stroke-width:0.5;" x1="494.5" x2="518.5" y1="764.4316" y2="764.4316"/><rect fill="#FFFFFF" height="500.5684" style="stroke:#181818;stroke-width:1.0;" width="10" x="86.5" y="112.7988"/><rect fill="#FFFFFF" height="500.5684" style="stroke:#181818;stroke-width:1.0;" width="10" x="225.5" y="112.7988"/><rect fill="#FFFFFF" height="369.6816" style="stroke:#181818;stroke-width:1.0;" width="10" x="230.5" y="150.1094"/><rect fill="#FFFFFF" height="170.8633" style="stroke:#181818;stroke-width:1.0;" width="10" x="235.5" y="246.041"/><rect fill="#FFFFFF" height="34.3105" style="stroke:#181818;stroke-width:1.0;" width="10" x="230.5" y="579.0566"/><rect fill="#FFFFFF" height="29.3105" style="stroke:#181818;stroke-width:1.0;" width="10" x="225.5" y="664.6328"/><rect fill="#FFFFFF" height="178.8633" style="stroke:#181818;stroke-width:1.0;" width="10" x="372.5" y="208.7305"/><rect fill="#FFFFFF" height="53.6211" style="stroke:#181818;stroke-width:1.0;" width="10" x="501.5" y="304.6621"/><polygon fill="#181818" points="213.5,108.7988,223.5,112.7988,213.5,116.7988,217.5,112.7988" style="stroke:#181818;stroke-width:1.0;"/><line style="stroke:#181818;stroke-width:1.0;" x1="96.5" x2="219.5" y1="112.7988" y2="112.7988"/><text fill="#000000" font-family="sans-serif" font-size="13" lengthAdjust="spacing" textLength="82" x="103.5" y="108.0566">createClaim()</text><line style="stroke:#181818;stroke-width:1.0;" x1="235.5" x2="282.5" y1="137.1094" y2="137.1094"/><line style="stroke:#181818;stroke-width:1.0;" x1="282.5" x2="282.5" y1="137.1094" y2="150.1094"/><line style="stroke:#181818;stroke-width:1.0;" x1="241.5" x2="282.5" y1="150.1094" y2="150.1094"/><polygon fill="#181818" points="251.5,146.1094,241.5,150.1094,251.5,154.1094,247.5,150.1094" style="stroke:#181818;stroke-width:1.0;"/><text fill="#000000" font-family="sans-serif" font-size="13" lengthAdjust="spacing" textLength="93" x="247.5" y="132.3672">validateClaim()</text><path d="M10,170.1094 L72,170.1094 L72,177.4199 L62,187.4199 L10,187.4199 L10,170.1094 " fill="#EEEEEE" style="stroke:#000000;stroke-width:1.5;"/><rect fill="none" height="531.834" style="stroke:#000000;stroke-width:1.5;" width="549" x="10" y="170.1094"/><text fill="#000000" font-family="sans-serif" font-size="13" font-weight="bold" lengthAdjust="spacing" textLength="17" x="25" y="183.6777">alt</text><text fill="#000000" font-family="sans-serif" font-size="11" font-weight="bold" lengthAdjust="spacing" textLength="85" x="87" y="182.7441">[claim is valid]</text><polygon fill="#181818" points="360.5,204.7305,370.5,208.7305,360.5,212.7305,364.5,208.7305" style="stroke:#181818;stroke-width:1.0;"/><line style="stroke:#181818;stroke-width:1.0;" x1="240.5" x2="366.5" y1="208.7305" y2="208.7305"/><text fill="#000000" font-family="sans-serif" font-size="13" lengthAdjust="spacing" textLength="82" x="247.5" y="203.9883">createClaim()</text><line style="stroke:#181818;stroke-width:1.0;" x1="382.5" x2="429.5" y1="233.041" y2="233.041"/><line style="stroke:#181818;stroke-width:1.0;" x1="429.5" x2="429.5" y1="233.041" y2="246.041"/><line style="stroke:#181818;stroke-width:1.0;" x1="388.5" x2="429.5" y1="246.041" y2="246.041"/><polygon fill="#181818" points="398.5,242.041,388.5,246.041,398.5,250.041,394.5,246.041" style="stroke:#181818;stroke-width:1.0;"/><text fill="#000000" font-family="sans-serif" font-size="13" lengthAdjust="spacing" textLength="93" x="394.5" y="228.2988">validateClaim()</text><path d="M20,266.041 L82,266.041 L82,273.3516 L72,283.3516 L20,283.3516 L20,266.041 " fill="#EEEEEE" style="stroke:#000000;stroke-width:1.5;"/><rect fill="none" height="355.3262" style="stroke:#000000;stroke-width:1.5;" width="529" x="20" y="266.041"/><text fill="#000000" font-family="sans-serif" font-size="13" font-weight="bold" lengthAdjust="spacing" textLength="17" x="35" y="279.6094">alt</text><text fill="#000000" font-family="sans-serif" font-size="11" font-weight="bold" lengthAdjust="spacing" textLength="85" x="97" y="278.6758">[claim is valid]</text><polygon fill="#181818" points="489.5,300.6621,499.5,304.6621,489.5,308.6621,493.5,304.6621" style="stroke:#181818;stroke-width:1.0;"/><line style="stroke:#181818;stroke-width:1.0;" x1="382.5" x2="495.5" y1="304.6621" y2="304.6621"/><text fill="#000000" font-family="sans-serif" font-size="13" lengthAdjust="spacing" textLength="82" x="389.5" y="299.9199">createClaim()</text><path d="M30,319.6621 L92,319.6621 L92,326.9727 L82,336.9727 L30,336.9727 L30,319.6621 " fill="#EEEEEE" style="stroke:#000000;stroke-width:1.5;"/><rect fill="none" height="208.1289" style="stroke:#000000;stroke-width:1.5;" width="509" x="30" y="319.6621"/><text fill="#000000" font-family="sans-serif" font-size="13" font-weight="bold" lengthAdjust="spacing" textLength="17" x="45" y="333.2305">alt</text><text fill="#000000" font-family="sans-serif" font-size="11" font-weight="bold" lengthAdjust="spacing" textLength="97" x="107" y="332.2969">[claim is created]</text><polygon fill="#181818" points="393.5,354.2832,383.5,358.2832,393.5,362.2832,389.5,358.2832" style="stroke:#181818;stroke-width:1.0;"/><line style="stroke:#181818;stroke-width:1.0;stroke-dasharray:2.0,2.0;" x1="387.5" x2="505.5" y1="358.2832" y2="358.2832"/><text fill="#000000" font-family="sans-serif" font-size="13" lengthAdjust="spacing" textLength="82" x="399.5" y="353.541">claimCreated</text><polygon fill="#181818" points="256.5,383.5938,246.5,387.5938,256.5,391.5938,252.5,387.5938" style="stroke:#181818;stroke-width:1.0;"/><line style="stroke:#181818;stroke-width:1.0;stroke-dasharray:2.0,2.0;" x1="250.5" x2="376.5" y1="387.5938" y2="387.5938"/><text fill="#000000" font-family="sans-serif" font-size="13" lengthAdjust="spacing" textLength="82" x="262.5" y="382.8516">claimCreated</text><polygon fill="#181818" points="107.5,412.9043,97.5,416.9043,107.5,420.9043,103.5,416.9043" style="stroke:#181818;stroke-width:1.0;"/><line style="stroke:#181818;stroke-width:1.0;stroke-dasharray:2.0,2.0;" x1="101.5" x2="229.5" y1="416.9043" y2="416.9043"/><text fill="#000000" font-family="sans-serif" font-size="13" lengthAdjust="spacing" textLength="82" x="113.5" y="412.1621">claimCreated</text><line style="stroke:#000000;stroke-width:1.0;stroke-dasharray:2.0,2.0;" x1="30" x2="539" y1="425.9043" y2="425.9043"/><text fill="#000000" font-family="sans-serif" font-size="11" font-weight="bold" lengthAdjust="spacing" textLength="119" x="35" y="436.5391">[claim is not created]</text><polygon fill="#181818" points="388.5,457.1699,378.5,461.1699,388.5,465.1699,384.5,461.1699" style="stroke:#181818;stroke-width:1.0;"/><line style="stroke:#181818;stroke-width:1.0;stroke-dasharray:2.0,2.0;" x1="382.5" x2="505.5" y1="461.1699" y2="461.1699"/><text fill="#000000" font-family="sans-serif" font-size="13" lengthAdjust="spacing" textLength="105" x="394.5" y="456.4277">claimNotCreated</text><polygon fill="#181818" points="251.5,486.4805,241.5,490.4805,251.5,494.4805,247.5,490.4805" style="stroke:#181818;stroke-width:1.0;"/><line style="stroke:#181818;stroke-width:1.0;stroke-dasharray:2.0,2.0;" x1="245.5" x2="376.5" y1="490.4805" y2="490.4805"/><text fill="#000000" font-family="sans-serif" font-size="13" lengthAdjust="spacing" textLength="105" x="257.5" y="485.7383">claimNotCreated</text><polygon fill="#181818" points="107.5,515.791,97.5,519.791,107.5,523.791,103.5,519.791" style="stroke:#181818;stroke-width:1.0;"/><line style="stroke:#181818;stroke-width:1.0;stroke-dasharray:2.0,2.0;" x1="101.5" x2="224.5" y1="519.791" y2="519.791"/><text fill="#000000" font-family="sans-serif" font-size="13" lengthAdjust="spacing" textLength="105" x="113.5" y="515.0488">claimNotCreated</text><line style="stroke:#000000;stroke-width:1.0;stroke-dasharray:2.0,2.0;" x1="20" x2="549" y1="535.791" y2="535.791"/><text fill="#000000" font-family="sans-serif" font-size="11" font-weight="bold" lengthAdjust="spacing" textLength="96" x="25" y="546.4258">[claim is invalid]</text><line style="stroke:#181818;stroke-width:1.0;" x1="235.5" x2="282.5" y1="566.0566" y2="566.0566"/><line style="stroke:#181818;stroke-width:1.0;" x1="282.5" x2="282.5" y1="566.0566" y2="579.0566"/><line style="stroke:#181818;stroke-width:1.0;" x1="241.5" x2="282.5" y1="579.0566" y2="579.0566"/><polygon fill="#181818" points="251.5,575.0566,241.5,579.0566,251.5,583.0566,247.5,579.0566" style="stroke:#181818;stroke-width:1.0;"/><text fill="#000000" font-family="sans-serif" font-size="13" lengthAdjust="spacing" textLength="123" x="247.5" y="561.3145">notifyClaimInvalid()</text><polygon fill="#181818" points="102.5,609.3672,92.5,613.3672,102.5,617.3672,98.5,613.3672" style="stroke:#181818;stroke-width:1.0;"/><line style="stroke:#181818;stroke-width:1.0;stroke-dasharray:2.0,2.0;" x1="96.5" x2="229.5" y1="613.3672" y2="613.3672"/><text fill="#000000" font-family="sans-serif" font-size="13" lengthAdjust="spacing" textLength="76" x="108.5" y="608.625">claimInvalid</text><line style="stroke:#000000;stroke-width:1.0;stroke-dasharray:2.0,2.0;" x1="10" x2="559" y1="629.3672" y2="629.3672"/><text fill="#000000" font-family="sans-serif" font-size="11" font-weight="bold" lengthAdjust="spacing" textLength="96" x="15" y="640.002">[claim is invalid]</text><polygon fill="#181818" points="246.5,660.6328,236.5,664.6328,246.5,668.6328,242.5,664.6328" style="stroke:#181818;stroke-width:1.0;"/><line style="stroke:#181818;stroke-width:1.0;" x1="240.5" x2="376.5" y1="664.6328" y2="664.6328"/><text fill="#000000" font-family="sans-serif" font-size="13" lengthAdjust="spacing" textLength="123" x="252.5" y="659.8906">notifyClaimInvalid()</text><polygon fill="#181818" points="102.5,689.9434,92.5,693.9434,102.5,697.9434,98.5,693.9434" style="stroke:#181818;stroke-width:1.0;"/><line style="stroke:#181818;stroke-width:1.0;stroke-dasharray:2.0,2.0;" x1="96.5" x2="229.5" y1="693.9434" y2="693.9434"/><text fill="#000000" font-family="sans-serif" font-size="13" lengthAdjust="spacing" textLength="76" x="108.5" y="689.2012">claimInvalid</text><!--MD5=[ec414d363707e9afc27147dfe47da802]
@startuml create_claim

actor ScooterOwner as so
boundary Claims as cl
control ClaimsService as cs
entity Claim as c

so -> cl : createClaim()
activate so
activate cl
cl -> cl : validateClaim()
activate cl

alt claim is valid
cl -> cs : createClaim()
activate cs

cs -> cs : validateClaim()
activate cl
alt claim is valid
cs -> c : createClaim()
activate c
alt claim is created
c - -> cs : claimCreated
deactivate c
cs - -> cl : claimCreated
deactivate cs
cl - -> so : claimCreated
deactivate cl
else claim is not created
c - -> cs : claimNotCreated
deactivate c
cs - -> cl : claimNotCreated
deactivate cs
cl - -> so : claimNotCreated
deactivate cl
end

else claim is invalid
cl -> cl : notifyClaimInvalid()
activate cl
cl - -> so : claimInvalid
deactivate cl
deactivate cl
deactivate so

end
else claim is invalid
activate cs
cs -> cl : notifyClaimInvalid()
activate cl
cl - -> so : claimInvalid
deactivate cs
deactivate cl
end
deactivate cl
deactivate so


@enduml

PlantUML version 1.2022.7(Mon Aug 22 18:01:30 CET 2022)
(GPL source distribution)
Java Runtime: Java(TM) SE Runtime Environment
JVM: Java HotSpot(TM) 64-Bit Server VM
Default Encoding: UTF-8
Language: fr
Country: FR
--></g></svg>