<?xml version="1.0" encoding="UTF-8" standalone="no"?><svg xmlns="http://www.w3.org/2000/svg" xmlns:xlink="http://www.w3.org/1999/xlink" contentStyleType="text/css" height="402px" preserveAspectRatio="none" style="width:491px;height:402px;background:#FFFFFF;" version="1.1" viewBox="0 0 491 402" width="491px" zoomAndPan="magnify"><defs/><g><rect fill="#FFFFFF" height="183.1094" style="stroke:#181818;stroke-width:1.0;" width="10" x="43.5" y="110.2188"/><rect fill="#FFFFFF" height="121.4063" style="stroke:#181818;stroke-width:1.0;" width="10" x="211.5" y="132.5703"/><rect fill="#FFFFFF" height="60.7031" style="stroke:#181818;stroke-width:1.0;" width="10" x="339.5" y="162.9219"/><line style="stroke:#181818;stroke-width:0.5;stroke-dasharray:5.0,5.0;" x1="48" x2="48" y1="100.2188" y2="302.3281"/><line style="stroke:#181818;stroke-width:0.5;stroke-dasharray:5.0,5.0;" x1="216" x2="216" y1="100.2188" y2="302.3281"/><line style="stroke:#181818;stroke-width:0.5;stroke-dasharray:5.0,5.0;" x1="344.5" x2="344.5" y1="100.2188" y2="302.3281"/><line style="stroke:#181818;stroke-width:0.5;stroke-dasharray:5.0,5.0;" x1="472" x2="472" y1="100.2188" y2="302.3281"/><text fill="#000000" font-family="sans-serif" font-size="14" lengthAdjust="spacing" textLength="81" x="5" y="79.5332">Super Admin</text><text fill="#000000" font-family="sans-serif" font-size="14" lengthAdjust="spacing" textLength="39" x="26" y="97.1426">Admin</text><ellipse cx="48.5" cy="13.5" fill="#E2E2F0" rx="8" ry="8" style="stroke:#181818;stroke-width:0.5;"/><path d="M48.5,21.5 L48.5,48.5 M35.5,29.5 L61.5,29.5 M48.5,48.5 L35.5,63.5 M48.5,48.5 L61.5,63.5 " fill="none" style="stroke:#181818;stroke-width:0.5;"/><text fill="#000000" font-family="sans-serif" font-size="14" lengthAdjust="spacing" textLength="81" x="5" y="315.8613">Super Admin</text><text fill="#000000" font-family="sans-serif" font-size="14" lengthAdjust="spacing" textLength="39" x="26" y="333.4707">Admin</text><ellipse cx="48.5" cy="345.0469" fill="#E2E2F0" rx="8" ry="8" style="stroke:#181818;stroke-width:0.5;"/><path d="M48.5,353.0469 L48.5,380.0469 M35.5,361.0469 L61.5,361.0469 M48.5,380.0469 L35.5,395.0469 M48.5,380.0469 L61.5,395.0469 " fill="none" style="stroke:#181818;stroke-width:0.5;"/><text fill="#000000" font-family="sans-serif" font-size="14" lengthAdjust="spacing" textLength="87" x="170" y="97.1426">manageUsers</text><path d="M196,54.6094 L196,78.6094 M196,66.6094 L213,66.6094 " fill="none" style="stroke:#181818;stroke-width:0.5;"/><ellipse cx="225" cy="66.6094" fill="#E2E2F0" rx="12" ry="12" style="stroke:#181818;stroke-width:0.5;"/><text fill="#000000" font-family="sans-serif" font-size="14" lengthAdjust="spacing" textLength="87" x="170" y="315.8613">manageUsers</text><path d="M196,322.9375 L196,346.9375 M196,334.9375 L213,334.9375 " fill="none" style="stroke:#181818;stroke-width:0.5;"/><ellipse cx="225" cy="334.9375" fill="#E2E2F0" rx="12" ry="12" style="stroke:#181818;stroke-width:0.5;"/><text fill="#000000" font-family="sans-serif" font-size="14" lengthAdjust="spacing" textLength="90" x="296.5" y="97.1426">userController</text><ellipse cx="344.5" cy="66.6094" fill="#E2E2F0" rx="12" ry="12" style="stroke:#181818;stroke-width:0.5;"/><polygon fill="#181818" points="340.5,54.6094,346.5,49.6094,344.5,54.6094,346.5,59.6094,340.5,54.6094" style="stroke:#181818;stroke-width:1.0;"/><text fill="#000000" font-family="sans-serif" font-size="14" lengthAdjust="spacing" textLength="90" x="296.5" y="315.8613">userController</text><ellipse cx="344.5" cy="334.9375" fill="#E2E2F0" rx="12" ry="12" style="stroke:#181818;stroke-width:0.5;"/><polygon fill="#181818" points="340.5,322.9375,346.5,317.9375,344.5,322.9375,346.5,327.9375,340.5,322.9375" style="stroke:#181818;stroke-width:1.0;"/><text fill="#000000" font-family="sans-serif" font-size="14" lengthAdjust="spacing" textLength="29" x="455" y="97.1426">User</text><ellipse cx="472.5" cy="66.6094" fill="#E2E2F0" rx="12" ry="12" style="stroke:#181818;stroke-width:0.5;"/><line style="stroke:#181818;stroke-width:0.5;" x1="460.5" x2="484.5" y1="80.6094" y2="80.6094"/><text fill="#000000" font-family="sans-serif" font-size="14" lengthAdjust="spacing" textLength="29" x="455" y="315.8613">User</text><ellipse cx="472.5" cy="334.9375" fill="#E2E2F0" rx="12" ry="12" style="stroke:#181818;stroke-width:0.5;"/><line style="stroke:#181818;stroke-width:0.5;" x1="460.5" x2="484.5" y1="348.9375" y2="348.9375"/><rect fill="#FFFFFF" height="183.1094" style="stroke:#181818;stroke-width:1.0;" width="10" x="43.5" y="110.2188"/><rect fill="#FFFFFF" height="121.4063" style="stroke:#181818;stroke-width:1.0;" width="10" x="211.5" y="132.5703"/><rect fill="#FFFFFF" height="60.7031" style="stroke:#181818;stroke-width:1.0;" width="10" x="339.5" y="162.9219"/><polygon fill="#181818" points="199.5,128.5703,209.5,132.5703,199.5,136.5703,203.5,132.5703" style="stroke:#181818;stroke-width:1.0;"/><line style="stroke:#181818;stroke-width:1.0;" x1="53.5" x2="205.5" y1="132.5703" y2="132.5703"/><text fill="#000000" font-family="sans-serif" font-size="13" lengthAdjust="spacing" textLength="139" x="60.5" y="127.7139">clickAcceptButton(user)</text><polygon fill="#181818" points="327.5,158.9219,337.5,162.9219,327.5,166.9219,331.5,162.9219" style="stroke:#181818;stroke-width:1.0;"/><line style="stroke:#181818;stroke-width:1.0;" x1="221.5" x2="333.5" y1="162.9219" y2="162.9219"/><text fill="#000000" font-family="sans-serif" font-size="13" lengthAdjust="spacing" textLength="99" x="228.5" y="158.0654">acceptUser(user)</text><polygon fill="#181818" points="460.5,189.2734,470.5,193.2734,460.5,197.2734,464.5,193.2734" style="stroke:#181818;stroke-width:1.0;"/><line style="stroke:#181818;stroke-width:1.0;" x1="349.5" x2="466.5" y1="193.2734" y2="193.2734"/><text fill="#000000" font-family="sans-serif" font-size="13" lengthAdjust="spacing" textLength="99" x="356.5" y="188.417">acceptUser(user)</text><polygon fill="#181818" points="355.5,219.625,345.5,223.625,355.5,227.625,351.5,223.625" style="stroke:#181818;stroke-width:1.0;"/><line style="stroke:#181818;stroke-width:1.0;stroke-dasharray:2.0,2.0;" x1="349.5" x2="471.5" y1="223.625" y2="223.625"/><text fill="#000000" font-family="sans-serif" font-size="13" lengthAdjust="spacing" textLength="80" x="361.5" y="218.7686">userAccepted</text><polygon fill="#181818" points="227.5,249.9766,217.5,253.9766,227.5,257.9766,223.5,253.9766" style="stroke:#181818;stroke-width:1.0;"/><line style="stroke:#181818;stroke-width:1.0;stroke-dasharray:2.0,2.0;" x1="221.5" x2="343.5" y1="253.9766" y2="253.9766"/><text fill="#000000" font-family="sans-serif" font-size="13" lengthAdjust="spacing" textLength="80" x="233.5" y="249.1201">userAccepted</text><polygon fill="#181818" points="64.5,280.3281,54.5,284.3281,64.5,288.3281,60.5,284.3281" style="stroke:#181818;stroke-width:1.0;"/><line style="stroke:#181818;stroke-width:1.0;stroke-dasharray:2.0,2.0;" x1="58.5" x2="215.5" y1="284.3281" y2="284.3281"/><text fill="#000000" font-family="sans-serif" font-size="13" lengthAdjust="spacing" textLength="80" x="70.5" y="279.4717">userAccepted</text><!--MD5=[6dba8173318d9528845a884776d33283]
@startuml accept_user_role_sequence_diagram

actor "Super Admin\nAdmin" as u
boundary manageUsers as v
control userController as c
entity User as m
activate u
u -> v : clickAcceptButton(user)

activate v
v -> c :acceptUser(user)
activate c
c -> m :acceptUser(user)
deactivate m
m - -> c: userAccepted
deactivate c
c - -> v: userAccepted
deactivate v
v - -> u: userAccepted

@enduml

PlantUML version 1.2022.7(Mon Aug 22 19:01:30 CEST 2022)
(GPL source distribution)
Java Runtime: Java(TM) SE Runtime Environment
JVM: Java HotSpot(TM) 64-Bit Server VM
Default Encoding: Cp1252
Language: fr
Country: FR
--></g></svg>