<?xml version="1.0" encoding="UTF-8" standalone="no"?><svg xmlns="http://www.w3.org/2000/svg" xmlns:xlink="http://www.w3.org/1999/xlink" contentStyleType="text/css" height="668px" preserveAspectRatio="none" style="width:557px;height:668px;background:#FFFFFF;" version="1.1" viewBox="0 0 557 668" width="557px" zoomAndPan="magnify"><defs/><g><rect fill="#FFFFFF" height="378.7031" style="stroke:#181818;stroke-width:1.0;" width="10" x="68" y="145.4375"/><rect fill="#FFFFFF" height="36.3516" style="stroke:#181818;stroke-width:1.0;" width="10" x="225" y="198.1406"/><rect fill="#FFFFFF" height="151.7578" style="stroke:#181818;stroke-width:1.0;" width="10" x="225" y="279.8438"/><rect fill="#FFFFFF" height="60.7031" style="stroke:#181818;stroke-width:1.0;" width="10" x="393" y="340.5469"/><rect fill="none" height="216.2969" style="stroke:#000000;stroke-width:1.5;" width="540.5" x="10" y="299.8438"/><line style="stroke:#181818;stroke-width:0.5;stroke-dasharray:5.0,5.0;" x1="73" x2="73" y1="135.4375" y2="533.1406"/><line style="stroke:#181818;stroke-width:0.5;stroke-dasharray:5.0,5.0;" x1="230" x2="230" y1="135.4375" y2="533.1406"/><line style="stroke:#181818;stroke-width:0.5;stroke-dasharray:5.0,5.0;" x1="397.5" x2="397.5" y1="135.4375" y2="533.1406"/><line style="stroke:#181818;stroke-width:0.5;stroke-dasharray:5.0,5.0;" x1="522.5" x2="522.5" y1="135.4375" y2="533.1406"/><text fill="#000000" font-family="sans-serif" font-size="14" lengthAdjust="spacing" textLength="39" x="50.5" y="79.5332">Admin</text><text fill="#000000" font-family="sans-serif" font-size="14" lengthAdjust="spacing" textLength="87" x="26.5" y="97.1426">SAV Manager</text><text fill="#000000" font-family="sans-serif" font-size="14" lengthAdjust="spacing" textLength="100" x="20" y="114.752">SAV Technician</text><text fill="#000000" font-family="sans-serif" font-size="14" lengthAdjust="spacing" textLength="94" x="23" y="132.3613">Scooter Owner</text><ellipse cx="73" cy="13.5" fill="#E2E2F0" rx="8" ry="8" style="stroke:#181818;stroke-width:0.5;"/><path d="M73,21.5 L73,48.5 M60,29.5 L86,29.5 M73,48.5 L60,63.5 M73,48.5 L86,63.5 " fill="none" style="stroke:#181818;stroke-width:0.5;"/><text fill="#000000" font-family="sans-serif" font-size="14" lengthAdjust="spacing" textLength="39" x="50.5" y="546.6738">Admin</text><text fill="#000000" font-family="sans-serif" font-size="14" lengthAdjust="spacing" textLength="87" x="26.5" y="564.2832">SAV Manager</text><text fill="#000000" font-family="sans-serif" font-size="14" lengthAdjust="spacing" textLength="100" x="20" y="581.8926">SAV Technician</text><text fill="#000000" font-family="sans-serif" font-size="14" lengthAdjust="spacing" textLength="94" x="23" y="599.502">Scooter Owner</text><ellipse cx="73" cy="611.0781" fill="#E2E2F0" rx="8" ry="8" style="stroke:#181818;stroke-width:0.5;"/><path d="M73,619.0781 L73,646.0781 M60,627.0781 L86,627.0781 M73,646.0781 L60,661.0781 M73,646.0781 L86,661.0781 " fill="none" style="stroke:#181818;stroke-width:0.5;"/><text fill="#000000" font-family="sans-serif" font-size="14" lengthAdjust="spacing" textLength="48" x="203" y="132.3613">register</text><path d="M209.5,89.8281 L209.5,113.8281 M209.5,101.8281 L226.5,101.8281 " fill="none" style="stroke:#181818;stroke-width:0.5;"/><ellipse cx="238.5" cy="101.8281" fill="#E2E2F0" rx="12" ry="12" style="stroke:#181818;stroke-width:0.5;"/><text fill="#000000" font-family="sans-serif" font-size="14" lengthAdjust="spacing" textLength="48" x="203" y="546.6738">register</text><path d="M209.5,553.75 L209.5,577.75 M209.5,565.75 L226.5,565.75 " fill="none" style="stroke:#181818;stroke-width:0.5;"/><ellipse cx="238.5" cy="565.75" fill="#E2E2F0" rx="12" ry="12" style="stroke:#181818;stroke-width:0.5;"/><text fill="#000000" font-family="sans-serif" font-size="14" lengthAdjust="spacing" textLength="119" x="335.5" y="132.3613">JWTAuthController</text><ellipse cx="398" cy="101.8281" fill="#E2E2F0" rx="12" ry="12" style="stroke:#181818;stroke-width:0.5;"/><polygon fill="#181818" points="394,89.8281,400,84.8281,398,89.8281,400,94.8281,394,89.8281" style="stroke:#181818;stroke-width:1.0;"/><text fill="#000000" font-family="sans-serif" font-size="14" lengthAdjust="spacing" textLength="119" x="335.5" y="546.6738">JWTAuthController</text><ellipse cx="398" cy="565.75" fill="#E2E2F0" rx="12" ry="12" style="stroke:#181818;stroke-width:0.5;"/><polygon fill="#181818" points="394,553.75,400,548.75,398,553.75,400,558.75,394,553.75" style="stroke:#181818;stroke-width:1.0;"/><text fill="#000000" font-family="sans-serif" font-size="14" lengthAdjust="spacing" textLength="29" x="505.5" y="132.3613">User</text><ellipse cx="523" cy="101.8281" fill="#E2E2F0" rx="12" ry="12" style="stroke:#181818;stroke-width:0.5;"/><line style="stroke:#181818;stroke-width:0.5;" x1="511" x2="535" y1="115.8281" y2="115.8281"/><text fill="#000000" font-family="sans-serif" font-size="14" lengthAdjust="spacing" textLength="29" x="505.5" y="546.6738">User</text><ellipse cx="523" cy="565.75" fill="#E2E2F0" rx="12" ry="12" style="stroke:#181818;stroke-width:0.5;"/><line style="stroke:#181818;stroke-width:0.5;" x1="511" x2="535" y1="579.75" y2="579.75"/><rect fill="#FFFFFF" height="378.7031" style="stroke:#181818;stroke-width:1.0;" width="10" x="68" y="145.4375"/><rect fill="#FFFFFF" height="36.3516" style="stroke:#181818;stroke-width:1.0;" width="10" x="225" y="198.1406"/><rect fill="#FFFFFF" height="151.7578" style="stroke:#181818;stroke-width:1.0;" width="10" x="225" y="279.8438"/><rect fill="#FFFFFF" height="60.7031" style="stroke:#181818;stroke-width:1.0;" width="10" x="393" y="340.5469"/><polygon fill="#181818" points="218,163.7891,228,167.7891,218,171.7891,222,167.7891" style="stroke:#181818;stroke-width:1.0;"/><line style="stroke:#181818;stroke-width:1.0;" x1="78" x2="224" y1="167.7891" y2="167.7891"/><text fill="#000000" font-family="sans-serif" font-size="13" lengthAdjust="spacing" textLength="128" x="85" y="162.9326">FillRegisterForm(user)</text><polygon fill="#181818" points="89,194.1406,79,198.1406,89,202.1406,85,198.1406" style="stroke:#181818;stroke-width:1.0;"/><line style="stroke:#181818;stroke-width:1.0;stroke-dasharray:2.0,2.0;" x1="83" x2="224" y1="198.1406" y2="198.1406"/><text fill="#000000" font-family="sans-serif" font-size="13" lengthAdjust="spacing" textLength="61" x="95" y="193.2842">FormFilled</text><line style="stroke:#181818;stroke-width:1.0;" x1="235" x2="277" y1="233.4922" y2="233.4922"/><line style="stroke:#181818;stroke-width:1.0;" x1="277" x2="277" y1="233.4922" y2="246.4922"/><line style="stroke:#181818;stroke-width:1.0;" x1="230" x2="277" y1="246.4922" y2="246.4922"/><polygon fill="#181818" points="240,242.4922,230,246.4922,240,250.4922,236,246.4922" style="stroke:#181818;stroke-width:1.0;"/><text fill="#000000" font-family="sans-serif" font-size="13" lengthAdjust="spacing" textLength="144" x="242" y="228.6357">VerifyRegisterForm(user)</text><line style="stroke:#181818;stroke-width:1.0;stroke-dasharray:2.0,2.0;" x1="230" x2="277" y1="266.8438" y2="266.8438"/><line style="stroke:#181818;stroke-width:1.0;stroke-dasharray:2.0,2.0;" x1="277" x2="277" y1="266.8438" y2="279.8438"/><line style="stroke:#181818;stroke-width:1.0;stroke-dasharray:2.0,2.0;" x1="236" x2="277" y1="279.8438" y2="279.8438"/><polygon fill="#181818" points="246,275.8438,236,279.8438,246,283.8438,242,279.8438" style="stroke:#181818;stroke-width:1.0;"/><text fill="#000000" font-family="sans-serif" font-size="13" lengthAdjust="spacing" textLength="73" x="242" y="261.9873">FormVerified</text><path d="M10,299.8438 L71,299.8438 L71,308.1953 L61,318.1953 L10,318.1953 L10,299.8438 " fill="#EEEEEE" style="stroke:#000000;stroke-width:1.5;"/><rect fill="none" height="216.2969" style="stroke:#000000;stroke-width:1.5;" width="540.5" x="10" y="299.8438"/><text fill="#000000" font-family="sans-serif" font-size="13" font-weight="bold" lengthAdjust="spacing" textLength="16" x="25" y="314.3389">alt</text><text fill="#000000" font-family="sans-serif" font-size="11" font-weight="bold" lengthAdjust="spacing" textLength="120" x="86" y="313.2627">[FormVerified is true]</text><polygon fill="#181818" points="381,336.5469,391,340.5469,381,344.5469,385,340.5469" style="stroke:#181818;stroke-width:1.0;"/><line style="stroke:#181818;stroke-width:1.0;" x1="235" x2="387" y1="340.5469" y2="340.5469"/><text fill="#000000" font-family="sans-serif" font-size="13" lengthAdjust="spacing" textLength="76" x="242" y="335.6904">register(user)</text><polygon fill="#181818" points="511,366.8984,521,370.8984,511,374.8984,515,370.8984" style="stroke:#181818;stroke-width:1.0;"/><line style="stroke:#181818;stroke-width:1.0;" x1="403" x2="517" y1="370.8984" y2="370.8984"/><text fill="#000000" font-family="sans-serif" font-size="13" lengthAdjust="spacing" textLength="96" x="410" y="366.042">createUser(user)</text><polygon fill="#181818" points="409,397.25,399,401.25,409,405.25,405,401.25" style="stroke:#181818;stroke-width:1.0;"/><line style="stroke:#181818;stroke-width:1.0;stroke-dasharray:2.0,2.0;" x1="403" x2="522" y1="401.25" y2="401.25"/><text fill="#000000" font-family="sans-serif" font-size="13" lengthAdjust="spacing" textLength="72" x="415" y="396.3936">user created</text><polygon fill="#181818" points="241,427.6016,231,431.6016,241,435.6016,237,431.6016" style="stroke:#181818;stroke-width:1.0;"/><line style="stroke:#181818;stroke-width:1.0;stroke-dasharray:2.0,2.0;" x1="235" x2="397" y1="431.6016" y2="431.6016"/><text fill="#000000" font-family="sans-serif" font-size="13" lengthAdjust="spacing" textLength="72" x="247" y="426.7451">user created</text><polygon fill="#181818" points="89,457.9531,79,461.9531,89,465.9531,85,461.9531" style="stroke:#181818;stroke-width:1.0;"/><line style="stroke:#181818;stroke-width:1.0;stroke-dasharray:2.0,2.0;" x1="83" x2="229" y1="461.9531" y2="461.9531"/><text fill="#000000" font-family="sans-serif" font-size="13" lengthAdjust="spacing" textLength="72" x="95" y="457.0967">user created</text><line style="stroke:#000000;stroke-width:1.0;stroke-dasharray:2.0,2.0;" x1="10" x2="550.5" y1="470.9531" y2="470.9531"/><text fill="#000000" font-family="sans-serif" font-size="11" font-weight="bold" lengthAdjust="spacing" textLength="124" x="15" y="482.3721">[FormVerified is false]</text><polygon fill="#181818" points="89,504.1406,79,508.1406,89,512.1406,85,508.1406" style="stroke:#181818;stroke-width:1.0;"/><line style="stroke:#181818;stroke-width:1.0;stroke-dasharray:2.0,2.0;" x1="83" x2="229" y1="508.1406" y2="508.1406"/><text fill="#000000" font-family="sans-serif" font-size="13" lengthAdjust="spacing" textLength="111" x="95" y="503.2842">showErrorMessage</text><!--MD5=[2db3d5a5988d7d03d2fe47eae0340be9]
@startuml register_sequence_diagram

actor "Admin\nSAV Manager\nSAV Technician\nScooter Owner" as u
boundary register as v
control JWTAuthController as c
entity User as m
activate u
u -> v : FillRegisterForm(user)
deactivate v
v - -> u : FormFilled
activate v
v -> v :VerifyRegisterForm(user)
deactivate v
v - -> v : FormVerified

alt FormVerified is true
activate v
v -> c : register(user)

activate c
c -> m : createUser(user)
deactivate m
m - -> c: user created
deactivate c
c - -> v: user created
deactivate v
v - -> u: user created

else FormVerified is false
v - -> u : showErrorMessage
deactivate c



end


@enduml

PlantUML version 1.2022.7(Mon Aug 22 19:01:30 CEST 2022)
(GPL source distribution)
Java Runtime: Java(TM) SE Runtime Environment
JVM: Java HotSpot(TM) 64-Bit Server VM
Default Encoding: Cp1252
Language: fr
Country: FR
--></g></svg>