<?xml version="1.0" encoding="UTF-8" standalone="no"?><svg xmlns="http://www.w3.org/2000/svg" xmlns:xlink="http://www.w3.org/1999/xlink" contentStyleType="text/css" height="691px" preserveAspectRatio="none" style="width:813px;height:691px;background:#FFFFFF;" version="1.1" viewBox="0 0 813 691" width="813px" zoomAndPan="magnify"><defs/><g><!--MD5=[e59cf999063292dce8d6ea34dd10a338]
class user--><g id="elem_user"><rect codeLine="1" fill="#F1F1F1" height="196.3945" id="user" rx="2.5" ry="2.5" style="stroke:#181818;stroke-width:0.5;" width="173" x="154" y="305"/><ellipse cx="221.25" cy="321" fill="#ADD1B2" rx="11" ry="11" style="stroke:#181818;stroke-width:1.0;"/><path d="M223.7231,327.1431 Q223.1421,327.4419 222.5029,327.5913 Q221.8638,327.7407 221.1582,327.7407 Q218.6514,327.7407 217.3315,326.0889 Q216.0117,324.437 216.0117,321.3159 Q216.0117,318.1865 217.3315,316.5347 Q218.6514,314.8828 221.1582,314.8828 Q221.8638,314.8828 222.5112,315.0322 Q223.1587,315.1816 223.7231,315.4805 L223.7231,318.2031 Q223.0923,317.6221 222.4988,317.3523 Q221.9053,317.0825 221.2744,317.0825 Q219.9297,317.0825 219.2449,318.1492 Q218.5601,319.2158 218.5601,321.3159 Q218.5601,323.4077 219.2449,324.4744 Q219.9297,325.541 221.2744,325.541 Q221.9053,325.541 222.4988,325.2712 Q223.0923,325.0015 223.7231,324.4204 Z " fill="#000000"/><text fill="#000000" font-family="sans-serif" font-size="14" lengthAdjust="spacing" textLength="30" x="241.75" y="326.291">user</text><line style="stroke:#181818;stroke-width:0.5;" x1="155" x2="326" y1="337" y2="337"/><text fill="#000000" font-family="sans-serif" font-size="14" lengthAdjust="spacing" textLength="35" x="160" y="354.5352">Int id</text><text fill="#000000" font-family="sans-serif" font-size="14" lengthAdjust="spacing" textLength="83" x="160" y="371.0234">String name</text><text fill="#000000" font-family="sans-serif" font-size="14" lengthAdjust="spacing" textLength="111" x="160" y="387.5117">String password</text><text fill="#000000" font-family="sans-serif" font-size="14" lengthAdjust="spacing" textLength="113" x="160" y="404">String username</text><text fill="#000000" font-family="sans-serif" font-size="14" lengthAdjust="spacing" textLength="82" x="160" y="420.4883">String email</text><text fill="#000000" font-family="sans-serif" font-size="14" lengthAdjust="spacing" textLength="89" x="160" y="436.9766">Bool enabled</text><text fill="#000000" font-family="sans-serif" font-size="14" lengthAdjust="spacing" textLength="161" x="160" y="453.4648">String verification_code</text><line style="stroke:#181818;stroke-width:0.5;" x1="155" x2="326" y1="460.418" y2="460.418"/><text fill="#000000" font-family="sans-serif" font-size="14" lengthAdjust="spacing" textLength="85" x="160" y="477.9531">JSON Login()</text><text fill="#000000" font-family="sans-serif" font-size="14" lengthAdjust="spacing" textLength="100" x="160" y="494.4414">Bool Register()</text></g><!--MD5=[230c8b93044a8b32754c79e4598c3632]
class role--><g id="elem_role"><rect codeLine="13" fill="#F1F1F1" height="80.9766" id="role" rx="2.5" ry="2.5" style="stroke:#181818;stroke-width:0.5;" width="95" x="362" y="362.5"/><ellipse cx="393.2" cy="378.5" fill="#ADD1B2" rx="11" ry="11" style="stroke:#181818;stroke-width:1.0;"/><path d="M395.6731,384.6431 Q395.0921,384.9419 394.4529,385.0913 Q393.8138,385.2407 393.1082,385.2407 Q390.6014,385.2407 389.2815,383.5889 Q387.9617,381.937 387.9617,378.8159 Q387.9617,375.6865 389.2815,374.0347 Q390.6014,372.3828 393.1082,372.3828 Q393.8138,372.3828 394.4612,372.5322 Q395.1087,372.6816 395.6731,372.9805 L395.6731,375.7031 Q395.0423,375.1221 394.4488,374.8523 Q393.8553,374.5825 393.2244,374.5825 Q391.8797,374.5825 391.1949,375.6492 Q390.5101,376.7158 390.5101,378.8159 Q390.5101,380.9077 391.1949,381.9744 Q391.8797,383.041 393.2244,383.041 Q393.8553,383.041 394.4488,382.7712 Q395.0423,382.5015 395.6731,381.9204 Z " fill="#000000"/><text fill="#000000" font-family="sans-serif" font-size="14" lengthAdjust="spacing" textLength="27" x="410.8" y="383.791">role</text><line style="stroke:#181818;stroke-width:0.5;" x1="363" x2="456" y1="394.5" y2="394.5"/><text fill="#000000" font-family="sans-serif" font-size="14" lengthAdjust="spacing" textLength="35" x="368" y="412.0352">Int id</text><text fill="#000000" font-family="sans-serif" font-size="14" lengthAdjust="spacing" textLength="83" x="368" y="428.5234">String name</text><line style="stroke:#181818;stroke-width:0.5;" x1="363" x2="456" y1="435.4766" y2="435.4766"/></g><!--MD5=[bb78403d462536eaecf0d31e32db3464]
class SuperAdmin--><g id="elem_SuperAdmin"><rect codeLine="21" fill="#F1F1F1" height="48" id="SuperAdmin" rx="2.5" ry="2.5" style="stroke:#181818;stroke-width:0.5;" width="117" x="7" y="636"/><ellipse cx="22" cy="652" fill="#ADD1B2" rx="11" ry="11" style="stroke:#181818;stroke-width:1.0;"/><path d="M24.4731,658.1431 Q23.8921,658.4419 23.2529,658.5913 Q22.6138,658.7407 21.9082,658.7407 Q19.4014,658.7407 18.0815,657.0889 Q16.7617,655.437 16.7617,652.3159 Q16.7617,649.1865 18.0815,647.5347 Q19.4014,645.8828 21.9082,645.8828 Q22.6138,645.8828 23.2612,646.0322 Q23.9087,646.1816 24.4731,646.4805 L24.4731,649.2031 Q23.8423,648.6221 23.2488,648.3523 Q22.6553,648.0825 22.0244,648.0825 Q20.6797,648.0825 19.9949,649.1492 Q19.3101,650.2158 19.3101,652.3159 Q19.3101,654.4077 19.9949,655.4744 Q20.6797,656.541 22.0244,656.541 Q22.6553,656.541 23.2488,656.2712 Q23.8423,656.0015 24.4731,655.4204 Z " fill="#000000"/><text fill="#000000" font-family="sans-serif" font-size="14" lengthAdjust="spacing" textLength="85" x="36" y="657.291">SuperAdmin</text><line style="stroke:#181818;stroke-width:0.5;" x1="8" x2="123" y1="668" y2="668"/><line style="stroke:#181818;stroke-width:0.5;" x1="8" x2="123" y1="676" y2="676"/></g><!--MD5=[db6d18d8099558415abc41d00477ab92]
class Admin--><g id="elem_Admin"><rect codeLine="22" fill="#F1F1F1" height="48" id="Admin" rx="2.5" ry="2.5" style="stroke:#181818;stroke-width:0.5;" width="77" x="159" y="636"/><ellipse cx="174" cy="652" fill="#ADD1B2" rx="11" ry="11" style="stroke:#181818;stroke-width:1.0;"/><path d="M176.4731,658.1431 Q175.8921,658.4419 175.2529,658.5913 Q174.6138,658.7407 173.9082,658.7407 Q171.4014,658.7407 170.0815,657.0889 Q168.7617,655.437 168.7617,652.3159 Q168.7617,649.1865 170.0815,647.5347 Q171.4014,645.8828 173.9082,645.8828 Q174.6138,645.8828 175.2612,646.0322 Q175.9087,646.1816 176.4731,646.4805 L176.4731,649.2031 Q175.8423,648.6221 175.2488,648.3523 Q174.6553,648.0825 174.0244,648.0825 Q172.6797,648.0825 171.9949,649.1492 Q171.3101,650.2158 171.3101,652.3159 Q171.3101,654.4077 171.9949,655.4744 Q172.6797,656.541 174.0244,656.541 Q174.6553,656.541 175.2488,656.2712 Q175.8423,656.0015 176.4731,655.4204 Z " fill="#000000"/><text fill="#000000" font-family="sans-serif" font-size="14" lengthAdjust="spacing" textLength="45" x="188" y="657.291">Admin</text><line style="stroke:#181818;stroke-width:0.5;" x1="160" x2="235" y1="668" y2="668"/><line style="stroke:#181818;stroke-width:0.5;" x1="160" x2="235" y1="676" y2="676"/></g><!--MD5=[1905ef06d686617e564499c57ef4e8b7]
class SavManager--><g id="elem_SavManager"><rect codeLine="23" fill="#F1F1F1" height="48" id="SavManager" rx="2.5" ry="2.5" style="stroke:#181818;stroke-width:0.5;" width="115" x="271" y="636"/><ellipse cx="286" cy="652" fill="#ADD1B2" rx="11" ry="11" style="stroke:#181818;stroke-width:1.0;"/><path d="M288.4731,658.1431 Q287.8921,658.4419 287.2529,658.5913 Q286.6138,658.7407 285.9082,658.7407 Q283.4014,658.7407 282.0815,657.0889 Q280.7617,655.437 280.7617,652.3159 Q280.7617,649.1865 282.0815,647.5347 Q283.4014,645.8828 285.9082,645.8828 Q286.6138,645.8828 287.2612,646.0322 Q287.9087,646.1816 288.4731,646.4805 L288.4731,649.2031 Q287.8423,648.6221 287.2488,648.3523 Q286.6553,648.0825 286.0244,648.0825 Q284.6797,648.0825 283.9949,649.1492 Q283.3101,650.2158 283.3101,652.3159 Q283.3101,654.4077 283.9949,655.4744 Q284.6797,656.541 286.0244,656.541 Q286.6553,656.541 287.2488,656.2712 Q287.8423,656.0015 288.4731,655.4204 Z " fill="#000000"/><text fill="#000000" font-family="sans-serif" font-size="14" lengthAdjust="spacing" textLength="83" x="300" y="657.291">SavManager</text><line style="stroke:#181818;stroke-width:0.5;" x1="272" x2="385" y1="668" y2="668"/><line style="stroke:#181818;stroke-width:0.5;" x1="272" x2="385" y1="676" y2="676"/></g><!--MD5=[a5e14c59d2698870600f9050f298ef93]
class SavTechnicien--><g id="elem_SavTechnicien"><rect codeLine="24" fill="#F1F1F1" height="48" id="SavTechnicien" rx="2.5" ry="2.5" style="stroke:#181818;stroke-width:0.5;" width="129" x="421" y="636"/><ellipse cx="436" cy="652" fill="#ADD1B2" rx="11" ry="11" style="stroke:#181818;stroke-width:1.0;"/><path d="M438.4731,658.1431 Q437.8921,658.4419 437.2529,658.5913 Q436.6138,658.7407 435.9082,658.7407 Q433.4014,658.7407 432.0815,657.0889 Q430.7617,655.437 430.7617,652.3159 Q430.7617,649.1865 432.0815,647.5347 Q433.4014,645.8828 435.9082,645.8828 Q436.6138,645.8828 437.2612,646.0322 Q437.9087,646.1816 438.4731,646.4805 L438.4731,649.2031 Q437.8423,648.6221 437.2488,648.3523 Q436.6553,648.0825 436.0244,648.0825 Q434.6797,648.0825 433.9949,649.1492 Q433.3101,650.2158 433.3101,652.3159 Q433.3101,654.4077 433.9949,655.4744 Q434.6797,656.541 436.0244,656.541 Q436.6553,656.541 437.2488,656.2712 Q437.8423,656.0015 438.4731,655.4204 Z " fill="#000000"/><text fill="#000000" font-family="sans-serif" font-size="14" lengthAdjust="spacing" textLength="97" x="450" y="657.291">SavTechnicien</text><line style="stroke:#181818;stroke-width:0.5;" x1="422" x2="549" y1="668" y2="668"/><line style="stroke:#181818;stroke-width:0.5;" x1="422" x2="549" y1="676" y2="676"/></g><!--MD5=[0b260462ad83c90fe514074d58d9061f]
class ScooterOwner--><g id="elem_ScooterOwner"><rect codeLine="25" fill="#F1F1F1" height="48" id="ScooterOwner" rx="2.5" ry="2.5" style="stroke:#181818;stroke-width:0.5;" width="129" x="585" y="636"/><ellipse cx="600" cy="652" fill="#ADD1B2" rx="11" ry="11" style="stroke:#181818;stroke-width:1.0;"/><path d="M602.4731,658.1431 Q601.8921,658.4419 601.2529,658.5913 Q600.6138,658.7407 599.9082,658.7407 Q597.4014,658.7407 596.0815,657.0889 Q594.7617,655.437 594.7617,652.3159 Q594.7617,649.1865 596.0815,647.5347 Q597.4014,645.8828 599.9082,645.8828 Q600.6138,645.8828 601.2612,646.0322 Q601.9087,646.1816 602.4731,646.4805 L602.4731,649.2031 Q601.8423,648.6221 601.2488,648.3523 Q600.6553,648.0825 600.0244,648.0825 Q598.6797,648.0825 597.9949,649.1492 Q597.3101,650.2158 597.3101,652.3159 Q597.3101,654.4077 597.9949,655.4744 Q598.6797,656.541 600.0244,656.541 Q600.6553,656.541 601.2488,656.2712 Q601.8423,656.0015 602.4731,655.4204 Z " fill="#000000"/><text fill="#000000" font-family="sans-serif" font-size="14" lengthAdjust="spacing" textLength="97" x="614" y="657.291">ScooterOwner</text><line style="stroke:#181818;stroke-width:0.5;" x1="586" x2="713" y1="668" y2="668"/><line style="stroke:#181818;stroke-width:0.5;" x1="586" x2="713" y1="676" y2="676"/></g><!--MD5=[7095d094788fc8e7b2ad0a29574f50bc]
class Claim--><g id="elem_Claim"><rect codeLine="35" fill="#F1F1F1" height="311.8125" id="Claim" rx="2.5" ry="2.5" style="stroke:#181818;stroke-width:0.5;" width="314" x="492.5" y="247"/><ellipse cx="625.75" cy="263" fill="#ADD1B2" rx="11" ry="11" style="stroke:#181818;stroke-width:1.0;"/><path d="M628.2231,269.1431 Q627.6421,269.4419 627.0029,269.5913 Q626.3638,269.7407 625.6582,269.7407 Q623.1514,269.7407 621.8315,268.0889 Q620.5117,266.437 620.5117,263.3159 Q620.5117,260.1865 621.8315,258.5347 Q623.1514,256.8828 625.6582,256.8828 Q626.3638,256.8828 627.0112,257.0322 Q627.6587,257.1816 628.2231,257.4805 L628.2231,260.2031 Q627.5923,259.6221 626.9988,259.3523 Q626.4053,259.0825 625.7744,259.0825 Q624.4297,259.0825 623.7449,260.1492 Q623.0601,261.2158 623.0601,263.3159 Q623.0601,265.4077 623.7449,266.4744 Q624.4297,267.541 625.7744,267.541 Q626.4053,267.541 626.9988,267.2712 Q627.5923,267.0015 628.2231,266.4204 Z " fill="#000000"/><text fill="#000000" font-family="sans-serif" font-size="14" lengthAdjust="spacing" textLength="39" x="646.25" y="268.291">Claim</text><line style="stroke:#181818;stroke-width:0.5;" x1="493.5" x2="805.5" y1="279" y2="279"/><text fill="#000000" font-family="sans-serif" font-size="14" lengthAdjust="spacing" textLength="35" x="498.5" y="296.5352">Int id</text><text fill="#000000" font-family="sans-serif" font-size="14" lengthAdjust="spacing" textLength="71" x="498.5" y="313.0234">String title</text><text fill="#000000" font-family="sans-serif" font-size="14" lengthAdjust="spacing" textLength="94" x="498.5" y="329.5117">String subject</text><text fill="#000000" font-family="sans-serif" font-size="14" lengthAdjust="spacing" textLength="105" x="498.5" y="346">String message</text><text fill="#000000" font-family="sans-serif" font-size="14" lengthAdjust="spacing" textLength="235" x="498.5" y="362.4883">SavTechnicien[] technician_history</text><text fill="#000000" font-family="sans-serif" font-size="14" lengthAdjust="spacing" textLength="155" x="498.5" y="378.9766">Status [] status_history</text><text fill="#000000" font-family="sans-serif" font-size="14" lengthAdjust="spacing" textLength="132" x="498.5" y="395.4648">TimeStamp created</text><text fill="#000000" font-family="sans-serif" font-size="14" lengthAdjust="spacing" textLength="138" x="498.5" y="411.9531">TimeStamp updated</text><line style="stroke:#181818;stroke-width:0.5;" x1="493.5" x2="805.5" y1="418.9063" y2="418.9063"/><text fill="#000000" font-family="sans-serif" font-size="14" lengthAdjust="spacing" textLength="158" x="498.5" y="436.4414">GetAllClaims() : Claim[]</text><text fill="#000000" font-family="sans-serif" font-size="14" lengthAdjust="spacing" textLength="159" x="498.5" y="452.9297">GetMyClaims() : Claim[]</text><text fill="#000000" font-family="sans-serif" font-size="14" lengthAdjust="spacing" textLength="204" x="498.5" y="469.418">GetClaimDetails(Int id) : Claim</text><text fill="#000000" font-family="sans-serif" font-size="14" lengthAdjust="spacing" textLength="302" x="498.5" y="485.9063">GetAllClaimsByStatus(Status status) : Claim[]</text><text fill="#000000" font-family="sans-serif" font-size="14" lengthAdjust="spacing" textLength="215" x="498.5" y="502.3945">CreateClaim(Claim claim) : Bool</text><text fill="#000000" font-family="sans-serif" font-size="14" lengthAdjust="spacing" textLength="202" x="498.5" y="518.8828">SetStatus(Status status) : Bool</text><text fill="#000000" font-family="sans-serif" font-size="14" lengthAdjust="spacing" textLength="263" x="498.5" y="535.3711">AffectTechnician(SavTechnician) : Bool</text><text fill="#000000" font-family="sans-serif" font-size="14" lengthAdjust="spacing" textLength="254" x="498.5" y="551.8594">Comment(Comment comment) : Bool</text></g><!--MD5=[042fa140da40c49659127f611bcff931]
class Comment--><g id="elem_Comment"><rect codeLine="56" fill="#F1F1F1" height="113.9531" id="Comment" rx="2.5" ry="2.5" style="stroke:#181818;stroke-width:0.5;" width="311" x="158" y="31.5"/><ellipse cx="275.75" cy="47.5" fill="#ADD1B2" rx="11" ry="11" style="stroke:#181818;stroke-width:1.0;"/><path d="M278.2231,53.6431 Q277.6421,53.9419 277.0029,54.0913 Q276.3638,54.2407 275.6582,54.2407 Q273.1514,54.2407 271.8315,52.5889 Q270.5117,50.937 270.5117,47.8159 Q270.5117,44.6865 271.8315,43.0347 Q273.1514,41.3828 275.6582,41.3828 Q276.3638,41.3828 277.0112,41.5322 Q277.6587,41.6816 278.2231,41.9805 L278.2231,44.7031 Q277.5923,44.1221 276.9988,43.8523 Q276.4053,43.5825 275.7744,43.5825 Q274.4297,43.5825 273.7449,44.6492 Q273.0601,45.7158 273.0601,47.8159 Q273.0601,49.9077 273.7449,50.9744 Q274.4297,52.041 275.7744,52.041 Q276.4053,52.041 276.9988,51.7712 Q277.5923,51.5015 278.2231,50.9204 Z " fill="#000000"/><text fill="#000000" font-family="sans-serif" font-size="14" lengthAdjust="spacing" textLength="67" x="296.25" y="52.791">Comment</text><line style="stroke:#181818;stroke-width:0.5;" x1="159" x2="468" y1="63.5" y2="63.5"/><text fill="#000000" font-family="sans-serif" font-size="14" lengthAdjust="spacing" textLength="35" x="164" y="81.0352">Int id</text><text fill="#000000" font-family="sans-serif" font-size="14" lengthAdjust="spacing" textLength="105" x="164" y="97.5234">String message</text><text fill="#000000" font-family="sans-serif" font-size="14" lengthAdjust="spacing" textLength="132" x="164" y="114.0117">TimeStamp created</text><line style="stroke:#181818;stroke-width:0.5;" x1="159" x2="468" y1="120.9648" y2="120.9648"/><text fill="#000000" font-family="sans-serif" font-size="14" lengthAdjust="spacing" textLength="299" x="164" y="138.5">CreateComment(Comment comment) : Bool</text></g><!--MD5=[e3d83ec5fd90ea9f3f2bfe265cb53458]
class Status--><g id="elem_Status"><rect codeLine="65" fill="#F1F1F1" height="163.418" id="Status" rx="2.5" ry="2.5" style="stroke:#181818;stroke-width:0.5;" width="242" x="528.5" y="7"/><ellipse cx="624.25" cy="23" fill="#ADD1B2" rx="11" ry="11" style="stroke:#181818;stroke-width:1.0;"/><path d="M626.7231,29.1431 Q626.1421,29.4419 625.5029,29.5913 Q624.8638,29.7407 624.1582,29.7407 Q621.6514,29.7407 620.3315,28.0889 Q619.0117,26.437 619.0117,23.3159 Q619.0117,20.1865 620.3315,18.5347 Q621.6514,16.8828 624.1582,16.8828 Q624.8638,16.8828 625.5112,17.0322 Q626.1587,17.1816 626.7231,17.4805 L626.7231,20.2031 Q626.0923,19.6221 625.4988,19.3523 Q624.9053,19.0825 624.2744,19.0825 Q622.9297,19.0825 622.2449,20.1492 Q621.5601,21.2158 621.5601,23.3159 Q621.5601,25.4077 622.2449,26.4744 Q622.9297,27.541 624.2744,27.541 Q624.9053,27.541 625.4988,27.2712 Q626.0923,27.0015 626.7231,26.4204 Z " fill="#000000"/><text fill="#000000" font-family="sans-serif" font-size="14" lengthAdjust="spacing" textLength="42" x="644.75" y="28.291">Status</text><line style="stroke:#181818;stroke-width:0.5;" x1="529.5" x2="769.5" y1="39" y2="39"/><text fill="#000000" font-family="sans-serif" font-size="14" lengthAdjust="spacing" textLength="83" x="534.5" y="56.5352">String name</text><text fill="#000000" font-family="sans-serif" font-size="14" lengthAdjust="spacing" textLength="80" x="534.5" y="73.0234">String color</text><text fill="#000000" font-family="sans-serif" font-size="14" lengthAdjust="spacing" textLength="132" x="534.5" y="89.5117">TimeStamp created</text><line style="stroke:#181818;stroke-width:0.5;" x1="529.5" x2="769.5" y1="96.4648" y2="96.4648"/><text fill="#000000" font-family="sans-serif" font-size="14" lengthAdjust="spacing" textLength="157" x="534.5" y="114">GetAllStatus() : Status[]</text><text fill="#000000" font-family="sans-serif" font-size="14" lengthAdjust="spacing" textLength="226" x="534.5" y="130.4883">CreateStatus(Status status) : Bool</text><text fill="#000000" font-family="sans-serif" font-size="14" lengthAdjust="spacing" textLength="230" x="534.5" y="146.9766">UpdateStatus(Status status) : Bool</text><text fill="#000000" font-family="sans-serif" font-size="14" lengthAdjust="spacing" textLength="224" x="534.5" y="163.4648">DeleteStatus(Status status) : Bool</text></g><!--MD5=[63ce33cd5e178a8d978ca2d524017a28]
link user to role--><g id="link_user_role"><path codeLine="18" d="M327.31,403 C336.61,403 345.92,403 355.22,403 " fill="none" id="user-to-role" style="stroke:#181818;stroke-width:1.0;stroke-dasharray:7.0,7.0;"/><polygon fill="#181818" points="360.15,403,351.15,399,355.15,403,351.15,407,360.15,403" style="stroke:#181818;stroke-width:1.0;"/></g><!--MD5=[72c6e1b549b1447b7193b68ca321e55c]
reverse link user to SuperAdmin--><g id="link_user_SuperAdmin"><path codeLine="29" d="M161.48,519.15 C131.35,563.04 99.88,608.91 81.51,635.67 " fill="none" id="user-backto-SuperAdmin" style="stroke:#181818;stroke-width:1.0;"/><polygon fill="none" points="155.65,515.27,172.73,502.74,167.19,523.2,155.65,515.27" style="stroke:#181818;stroke-width:1.0;"/></g><!--MD5=[05f636e075c7bd91d367b75f821ac10f]
reverse link user to Admin--><g id="link_user_Admin"><path codeLine="30" d="M220.49,522.65 C213.27,565.47 205.83,609.62 201.43,635.67 " fill="none" id="user-backto-Admin" style="stroke:#181818;stroke-width:1.0;"/><polygon fill="none" points="213.58,521.55,223.81,502.99,227.38,523.87,213.58,521.55" style="stroke:#181818;stroke-width:1.0;"/></g><!--MD5=[a0c268020e0ea84cf6c1ae41f1c646a6]
reverse link user to SavManager--><g id="link_user_SavManager"><path codeLine="31" d="M281.14,521.78 C296.01,564.86 311.4,609.44 320.45,635.67 " fill="none" id="user-backto-SavManager" style="stroke:#181818;stroke-width:1.0;"/><polygon fill="none" points="274.55,524.12,274.64,502.93,287.78,519.55,274.55,524.12" style="stroke:#181818;stroke-width:1.0;"/></g><!--MD5=[6c6a2421dbef40088648d4c8648b098e]
reverse link user to SavTechnicien--><g id="link_user_SavTechnicien"><path codeLine="32" d="M310.03,518.17 C320.8,532.56 332.39,546.57 344.5,559 C374.35,589.63 414.65,617.14 444.53,635.52 " fill="none" id="user-backto-SavTechnicien" style="stroke:#181818;stroke-width:1.0;"/><polygon fill="none" points="304.69,522.73,298.68,502.41,316.05,514.55,304.69,522.73" style="stroke:#181818;stroke-width:1.0;"/></g><!--MD5=[7f0987adb26d197418a474c5d06e2920]
reverse link user to ScooterOwner--><g id="link_user_ScooterOwner"><path codeLine="33" d="M303.78,518.07 C315.81,533.3 329.42,547.58 344.5,559 C364.07,573.83 501.26,615.64 584.84,640.25 " fill="none" id="user-backto-ScooterOwner" style="stroke:#181818;stroke-width:1.0;"/><polygon fill="none" points="298.51,522.72,292.26,502.47,309.77,514.4,298.51,522.72" style="stroke:#181818;stroke-width:1.0;"/></g><!--MD5=[7fd0737aec2e781d8301426acfd725d6]
link Claim to SavTechnicien--><g id="link_Claim_SavTechnicien"><path codeLine="77" d="M549.61,559.31 C530.35,589.26 512.47,617.06 500.52,635.65 " fill="none" id="Claim-SavTechnicien" style="stroke:#181818;stroke-width:1.0;"/><text fill="#000000" font-family="sans-serif" font-size="13" lengthAdjust="spacing" textLength="75" x="530.5" y="602.5684">in charge of</text><text fill="#000000" font-family="sans-serif" font-size="13" lengthAdjust="spacing" textLength="6" x="538.9478" y="579.3123">*</text><text fill="#000000" font-family="sans-serif" font-size="13" lengthAdjust="spacing" textLength="6" x="497.6001" y="625.0966">*</text></g><!--MD5=[a19c13e5c7048fa560f63525c232ac80]
link Claim to ScooterOwner--><g id="link_Claim_ScooterOwner"><path codeLine="78" d="M649.5,559.31 C649.5,589.26 649.5,617.06 649.5,635.65 " fill="none" id="Claim-ScooterOwner" style="stroke:#181818;stroke-width:1.0;"/><text fill="#000000" font-family="sans-serif" font-size="13" lengthAdjust="spacing" textLength="48" x="650.5" y="602.5684">authors</text><text fill="#000000" font-family="sans-serif" font-size="13" lengthAdjust="spacing" textLength="6" x="643.3641" y="579.3123">*</text><text fill="#000000" font-family="sans-serif" font-size="13" lengthAdjust="spacing" textLength="8" x="640.475" y="625.0966">1</text></g><!--MD5=[a7c331c6c5323a8812e10043ff175a90]
link Comment to Claim--><g id="link_Comment_Claim"><path codeLine="79" d="M373.96,145.73 C404.48,174.12 443.18,210.11 481.85,246.08 " fill="none" id="Comment-to-Claim" style="stroke:#181818;stroke-width:1.0;"/><polygon fill="#181818" points="491.11,254.68,489.4439,247.664,482.3268,246.5035,483.9929,253.5195,491.11,254.68" style="stroke:#181818;stroke-width:1.0;"/><text fill="#000000" font-family="sans-serif" font-size="13" lengthAdjust="spacing" textLength="6" x="374.9629" y="166.2091">*</text><text fill="#000000" font-family="sans-serif" font-size="13" lengthAdjust="spacing" textLength="8" x="476.3975" y="245.7928">1</text></g><!--MD5=[de30aac40abd64c2b678904a8c9501c4]
link Comment to user--><g id="link_Comment_user"><path codeLine="80" d="M300.36,145.73 C290.95,186.04 277.95,241.67 266.48,290.81 " fill="none" id="Comment-to-user" style="stroke:#181818;stroke-width:1.0;"/><polygon fill="#181818" points="263.55,303.33,268.8089,298.3961,266.2772,291.644,261.0183,296.5779,263.55,303.33" style="stroke:#181818;stroke-width:1.0;"/><text fill="#000000" font-family="sans-serif" font-size="13" lengthAdjust="spacing" textLength="50" x="287.5" y="213.5684">Authors</text><text fill="#000000" font-family="sans-serif" font-size="13" lengthAdjust="spacing" textLength="6" x="292.3929" y="166.2091">*</text><text fill="#000000" font-family="sans-serif" font-size="13" lengthAdjust="spacing" textLength="8" x="256.6317" y="294.2833">1</text></g><!--MD5=[40dd4860c837e616882631ea9f625d93]
link Status to Claim--><g id="link_Status_Claim"><path codeLine="81" d="M649.5,170.38 C649.5,193.8 649.5,220.19 649.5,246.55 " fill="none" id="Status-Claim" style="stroke:#181818;stroke-width:1.0;"/><text fill="#000000" font-family="sans-serif" font-size="13" lengthAdjust="spacing" textLength="6" x="643.2328" y="190.904">*</text><text fill="#000000" font-family="sans-serif" font-size="13" lengthAdjust="spacing" textLength="6" x="643.3547" y="236.1891">*</text></g><!--MD5=[cb565c98c9a93961c1ca108705986ab5]
@startuml claims_class_diagram
Class user {
Int id
String name
String password
String username
String email
Bool enabled 
String verification_code
JSON Login()
Bool Register()
}

Class role{
Int id
String name
}

user .right.> role

 
Class SuperAdmin{}
Class Admin{}
Class SavManager{}
Class SavTechnicien{}
Class ScooterOwner{}


top to bottom direction
user <|- - SuperAdmin
user <|- - Admin
user <|- - SavManager
user <|- - SavTechnicien
user <|- - ScooterOwner

Class Claim {
Int id
String title
String subject
String message
SavTechnicien[] technician_history
Status [] status_history
TimeStamp created
TimeStamp updated

GetAllClaims() : Claim[]
GetMyClaims() : Claim[]
GetClaimDetails(Int id) : Claim
GetAllClaimsByStatus(Status status) : Claim[]
CreateClaim(Claim claim) : Bool
SetStatus(Status status) : Bool
AffectTechnician(SavTechnician) : Bool
Comment(Comment comment) : Bool

}

Class Comment{
Int id
String message
TimeStamp created

CreateComment(Comment comment) : Bool

}

Class Status{
String name
String color
TimeStamp created

GetAllStatus() : Status[]
CreateStatus(Status status) : Bool
UpdateStatus(Status status) : Bool
DeleteStatus(Status status) : Bool

}

Claim "*"- -"*" SavTechnicien : in charge of 
Claim "*"- -"1" ScooterOwner : authors
Comment "*"- -*"1" Claim
Comment "*"- -*"1" user : Authors
Status "*"- -"*" Claim


@enduml

PlantUML version 1.2022.7(Mon Aug 22 18:01:30 CET 2022)
(GPL source distribution)
Java Runtime: Java(TM) SE Runtime Environment
JVM: Java HotSpot(TM) 64-Bit Server VM
Default Encoding: UTF-8
Language: fr
Country: FR
--></g></svg>