<?xml version="1.0" encoding="UTF-8" standalone="no"?><svg xmlns="http://www.w3.org/2000/svg" xmlns:xlink="http://www.w3.org/1999/xlink" contentStyleType="text/css" height="581px" preserveAspectRatio="none" style="width:407px;height:581px;background:#FFFFFF;" version="1.1" viewBox="0 0 407 581" width="407px" zoomAndPan="magnify"><defs/><g><!--MD5=[e59cf999063292dce8d6ea34dd10a338]
class user--><g id="elem_user"><rect codeLine="1" fill="#F1F1F1" height="206.4844" id="user" rx="2.5" ry="2.5" style="stroke:#181818;stroke-width:0.5;" width="160" x="117" y="7"/><ellipse cx="178.75" cy="23" fill="#ADD1B2" rx="11" ry="11" style="stroke:#181818;stroke-width:1.0;"/><path d="M181.5156,18.875 Q181.6719,18.6563 181.8594,18.5469 Q182.0469,18.4375 182.2656,18.4375 Q182.6406,18.4375 182.875,18.7031 Q183.1094,18.9531 183.1094,19.5625 L183.1094,21.0156 Q183.1094,21.625 182.875,21.8906 Q182.6406,22.1563 182.2656,22.1563 Q181.9219,22.1563 181.7188,21.9531 Q181.5156,21.7656 181.4063,21.25 Q181.3594,20.8906 181.1719,20.7031 Q180.8438,20.3281 180.2344,20.1094 Q179.625,19.8906 179,19.8906 Q178.2344,19.8906 177.5938,20.2188 Q176.9688,20.5469 176.4688,21.2969 Q175.9844,22.0469 175.9844,23.0781 L175.9844,24.1719 Q175.9844,25.4063 176.875,26.2344 Q177.7656,27.0469 179.3594,27.0469 Q180.2969,27.0469 180.9531,26.7969 Q181.3438,26.6406 181.7656,26.2031 Q182.0313,25.9375 182.1719,25.8594 Q182.3281,25.7813 182.5313,25.7813 Q182.8594,25.7813 183.1094,26.0469 Q183.375,26.2969 183.375,26.6406 Q183.375,26.9844 183.0313,27.3906 Q182.5313,27.9688 181.7344,28.2969 Q180.6563,28.75 179.3594,28.75 Q177.8438,28.75 176.6406,28.125 Q175.6563,27.625 174.9688,26.5625 Q174.2813,25.4844 174.2813,24.2031 L174.2813,23.0469 Q174.2813,21.7188 174.8906,20.5781 Q175.5156,19.4219 176.6094,18.8125 Q177.7031,18.1875 178.9375,18.1875 Q179.6719,18.1875 180.3125,18.3594 Q180.9688,18.5156 181.5156,18.875 Z " fill="#000000"/><text fill="#000000" font-family="sans-serif" font-size="14" lengthAdjust="spacing" textLength="28" x="199.25" y="28.7285">user</text><line style="stroke:#181818;stroke-width:0.5;" x1="118" x2="276" y1="39" y2="39"/><text fill="#000000" font-family="sans-serif" font-size="14" lengthAdjust="spacing" textLength="30" x="123" y="57.5332">Int id</text><text fill="#000000" font-family="sans-serif" font-size="14" lengthAdjust="spacing" textLength="76" x="123" y="75.1426">String name</text><text fill="#000000" font-family="sans-serif" font-size="14" lengthAdjust="spacing" textLength="101" x="123" y="92.752">String password</text><text fill="#000000" font-family="sans-serif" font-size="14" lengthAdjust="spacing" textLength="104" x="123" y="110.3613">String username</text><text fill="#000000" font-family="sans-serif" font-size="14" lengthAdjust="spacing" textLength="74" x="123" y="127.9707">String email</text><text fill="#000000" font-family="sans-serif" font-size="14" lengthAdjust="spacing" textLength="83" x="123" y="145.5801">Bool enabled</text><text fill="#000000" font-family="sans-serif" font-size="14" lengthAdjust="spacing" textLength="148" x="123" y="163.1895">String verification_code</text><line style="stroke:#181818;stroke-width:0.5;" x1="118" x2="276" y1="170.2656" y2="170.2656"/><text fill="#000000" font-family="sans-serif" font-size="14" lengthAdjust="spacing" textLength="84" x="123" y="188.7988">JSON Login()</text><text fill="#000000" font-family="sans-serif" font-size="14" lengthAdjust="spacing" textLength="95" x="123" y="206.4082">Bool Register()</text></g><!--MD5=[230c8b93044a8b32754c79e4598c3632]
class role--><g id="elem_role"><rect codeLine="13" fill="#F1F1F1" height="83.2188" id="role" rx="2.5" ry="2.5" style="stroke:#181818;stroke-width:0.5;" width="88" x="312" y="68.5"/><ellipse cx="341.4" cy="84.5" fill="#ADD1B2" rx="11" ry="11" style="stroke:#181818;stroke-width:1.0;"/><path d="M344.1656,80.375 Q344.3219,80.1563 344.5094,80.0469 Q344.6969,79.9375 344.9156,79.9375 Q345.2906,79.9375 345.525,80.2031 Q345.7594,80.4531 345.7594,81.0625 L345.7594,82.5156 Q345.7594,83.125 345.525,83.3906 Q345.2906,83.6563 344.9156,83.6563 Q344.5719,83.6563 344.3688,83.4531 Q344.1656,83.2656 344.0563,82.75 Q344.0094,82.3906 343.8219,82.2031 Q343.4938,81.8281 342.8844,81.6094 Q342.275,81.3906 341.65,81.3906 Q340.8844,81.3906 340.2438,81.7188 Q339.6188,82.0469 339.1188,82.7969 Q338.6344,83.5469 338.6344,84.5781 L338.6344,85.6719 Q338.6344,86.9063 339.525,87.7344 Q340.4156,88.5469 342.0094,88.5469 Q342.9469,88.5469 343.6031,88.2969 Q343.9938,88.1406 344.4156,87.7031 Q344.6813,87.4375 344.8219,87.3594 Q344.9781,87.2813 345.1813,87.2813 Q345.5094,87.2813 345.7594,87.5469 Q346.025,87.7969 346.025,88.1406 Q346.025,88.4844 345.6813,88.8906 Q345.1813,89.4688 344.3844,89.7969 Q343.3063,90.25 342.0094,90.25 Q340.4938,90.25 339.2906,89.625 Q338.3063,89.125 337.6188,88.0625 Q336.9313,86.9844 336.9313,85.7031 L336.9313,84.5469 Q336.9313,83.2188 337.5406,82.0781 Q338.1656,80.9219 339.2594,80.3125 Q340.3531,79.6875 341.5875,79.6875 Q342.3219,79.6875 342.9625,79.8594 Q343.6188,80.0156 344.1656,80.375 Z " fill="#000000"/><text fill="#000000" font-family="sans-serif" font-size="14" lengthAdjust="spacing" textLength="24" x="358.6" y="90.2285">role</text><line style="stroke:#181818;stroke-width:0.5;" x1="313" x2="399" y1="100.5" y2="100.5"/><text fill="#000000" font-family="sans-serif" font-size="14" lengthAdjust="spacing" textLength="30" x="318" y="119.0332">Int id</text><text fill="#000000" font-family="sans-serif" font-size="14" lengthAdjust="spacing" textLength="76" x="318" y="136.6426">String name</text><line style="stroke:#181818;stroke-width:0.5;" x1="313" x2="399" y1="143.7188" y2="143.7188"/></g><!--MD5=[bb78403d462536eaecf0d31e32db3464]
class SuperAdmin--><g id="elem_SuperAdmin"><rect codeLine="21" fill="#F1F1F1" height="48" id="SuperAdmin" rx="2.5" ry="2.5" style="stroke:#181818;stroke-width:0.5;" width="109" x="61.5" y="274"/><ellipse cx="76.5" cy="290" fill="#ADD1B2" rx="11" ry="11" style="stroke:#181818;stroke-width:1.0;"/><path d="M79.2656,285.875 Q79.4219,285.6563 79.6094,285.5469 Q79.7969,285.4375 80.0156,285.4375 Q80.3906,285.4375 80.625,285.7031 Q80.8594,285.9531 80.8594,286.5625 L80.8594,288.0156 Q80.8594,288.625 80.625,288.8906 Q80.3906,289.1563 80.0156,289.1563 Q79.6719,289.1563 79.4688,288.9531 Q79.2656,288.7656 79.1563,288.25 Q79.1094,287.8906 78.9219,287.7031 Q78.5938,287.3281 77.9844,287.1094 Q77.375,286.8906 76.75,286.8906 Q75.9844,286.8906 75.3438,287.2188 Q74.7188,287.5469 74.2188,288.2969 Q73.7344,289.0469 73.7344,290.0781 L73.7344,291.1719 Q73.7344,292.4063 74.625,293.2344 Q75.5156,294.0469 77.1094,294.0469 Q78.0469,294.0469 78.7031,293.7969 Q79.0938,293.6406 79.5156,293.2031 Q79.7813,292.9375 79.9219,292.8594 Q80.0781,292.7813 80.2813,292.7813 Q80.6094,292.7813 80.8594,293.0469 Q81.125,293.2969 81.125,293.6406 Q81.125,293.9844 80.7813,294.3906 Q80.2813,294.9688 79.4844,295.2969 Q78.4063,295.75 77.1094,295.75 Q75.5938,295.75 74.3906,295.125 Q73.4063,294.625 72.7188,293.5625 Q72.0313,292.4844 72.0313,291.2031 L72.0313,290.0469 Q72.0313,288.7188 72.6406,287.5781 Q73.2656,286.4219 74.3594,285.8125 Q75.4531,285.1875 76.6875,285.1875 Q77.4219,285.1875 78.0625,285.3594 Q78.7188,285.5156 79.2656,285.875 Z " fill="#000000"/><text fill="#000000" font-family="sans-serif" font-size="14" lengthAdjust="spacing" textLength="77" x="90.5" y="295.7285">SuperAdmin</text><line style="stroke:#181818;stroke-width:0.5;" x1="62.5" x2="169.5" y1="306" y2="306"/><line style="stroke:#181818;stroke-width:0.5;" x1="62.5" x2="169.5" y1="314" y2="314"/></g><!--MD5=[db6d18d8099558415abc41d00477ab92]
class Admin--><g id="elem_Admin"><rect codeLine="22" fill="#F1F1F1" height="48" id="Admin" rx="2.5" ry="2.5" style="stroke:#181818;stroke-width:0.5;" width="71" x="125.5" y="400"/><ellipse cx="140.5" cy="416" fill="#ADD1B2" rx="11" ry="11" style="stroke:#181818;stroke-width:1.0;"/><path d="M143.2656,411.875 Q143.4219,411.6563 143.6094,411.5469 Q143.7969,411.4375 144.0156,411.4375 Q144.3906,411.4375 144.625,411.7031 Q144.8594,411.9531 144.8594,412.5625 L144.8594,414.0156 Q144.8594,414.625 144.625,414.8906 Q144.3906,415.1563 144.0156,415.1563 Q143.6719,415.1563 143.4688,414.9531 Q143.2656,414.7656 143.1563,414.25 Q143.1094,413.8906 142.9219,413.7031 Q142.5938,413.3281 141.9844,413.1094 Q141.375,412.8906 140.75,412.8906 Q139.9844,412.8906 139.3438,413.2188 Q138.7188,413.5469 138.2188,414.2969 Q137.7344,415.0469 137.7344,416.0781 L137.7344,417.1719 Q137.7344,418.4063 138.625,419.2344 Q139.5156,420.0469 141.1094,420.0469 Q142.0469,420.0469 142.7031,419.7969 Q143.0938,419.6406 143.5156,419.2031 Q143.7813,418.9375 143.9219,418.8594 Q144.0781,418.7813 144.2813,418.7813 Q144.6094,418.7813 144.8594,419.0469 Q145.125,419.2969 145.125,419.6406 Q145.125,419.9844 144.7813,420.3906 Q144.2813,420.9688 143.4844,421.2969 Q142.4063,421.75 141.1094,421.75 Q139.5938,421.75 138.3906,421.125 Q137.4063,420.625 136.7188,419.5625 Q136.0313,418.4844 136.0313,417.2031 L136.0313,416.0469 Q136.0313,414.7188 136.6406,413.5781 Q137.2656,412.4219 138.3594,411.8125 Q139.4531,411.1875 140.6875,411.1875 Q141.4219,411.1875 142.0625,411.3594 Q142.7188,411.5156 143.2656,411.875 Z " fill="#000000"/><text fill="#000000" font-family="sans-serif" font-size="14" lengthAdjust="spacing" textLength="39" x="154.5" y="421.7285">Admin</text><line style="stroke:#181818;stroke-width:0.5;" x1="126.5" x2="195.5" y1="432" y2="432"/><line style="stroke:#181818;stroke-width:0.5;" x1="126.5" x2="195.5" y1="440" y2="440"/></g><!--MD5=[1905ef06d686617e564499c57ef4e8b7]
class SavManager--><g id="elem_SavManager"><rect codeLine="23" fill="#F1F1F1" height="48" id="SavManager" rx="2.5" ry="2.5" style="stroke:#181818;stroke-width:0.5;" width="112" x="7" y="526"/><ellipse cx="22" cy="542" fill="#ADD1B2" rx="11" ry="11" style="stroke:#181818;stroke-width:1.0;"/><path d="M24.7656,537.875 Q24.9219,537.6563 25.1094,537.5469 Q25.2969,537.4375 25.5156,537.4375 Q25.8906,537.4375 26.125,537.7031 Q26.3594,537.9531 26.3594,538.5625 L26.3594,540.0156 Q26.3594,540.625 26.125,540.8906 Q25.8906,541.1563 25.5156,541.1563 Q25.1719,541.1563 24.9688,540.9531 Q24.7656,540.7656 24.6563,540.25 Q24.6094,539.8906 24.4219,539.7031 Q24.0938,539.3281 23.4844,539.1094 Q22.875,538.8906 22.25,538.8906 Q21.4844,538.8906 20.8438,539.2188 Q20.2188,539.5469 19.7188,540.2969 Q19.2344,541.0469 19.2344,542.0781 L19.2344,543.1719 Q19.2344,544.4063 20.125,545.2344 Q21.0156,546.0469 22.6094,546.0469 Q23.5469,546.0469 24.2031,545.7969 Q24.5938,545.6406 25.0156,545.2031 Q25.2813,544.9375 25.4219,544.8594 Q25.5781,544.7813 25.7813,544.7813 Q26.1094,544.7813 26.3594,545.0469 Q26.625,545.2969 26.625,545.6406 Q26.625,545.9844 26.2813,546.3906 Q25.7813,546.9688 24.9844,547.2969 Q23.9063,547.75 22.6094,547.75 Q21.0938,547.75 19.8906,547.125 Q18.9063,546.625 18.2188,545.5625 Q17.5313,544.4844 17.5313,543.2031 L17.5313,542.0469 Q17.5313,540.7188 18.1406,539.5781 Q18.7656,538.4219 19.8594,537.8125 Q20.9531,537.1875 22.1875,537.1875 Q22.9219,537.1875 23.5625,537.3594 Q24.2188,537.5156 24.7656,537.875 Z " fill="#000000"/><text fill="#000000" font-family="sans-serif" font-size="14" lengthAdjust="spacing" textLength="80" x="36" y="547.7285">SavManager</text><line style="stroke:#181818;stroke-width:0.5;" x1="8" x2="118" y1="558" y2="558"/><line style="stroke:#181818;stroke-width:0.5;" x1="8" x2="118" y1="566" y2="566"/></g><!--MD5=[3970ac9d0f2932d0a717d423a1fe4097]
class SavTechnician--><g id="elem_SavTechnician"><rect codeLine="24" fill="#F1F1F1" height="48" id="SavTechnician" rx="2.5" ry="2.5" style="stroke:#181818;stroke-width:0.5;" width="125" x="188.5" y="526"/><ellipse cx="203.5" cy="542" fill="#ADD1B2" rx="11" ry="11" style="stroke:#181818;stroke-width:1.0;"/><path d="M206.2656,537.875 Q206.4219,537.6563 206.6094,537.5469 Q206.7969,537.4375 207.0156,537.4375 Q207.3906,537.4375 207.625,537.7031 Q207.8594,537.9531 207.8594,538.5625 L207.8594,540.0156 Q207.8594,540.625 207.625,540.8906 Q207.3906,541.1563 207.0156,541.1563 Q206.6719,541.1563 206.4688,540.9531 Q206.2656,540.7656 206.1563,540.25 Q206.1094,539.8906 205.9219,539.7031 Q205.5938,539.3281 204.9844,539.1094 Q204.375,538.8906 203.75,538.8906 Q202.9844,538.8906 202.3438,539.2188 Q201.7188,539.5469 201.2188,540.2969 Q200.7344,541.0469 200.7344,542.0781 L200.7344,543.1719 Q200.7344,544.4063 201.625,545.2344 Q202.5156,546.0469 204.1094,546.0469 Q205.0469,546.0469 205.7031,545.7969 Q206.0938,545.6406 206.5156,545.2031 Q206.7813,544.9375 206.9219,544.8594 Q207.0781,544.7813 207.2813,544.7813 Q207.6094,544.7813 207.8594,545.0469 Q208.125,545.2969 208.125,545.6406 Q208.125,545.9844 207.7813,546.3906 Q207.2813,546.9688 206.4844,547.2969 Q205.4063,547.75 204.1094,547.75 Q202.5938,547.75 201.3906,547.125 Q200.4063,546.625 199.7188,545.5625 Q199.0313,544.4844 199.0313,543.2031 L199.0313,542.0469 Q199.0313,540.7188 199.6406,539.5781 Q200.2656,538.4219 201.3594,537.8125 Q202.4531,537.1875 203.6875,537.1875 Q204.4219,537.1875 205.0625,537.3594 Q205.7188,537.5156 206.2656,537.875 Z " fill="#000000"/><text fill="#000000" font-family="sans-serif" font-size="14" lengthAdjust="spacing" textLength="93" x="217.5" y="547.7285">SavTechnician</text><line style="stroke:#181818;stroke-width:0.5;" x1="189.5" x2="312.5" y1="558" y2="558"/><line style="stroke:#181818;stroke-width:0.5;" x1="189.5" x2="312.5" y1="566" y2="566"/></g><!--MD5=[63ce33cd5e178a8d978ca2d524017a28]
link user to role--><g id="link_user_role"><path codeLine="18" d="M277.12,110 C287,110 296.89,110 306.77,110 " fill="none" id="user-to-role" style="stroke:#181818;stroke-width:1.0;stroke-dasharray:7.0,7.0;"/><polygon fill="#181818" points="311.94,110,302.94,106,306.94,110,302.94,114,311.94,110" style="stroke:#181818;stroke-width:1.0;"/></g><!--MD5=[72c6e1b549b1447b7193b68ca321e55c]
reverse link user to SuperAdmin--><g id="link_user_SuperAdmin"><path codeLine="28" d="M144.45,231.67 C137.5,247.63 131.07,262.39 126.09,273.83 " fill="none" id="user-backto-SuperAdmin" style="stroke:#181818;stroke-width:1.0;"/><polygon fill="none" points="138.07,228.79,152.47,213.25,150.9,234.38,138.07,228.79" style="stroke:#181818;stroke-width:1.0;"/></g><!--MD5=[05f636e075c7bd91d367b75f821ac10f]
reverse link user to Admin--><g id="link_user_Admin"><path codeLine="29" d="M206.35,233.25 C206.53,277.06 203.03,326.39 191,370 C188.13,380.4 182.79,390.92 177.39,399.82 " fill="none" id="user-backto-Admin" style="stroke:#181818;stroke-width:1.0;"/><polygon fill="none" points="199.35,233.33,206.02,213.22,213.35,233.1,199.35,233.33" style="stroke:#181818;stroke-width:1.0;"/></g><!--MD5=[a0c268020e0ea84cf6c1ae41f1c646a6]
reverse link user to SavManager--><g id="link_user_SavManager"><path codeLine="30" d="M102.54,187.92 C78.88,212.65 56.66,242.02 44,274 C9.3,361.66 39.26,477.26 54.91,525.88 " fill="none" id="user-backto-SavManager" style="stroke:#181818;stroke-width:1.0;"/><polygon fill="none" points="97.87,182.69,116.97,173.52,107.75,192.6,97.87,182.69" style="stroke:#181818;stroke-width:1.0;"/></g><!--MD5=[8bb68609a4e62aa5b8b1d511d6dd198c]
reverse link user to SavTechnician--><g id="link_user_SavTechnician"><path codeLine="31" d="M230.94,232.92 C231.66,236.31 232.35,239.67 233,243 C253.11,346.24 254.77,373 261,478 C261.47,485.99 261.74,488.03 261,496 C260.08,505.88 258.2,516.67 256.32,525.91 " fill="none" id="user-backto-SavTechnician" style="stroke:#181818;stroke-width:1.0;"/><polygon fill="none" points="224.1,234.39,226.5,213.34,237.75,231.29,224.1,234.39" style="stroke:#181818;stroke-width:1.0;"/></g><!--MD5=[09aae7af09b34a009e8e6147e67eb674]
link SuperAdmin to Admin--><g id="link_SuperAdmin_Admin"><path codeLine="34" d="M124.36,322.03 C132.39,344.17 144.47,377.44 152.53,399.67 " fill="none" id="SuperAdmin-Admin" style="stroke:#181818;stroke-width:1.0;"/><text fill="#000000" font-family="sans-serif" font-size="13" lengthAdjust="spacing" textLength="39" x="143" y="366.4951">accept</text><text fill="#000000" font-family="sans-serif" font-size="13" lengthAdjust="spacing" textLength="7" x="118.5446" y="343.3753">1</text><text fill="#000000" font-family="sans-serif" font-size="13" lengthAdjust="spacing" textLength="5" x="144.8561" y="389.3275">*</text></g><!--MD5=[6951d3d603eaa732e2d95768dbc39690]
link Admin to SavManager--><g id="link_Admin_SavManager"><path codeLine="35" d="M142.8,448.03 C125.3,470.17 99.01,503.44 81.44,525.67 " fill="none" id="Admin-SavManager" style="stroke:#181818;stroke-width:1.0;"/><text fill="#000000" font-family="sans-serif" font-size="13" lengthAdjust="spacing" textLength="39" x="119" y="492.4951">accept</text><text fill="#000000" font-family="sans-serif" font-size="13" lengthAdjust="spacing" textLength="7" x="130.5106" y="469.3753">1</text><text fill="#000000" font-family="sans-serif" font-size="13" lengthAdjust="spacing" textLength="5" x="80.3254" y="515.3275">*</text></g><!--MD5=[2495fd0e5cfe1c9b4839490e04d8c76f]
link Admin to SavTechnician--><g id="link_Admin_SavTechnician"><path codeLine="36" d="M177.72,448.03 C193.78,470.17 217.93,503.44 234.07,525.67 " fill="none" id="Admin-SavTechnician" style="stroke:#181818;stroke-width:1.0;"/><text fill="#000000" font-family="sans-serif" font-size="13" lengthAdjust="spacing" textLength="39" x="213" y="492.4951">accept</text><text fill="#000000" font-family="sans-serif" font-size="13" lengthAdjust="spacing" textLength="7" x="173.9424" y="469.3753">1</text><text fill="#000000" font-family="sans-serif" font-size="13" lengthAdjust="spacing" textLength="5" x="224.3339" y="515.3275">*</text></g><!--MD5=[542a4544dd11c29963091371ddb12044]
@startuml role_management_class_diagram
Class user {
Int id
String name
String password
String username
String email
Bool enabled 
String verification_code
JSON Login()
Bool Register()
}

Class role{
Int id
String name
}

user .right.> role

 
Class SuperAdmin{}
Class Admin{}
Class SavManager{}
Class SavTechnician{}


top to bottom direction
user <|- - SuperAdmin
user <|- - Admin
user <|- - SavManager
user <|- - SavTechnician


SuperAdmin "1"- -"*" Admin : accept
Admin "1"- -"*" SavManager : accept
Admin "1"- -"*" SavTechnician : accept






@enduml

PlantUML version 1.2022.7(Mon Aug 22 19:01:30 CEST 2022)
(GPL source distribution)
Java Runtime: Java(TM) SE Runtime Environment
JVM: Java HotSpot(TM) 64-Bit Server VM
Default Encoding: Cp1252
Language: fr
Country: FR
--></g></svg>